<?xml version="1.0" encoding="UTF-8"?>
<svg width="40px" height="40px" viewBox="0 0 40 40" version="1.1" xmlns="http://www.w3.org/2000/svg" xmlns:xlink="http://www.w3.org/1999/xlink">
    <!-- Generator: Sketch 52.5 (67469) - http://www.bohemiancoding.com/sketch -->
    <title>Group</title>
    <desc>Created with Sketch.</desc>
    <g id="A_HP" stroke="none" stroke-width="1" fill="none" fill-rule="evenodd">
        <g id="A_HP_V1" transform="translate(-445.000000, -1133.000000)" fill="#FFFFFF">
            <g id="camping-ou-village-copy-2" transform="translate(0.000000, 884.000000)">
                <g id="tableau" transform="translate(330.000000, 0.000000)">
                    <g id="camping-argus" transform="translate(115.000000, 141.000000)">
                        <g id="noun_Sport_1473837" transform="translate(0.000000, 108.000000)">
                            <g id="Group">
                                <path d="M39.3096774,22.0983607 C38.8713936,15.6001222 33.5824388,10.5416871 27.1741935,10.4918033 C25.3867328,4.39773715 19.7261709,0.340219783 13.4782786,0.67450704 C7.23038631,1.0087943 2.0202418,5.64793799 0.872163261,11.8990672 C-0.275915282,18.1501965 2.93668764,24.3873911 8.64516129,26.9901639 C7.38655969,27.680942 6.21646027,28.5266532 5.16129032,29.5081967 L3.29032258,31.2327869 C2.86407531,31.6285295 2.63388939,32.197009 2.66259442,32.783058 C2.69129945,33.369107 2.97589844,33.9115386 3.43870968,34.2622951 L5.50967742,35.842623 C8.49304782,38.1028197 12.1113259,39.3302168 15.8322581,39.3442623 L17.6774194,39.3442623 C21.3983516,39.3302168 25.0166296,38.1028197 28,35.842623 L28.7290323,35.2852459 C34.8084037,34.4550698 39.3481225,29.1853684 39.3548387,22.9508197 C39.3548387,22.7803279 39.3548387,22.6098361 39.3548387,22.4393443 C39.3726687,22.3236371 39.3569767,22.2051567 39.3096774,22.0983607 Z M36.7290323,27.9016393 C36.6156421,27.6724984 36.3812175,27.5315874 36.1290323,27.5409836 L31.8774194,27.5409836 L30.4,26.0393443 L31.5419355,21.9934426 L33.4774194,21.0754098 L37.0516129,23.495082 C37.1602315,23.5692918 37.2884871,23.6081706 37.4193548,23.6065574 C37.5203498,23.6059419 37.6197921,23.5812353 37.7096774,23.5344262 L38.0451613,23.3639344 C37.9876187,25.0220942 37.5666291,26.646288 36.8129032,28.1180328 L36.7290323,27.9016393 Z M29.6774194,30.6885246 L28.4193548,29.5081967 C27.2993027,28.4718638 26.0498511,27.5899649 24.7032258,26.8852459 L29.4129032,26.8852459 L30.8258065,28.3278689 L29.6774194,30.6885246 Z M5.09032258,6.10491803 L13.283871,14.4262295 L11.2387097,16.504918 C8.98820514,14.428225 6.11599795,13.1810589 3.08387097,12.9639344 L2.04516129,12.8852459 C2.35087014,10.3608648 3.41412063,7.9934411 5.09032258,6.10491803 Z M12.7548387,3.13442623 C12.9698785,6.21396573 14.196836,9.13072746 16.2387097,11.4163934 L14.1935484,13.5016393 L6.00645161,5.17377049 C7.86451463,3.47008982 10.1937541,2.38940899 12.6774194,2.07868852 L12.7548387,3.13442623 Z M23.3032258,6.09836066 C24.4485761,7.38725024 25.3146079,8.90642723 25.8451613,10.557377 C23.7335667,10.7837416 21.7177189,11.5707342 20,12.8393443 C19.3127943,12.4270976 18.6648376,11.9507255 18.0645161,11.4163934 L23.3032258,6.09836066 Z M30.0322581,12.2229508 L30.2,12.7278689 L27.0967742,14.9377049 L23.9935484,12.7278689 L24.1612903,12.2229508 C26.0795417,11.6632528 28.1140067,11.6632528 30.0322581,12.2229508 Z M30.1483871,21.8754098 C30.1483871,21.8754098 30.1483871,21.8754098 30.1483871,21.9147541 L30.1870968,21.9803279 L29.1935484,25.5737705 L25,25.5737705 L23.9741935,21.9213115 L27.0967742,19.8032787 L30.1483871,21.8754098 Z M23.1483871,20.904918 L20.4967742,19.8229508 L19.3096774,16.8065574 C19.2540943,16.6562345 19.1429863,16.5338942 19,16.4655738 L18.4129032,16.1639344 C19.5187641,14.7047272 20.9612618,13.5448735 22.6129032,12.7868852 C22.5281679,13.0598403 22.6274039,13.35712 22.8580645,13.5213115 L26.4516129,16.0786885 L26.4516129,18.6622951 L23.1483871,20.904918 Z M17.683871,17.2590164 L18.2,17.5213115 L19.2451613,20.1442623 L16.6645161,22.7672131 L16.1290323,22.557377 C16.196591,20.6857735 16.7316625,18.8624322 17.683871,17.2590164 Z M18.9032258,13.7114754 C18.1910123,14.3609198 17.5545801,15.0913939 17.0064516,15.8885246 C16.9391343,15.946522 16.8842393,16.0179396 16.8451613,16.0983607 C16.843024,16.1223553 16.843024,16.1464972 16.8451613,16.1704918 L15.1032258,14.4262295 L17.1548387,12.3409836 C17.6991491,12.8464057 18.2839703,13.304824 18.9032258,13.7114754 Z M14.1935484,15.3508197 L16.1612903,17.3508197 C15.4258332,18.8214313 14.987125,20.4266716 14.8709677,22.0721311 C14.2740053,20.3541217 13.3438014,18.7753934 12.1354839,17.4295082 L14.1935484,15.3508197 Z M16.316129,24.9180328 C16.2645161,24.6229508 16.2193548,24.3278689 16.1870968,24.0262295 L16.483871,24.1770492 C16.5716689,24.2307258 16.6717588,24.2601147 16.7741935,24.2622951 C16.9456793,24.2633028 17.110504,24.1948764 17.2322581,24.0721311 L20.1548387,21.095082 L22.6903226,22.1311475 L23.8709677,26.4065574 C23.8792854,26.442124 23.8946523,26.4755929 23.916129,26.504918 C21.6746746,25.4624883 19.2391472,24.9213321 16.7741935,24.9180328 L16.316129,24.9180328 Z M35.9483871,16.3934426 C37.1153316,18.0101537 37.8288491,19.9183742 38.0129032,21.9147541 L37.4645161,22.1967213 L34.2967742,20.0459016 L35.3225806,16.3934426 L35.9483871,16.3934426 Z M34.8387097,15.0819672 C34.5406427,15.0707659 34.2738778,15.2686967 34.1935484,15.5606557 L32.9806452,19.8557377 L30.9677419,20.8327869 L27.7419355,18.6622951 L27.7419355,16.0786885 L31.3354839,13.5213115 C31.5782131,13.3663275 31.6912233,13.0671499 31.6129032,12.7868852 C32.815093,13.3487346 33.9078245,14.1261862 34.8387097,15.0819672 Z M22.3806452,5.17377049 L17.1548387,10.4918033 C15.3293571,8.43046378 14.2327447,5.8089858 14.0387097,3.04262295 L13.9677419,1.96721311 C17.0712726,1.90935014 20.0798019,3.05604367 22.3806452,5.17377049 Z M1.93548387,14.1967213 L2.97419355,14.2688525 C5.70191681,14.4599458 8.28847949,15.5724667 10.3225806,17.4295082 L5.09032258,22.747541 C3.00675265,20.4089789 1.87855417,17.3511295 1.93548387,14.1967213 Z M5.97419355,23.6852459 L11.2387097,18.3606557 C12.9029634,20.2420866 13.9591037,22.597277 14.2645161,25.1081967 C12.8865172,25.3123988 11.5386534,25.6890277 10.2516129,26.2295082 C8.67823235,25.6813803 7.22993891,24.8160015 5.99354839,23.6852459 L5.97419355,23.6852459 Z M27.2645161,34.7934426 C24.5009031,36.8907282 21.1457424,38.0266828 17.6967742,38.0327869 L15.8516129,38.0327869 C12.4026447,38.0266828 9.047484,36.8907282 6.28387097,34.7934426 L4.21290323,33.2131148 C4.05750356,33.0949086 3.9627227,32.9118728 3.95483871,32.7147541 C3.94612595,32.5216687 4.02166984,32.3345118 4.16129032,32.2032787 L6,30.4852459 C7.31403299,29.2727961 8.81593562,28.2890854 10.4451613,27.5737705 C10.543236,27.5562092 10.6359796,27.5158104 10.716129,27.4557377 C16.4294585,25.0559736 22.9932365,26.2373374 27.5483871,30.4852459 L29.3870968,32.2032787 C29.5267173,32.3345118 29.6022611,32.5216687 29.5935484,32.7147541 C29.5856644,32.9118728 29.4908835,33.0949086 29.3354839,33.2131148 L27.2645161,34.7934426 Z M30.716129,33.4819672 C30.8075115,33.2743828 30.8642027,33.0527653 30.883871,32.8262295 C30.8982492,32.4465445 30.8041357,32.070752 30.6129032,31.7442623 L32.0129032,28.852459 L35.7290323,28.852459 L36.0193548,29.4360656 C34.6988779,31.2939394 32.8470701,32.6929699 30.716129,33.442623 L30.716129,33.4819672 Z" id="Shape" fill-rule="nonzero"></path>
                                <path d="M22.5806452,31.4754098 L21.9354839,31.4754098 L21.9354839,30.8196721 C21.9354839,30.4575182 21.6466353,30.1639344 21.2903226,30.1639344 C20.9340098,30.1639344 20.6451613,30.4575182 20.6451613,30.8196721 L20.6451613,31.4754098 L19.3548387,31.4754098 L19.3548387,30.8196721 C19.3548387,30.4575182 19.0659902,30.1639344 18.7096774,30.1639344 C18.3533647,30.1639344 18.0645161,30.4575182 18.0645161,30.8196721 L18.0645161,31.4754098 L16.7741935,31.4754098 L16.7741935,30.8196721 C16.7741935,30.4575182 16.485345,30.1639344 16.1290323,30.1639344 C15.7727195,30.1639344 15.483871,30.4575182 15.483871,30.8196721 L15.483871,31.4754098 L14.1935484,31.4754098 L14.1935484,30.8196721 C14.1935484,30.4575182 13.9046998,30.1639344 13.5483871,30.1639344 C13.1920744,30.1639344 12.9032258,30.4575182 12.9032258,30.8196721 L12.9032258,31.4754098 L11.6129032,31.4754098 L11.6129032,30.8196721 C11.6129032,30.4575182 11.3240547,30.1639344 10.9677419,30.1639344 C10.6114292,30.1639344 10.3225806,30.4575182 10.3225806,30.8196721 L10.3225806,31.4754098 L9.67741935,31.4754098 C9.32110661,31.4754098 9.03225806,31.7689936 9.03225806,32.1311475 C9.03225806,32.4933015 9.32110661,32.7868852 9.67741935,32.7868852 L10.3225806,32.7868852 L10.3225806,33.442623 C10.3225806,33.8047769 10.6114292,34.0983607 10.9677419,34.0983607 C11.3240547,34.0983607 11.6129032,33.8047769 11.6129032,33.442623 L11.6129032,32.7868852 L12.9032258,32.7868852 L12.9032258,33.442623 C12.9032258,33.8047769 13.1920744,34.0983607 13.5483871,34.0983607 C13.9046998,34.0983607 14.1935484,33.8047769 14.1935484,33.442623 L14.1935484,32.7868852 L15.483871,32.7868852 L15.483871,33.442623 C15.483871,33.8047769 15.7727195,34.0983607 16.1290323,34.0983607 C16.485345,34.0983607 16.7741935,33.8047769 16.7741935,33.442623 L16.7741935,32.7868852 L18.0645161,32.7868852 L18.0645161,33.442623 C18.0645161,33.8047769 18.3533647,34.0983607 18.7096774,34.0983607 C19.0659902,34.0983607 19.3548387,33.8047769 19.3548387,33.442623 L19.3548387,32.7868852 L20.6451613,32.7868852 L20.6451613,33.442623 C20.6451613,33.8047769 20.9340098,34.0983607 21.2903226,34.0983607 C21.6466353,34.0983607 21.9354839,33.8047769 21.9354839,33.442623 L21.9354839,32.7868852 L22.5806452,32.7868852 C22.9369579,32.7868852 23.2258065,32.4933015 23.2258065,32.1311475 C23.2258065,31.7689936 22.9369579,31.4754098 22.5806452,31.4754098 Z" id="Path"></path>
                            </g>
                        </g>
                    </g>
                </g>
            </g>
        </g>
    </g>
</svg>