<?xml version="1.0" encoding="utf-8"?>
<!-- Generator: Adobe Illustrator 16.0.0, SVG Export Plug-In . SVG Version: 6.00 Build 0)  -->
<!DOCTYPE svg PUBLIC "-//W3C//DTD SVG 1.1//EN" "http://www.w3.org/Graphics/SVG/1.1/DTD/svg11.dtd">
<svg version="1.1" id="Layer_1" xmlns="http://www.w3.org/2000/svg" xmlns:xlink="http://www.w3.org/1999/xlink" x="0px" y="0px"
	 width="17.141px" height="11.422px" viewBox="0.792 0.789 17.141 11.422" enable-background="new 0.792 0.789 17.141 11.422"
	 xml:space="preserve">
<path fill="#01513B" d="M17.897,6.686c0.012-0.063,0.035-0.123,0.035-0.186c0-0.063-0.023-0.122-0.034-0.184
	c-0.013-0.064-0.014-0.131-0.039-0.192c-0.021-0.052-0.063-0.094-0.094-0.143c-0.039-0.063-0.067-0.131-0.122-0.186l-4.676-4.71
	c-0.39-0.393-1.024-0.395-1.414-0.005c-0.393,0.389-0.395,1.022-0.006,1.414L14.532,5.5H1.792c-0.552,0-1,0.448-1,1
	c0,0.553,0.448,1,1,1h12.741l-2.984,3.007c-0.389,0.392-0.387,1.024,0.006,1.414c0.194,0.193,0.449,0.29,0.704,0.29
	c0.257,0,0.515-0.099,0.71-0.296l4.676-4.711c0.049-0.05,0.073-0.111,0.11-0.167c0.035-0.054,0.082-0.103,0.105-0.161
	C17.885,6.815,17.886,6.75,17.897,6.686z"/>
</svg>
