<?xml version="1.0" encoding="UTF-8"?>
<svg width="34px" height="34px" viewBox="0 0 34 34" version="1.1" xmlns="http://www.w3.org/2000/svg" xmlns:xlink="http://www.w3.org/1999/xlink">
    <!-- Generator: Sketch 52.5 (67469) - http://www.bohemiancoding.com/sketch -->
    <title>noun_Full Screen_1267859</title>
    <desc>Created with Sketch.</desc>
    <g id="A_HP" stroke="none" stroke-width="1" fill="none" fill-rule="evenodd">
        <g id="A_HP_V1" transform="translate(-1211.000000, -1031.000000)" fill="#FFFFFF" stroke="#FFFFFF">
            <g id="camping-ou-village-copy-2" transform="translate(0.000000, 884.000000)">
                <g id="tableau" transform="translate(330.000000, 0.000000)">
                    <g id="village-argu" transform="translate(856.000000, 141.000000)">
                        <g id="Group-2">
                            <g id="noun_Full-Screen_1267859" transform="translate(26.000000, 7.000000)">
                                <path d="M31.73,0.55 C31.6532982,0.363287246 31.4718509,0.241007573 31.27,0.24 L23.52,0.24 C23.2438576,0.24 23.02,0.463857625 23.02,0.74 C23.02,1.01614237 23.2438576,1.24 23.52,1.24 L30.05,1.24 L21.1,10.19 C20.9731707,10.3168293 20.9236382,10.501687 20.970061,10.674939 C21.0164837,10.8481911 21.1518089,10.9835163 21.325061,11.029939 C21.498313,11.0763618 21.6831707,11.0268293 21.81,10.9 L30.76,1.95 L30.76,8.48 C30.76,8.75614237 30.9838576,8.98 31.26,8.98 C31.5361424,8.98 31.76,8.75614237 31.76,8.48 L31.76,0.74 C31.7623915,0.675321927 31.752203,0.610794737 31.73,0.55 Z" id="Path"></path>
                                <path d="M1.94,1.24 L8.48,1.24 C8.75614237,1.24 8.98,1.01614237 8.98,0.74 C8.98,0.463857625 8.75614237,0.24 8.48,0.24 L0.74,0.24 C0.463857625,0.24 0.24,0.463857625 0.24,0.74 L0.24,8.48 C0.24,8.75614237 0.463857625,8.98 0.74,8.98 C1.01614237,8.98 1.24,8.75614237 1.24,8.48 L1.24,1.94 L10.19,10.89 C10.3860611,11.0860611 10.7039389,11.0860611 10.9,10.89 C11.0960611,10.6939389 11.0960611,10.3760611 10.9,10.18 L1.94,1.24 Z" id="Path"></path>
                                <path d="M10.18,21.11 L1.23,30.06 L1.23,23.52 C1.23,23.2438576 1.00614237,23.02 0.73,23.02 C0.453857625,23.02 0.23,23.2438576 0.23,23.52 L0.23,31.26 C0.23,31.5361424 0.453857625,31.76 0.73,31.76 L8.47,31.76 C8.74614237,31.76 8.97,31.5361424 8.97,31.26 C8.97,30.9838576 8.74614237,30.76 8.47,30.76 L1.94,30.76 L10.89,21.81 C11.0860611,21.6139389 11.0860611,21.2960611 10.89,21.1 C10.6939389,20.9039389 10.3760611,20.9039389 10.18,21.1 L10.18,21.11 Z" id="Path"></path>
                                <path d="M31.26,23 C30.9838576,23 30.76,23.2238576 30.76,23.5 L30.76,30.04 L21.81,21.09 C21.6139389,20.8939389 21.2960611,20.8939389 21.1,21.09 C20.9039389,21.2860611 20.9039389,21.6039389 21.1,21.8 L30.05,30.75 L23.52,30.75 C23.2438576,30.75 23.02,30.9738576 23.02,31.25 C23.02,31.5261424 23.2438576,31.75 23.52,31.75 L31.26,31.75 C31.5361424,31.75 31.76,31.5261424 31.76,31.25 L31.76,23.52 C31.7654459,23.3839616 31.7151816,23.251585 31.6208167,23.1534455 C31.5264518,23.055306 31.3961473,22.999891 31.26,23 Z" id="Path"></path>
                            </g>
                        </g>
                    </g>
                </g>
            </g>
        </g>
    </g>
</svg>