<?xml version="1.0" encoding="UTF-8"?>
<svg width="82px" height="52px" viewBox="0 0 82 52" version="1.1" xmlns="http://www.w3.org/2000/svg" xmlns:xlink="http://www.w3.org/1999/xlink">
    <!-- Generator: Sketch 52.5 (67469) - http://www.bohemiancoding.com/sketch -->
    <title>noun_Payment Safe_1174218</title>
    <desc>Created with Sketch.</desc>
    <g id="Symbols" stroke="none" stroke-width="1" fill="none" fill-rule="evenodd">
        <g id="gabarit/D/rassuranceV2" transform="translate(-821.000000, -36.000000)" fill="#7EA31A">
            <g id="rassurance">
                <g id="rassurance-1" transform="translate(729.000000, 36.000000)">
                    <g id="noun_Payment-Safe_1174218" transform="translate(92.000000, 0.000000)">
                        <path d="M79.53,33.69 L79.32,33.69 L79.32,29.69 C79.3097866,27.7797361 78.598019,25.9398169 77.32,24.52 L77.32,2.77 C77.3149994,1.48252824 76.2870725,0.432447805 75,0.4 L3,0.4 C2.36705615,0.394675462 1.7580634,0.641699785 1.30768264,1.08645078 C0.857301891,1.53120177 0.602637127,2.13703925 0.6,2.77 L0.6,44.77 C0.59997759,45.4046958 0.853470437,46.0131089 1.30414201,46.4600249 C1.75481358,46.9069408 2.36532661,47.1553336 3,47.15 L61.57,47.15 L61.57,49.73 C61.57,50.7682953 62.4117047,51.61 63.45,51.61 L79.53,51.61 C80.5644026,51.6100146 81.4044979,50.774388 81.41,49.74 L81.41,35.56 C81.4044979,34.525612 80.5644026,33.6899854 79.53,33.69 Z M77.53,33.69 L65.3999678,33.69 L65.4,29.69 C65.392784,27.4707842 66.5972289,25.4245255 68.5410031,24.3536788 C70.4847773,23.2828321 72.858002,23.3581132 74.73,24.55 L74.89,24.65 L75.06,24.78 L75.38,25.02 L75.48,25.11 L75.83,25.44 C76.9451165,26.573524 77.5700401,28.0999178 77.57,29.69 L77.53,33.69 Z M2.35,11.4 L75.6,11.4 L75.6,18.15 L2.35,18.15 L2.35,11.4 Z M3,2.15 L75,2.15 C75.3479394,2.15 75.63,2.43206061 75.63,2.78 L75.63,9.66 L2.35,9.66 L2.35,2.77 C2.35259501,2.60113136 2.42288358,2.44037565 2.54509274,2.32380691 C2.66730191,2.20723817 2.83119718,2.14461852 3,2.15 Z M3,45.4 C2.65982754,45.394642 2.38535804,45.1201725 2.38,44.78 L2.38,19.9 L75.6,19.9 L75.6,23 L75.44,22.91 C75.25,22.8 75.05,22.69 74.85,22.6 L74.58,22.47 C74.3061833,22.3506268 74.0257189,22.2471221 73.74,22.16 L73.44,22.08 C73.2133333,22.0266667 72.9866667,22 72.76,22 L72.46,22 C70.2272861,21.7050743 67.9761931,22.3908535 66.2871413,23.8805167 C64.5980894,25.3701799 63.6363875,27.5179327 63.65,29.77 L63.65,33.77 L63.44,33.77 C62.405612,33.7755021 61.5699854,34.6155974 61.57,35.65 L61.57,45.4 L3,45.4 Z M79.68,49.73 C79.6828033,49.76352 79.6714092,49.7966777 79.6485939,49.8213943 C79.6257785,49.846111 79.5936368,49.860117 79.56,49.86 L63.44,49.86 C63.3737258,49.86 63.32,49.8062742 63.32,49.74 L63.32,35.56 C63.319883,35.5263632 63.333889,35.4942215 63.3586057,35.4714061 C63.3833223,35.4485908 63.41648,35.4371967 63.45,35.44 L79.53,35.44 C79.5653354,35.4369092 79.6002279,35.4496094 79.6253093,35.4746907 C79.6503906,35.4997721 79.6630908,35.5346646 79.66,35.57 L79.68,49.73 Z" id="Shape" fill-rule="nonzero"></path>
                        <path d="M71.48,39.42 C71.2475185,39.4199846 71.0247016,39.5130165 70.8612544,39.6783424 C70.6978072,39.8436683 70.6073278,40.0675339 70.61,40.3 L70.61,45 C70.6578754,45.4471952 71.0352493,45.786325 71.485,45.786325 C71.9347507,45.786325 72.3121246,45.4471952 72.36,45 L72.36,40.29 C72.3600154,40.0575185 72.2669835,39.8347016 72.1016576,39.6712544 C71.9363317,39.5078072 71.7124661,39.4173278 71.48,39.42 Z" id="Path"></path>
                        <path d="M21,33.58 C19.2777836,32.2986631 16.9534927,32.1802782 15.11,33.28 C14.7720256,33.4851391 14.3479744,33.4851391 14.01,33.28 C12.1658298,32.1830089 9.84316779,32.3013109 8.12,33.58 C7.81558061,33.7840032 7.55400319,34.0455806 7.35,34.35 C6.159427,36.0055502 6.00091606,38.1899083 6.94,40 C7.81997486,41.6510023 9.53912819,42.6817251 11.41,42.68 C12.3436997,42.6781331 13.2582229,42.4148613 14.05,41.92 C14.3814032,41.7045814 14.8085968,41.7045814 15.14,41.92 C15.9317771,42.4148613 16.8463003,42.6781331 17.78,42.68 C19.654459,42.6854291 21.3783416,41.6541779 22.26,40 C23.1751404,38.1903819 23.0014308,36.0209425 21.81,34.38 C21.5967645,34.0613949 21.3212293,33.7892614 21,33.58 Z M20.67,39.14 C20.0952128,40.2245545 18.9674505,40.9019817 17.74,40.9 C17.1320498,40.9012713 16.5360069,40.7314684 16.02,40.41 C15.1194946,39.8517717 13.9805054,39.8517717 13.08,40.41 C12.5639931,40.7314684 11.9679502,40.9012713 11.36,40.9 C10.1361397,40.8982786 9.01310612,40.2213816 8.44,39.14 C7.82706859,37.9012085 7.966426,36.4224716 8.8,35.32 C8.8779931,35.2063077 8.97630774,35.1079931 9.09,35.03 C10.2421547,34.1291537 11.827234,34.0221608 13.09,34.76 C13.9942681,35.3176647 15.1357319,35.3176647 16.04,34.76 C17.3020971,34.019319 18.88889,34.1264275 20.04,35.03 C20.1541455,35.1074462 20.2525538,35.2058545 20.33,35.32 C21.1701182,36.418521 21.3172418,37.8975007 20.71,39.14 L20.67,39.14 Z" id="Shape" fill-rule="nonzero"></path>
                        <path d="M58.91,25.52 L43.71,25.52 C43.2628048,25.5678754 42.923675,25.9452493 42.923675,26.395 C42.923675,26.8447507 43.2628048,27.2221246 43.71,27.27 L58.91,27.27 C59.3571952,27.2221246 59.696325,26.8447507 59.696325,26.395 C59.696325,25.9452493 59.3571952,25.5678754 58.91,25.52 Z" id="Path"></path>
                    </g>
                </g>
            </g>
        </g>
    </g>
</svg>