<?xml version="1.0" encoding="UTF-8"?>
<svg width="20px" height="18px" viewBox="0 0 20 18" version="1.1" xmlns="http://www.w3.org/2000/svg" xmlns:xlink="http://www.w3.org/1999/xlink">
    <!-- Generator: Sketch 52.5 (67469) - http://www.bohemiancoding.com/sketch -->
    <title>Fill 1</title>
    <desc>Created with Sketch.</desc>
    <g id="Symbols" stroke="none" stroke-width="1" fill="none" fill-rule="evenodd">
        <g id="gabarit/D/rassuranceV2" transform="translate(-276.000000, -117.000000)" fill="#01513B" stroke="#01513B">
            <g id="rassurance">
                <g id="rassurance-1" transform="translate(160.000000, 21.000000)">
                    <g id="noun_Kid_1446364" transform="translate(88.000000, 5.000000)">
                        <g id="Group-3" transform="translate(29.000000, 92.000000)">
                            <path d="M8.9998,14.8467753 C7.6354,14.0402568 1,9.86287407 1,4.92499753 C1.0002,2.75038025 2.7852,0.987812346 4.987,0.988009877 C6.4974,0.988207407 7.878,1.83126914 8.553,3.16578765 C8.6766,3.40973827 8.9768,3.5085037 9.2238,3.38642963 C9.3204,3.33862716 9.3988,3.26119506 9.447,3.16578765 C10.431,1.2205037 12.8252,0.43117037 14.795,1.40302222 C16.1462,2.06968889 16.9998,3.43324444 17,4.92499753 C17,9.85694815 10.3644,14.0392691 8.9998,14.8467753 M13.0138,0.000355555556 C11.429,-0.00497777778 9.9372,0.738528395 9,2.00075062 C7.3642,-0.188088889 4.2414,-0.652483951 2.0254,0.963120988 C0.752,1.89151605 0.0004,3.36173827 0,4.92499753 C0,10.975763 8.3996,15.6542815 8.7572,15.8504296 C8.9082,15.9331951 9.0918,15.9331951 9.2428,15.8504296 C9.6004,15.6542815 18,10.975763 18,4.92499753 C17.997,2.20638025 15.7664,0.00331851852 13.0138,0.000355555556" id="Fill-1"></path>
                        </g>
                    </g>
                </g>
            </g>
        </g>
    </g>
</svg>