<?xml version="1.0" encoding="UTF-8"?>
<svg width="60px" height="60px" viewBox="0 0 60 60" version="1.1" xmlns="http://www.w3.org/2000/svg" xmlns:xlink="http://www.w3.org/1999/xlink">
    <!-- Generator: Sketch 52.5 (67469) - http://www.bohemiancoding.com/sketch -->
    <title>noun_Flexible date_1449420</title>
    <desc>Created with Sketch.</desc>
    <g id="Symbols" stroke="none" stroke-width="1" fill="none" fill-rule="evenodd">
        <g id="gabarit/D/rassuranceV2" transform="translate(-1118.000000, -23.000000)" fill="#01513B">
            <g id="rassurance">
                <g id="rassurance-1-copy" transform="translate(1015.000000, 23.000000)">
                    <g id="noun_Flexible-date_1449420" transform="translate(103.000000, 0.000000)">
                        <path d="M55,8 L50,8 L50,4 C50,1.794 48.206,0 46,0 C43.794,0 42,1.794 42,4 L42,8 L18,8 L18,4 C18,1.794 16.206,0 14,0 C11.794,0 10,1.794 10,4 L10,8 L5,8 C2.243,8 0,10.243 0,13 L0,55 C0,57.757 2.243,60 5,60 L55,60 C57.757,60 60,57.757 60,55 L60,13 C60,10.243 57.757,8 55,8 Z M44,4 C44,2.897 44.897,2 46,2 C47.103,2 48,2.897 48,4 L48,12 C48,13.103 47.103,14 46,14 C44.897,14 44,13.103 44,12 L44,4 Z M12,4 C12,2.897 12.897,2 14,2 C15.103,2 16,2.897 16,4 L16,12 C16,13.103 15.103,14 14,14 C12.897,14 12,13.103 12,12 L12,4 Z M5,10 L10,10 L10,12 C10,14.206 11.794,16 14,16 C16.206,16 18,14.206 18,12 L18,10 L42,10 L42,12 C42,14.206 43.794,16 46,16 C48.206,16 50,14.206 50,12 L50,10 L55,10 C56.654,10 58,11.346 58,13 L58,20 L2,20 L2,13 C2,11.346 3.346,10 5,10 Z M55,58 L5,58 C3.346,58 2,56.654 2,55 L2,22 L58,22 L58,55 C58,56.654 56.654,58 55,58 Z" id="Shape" fill-rule="nonzero"></path>
                        <path d="M29,54 C22.602,54 17.073,49.609 15.484,43.549 L19.684,44.949 L20.317,43.052 L14.317,41.052 C13.957,40.932 13.561,41.026 13.294,41.294 L9.294,45.294 L10.708,46.708 L13.51,43.906 C15.273,50.91 21.634,56 29,56 C36.976,56 43.786,50.038 44.843,42.132 L42.861,41.867 C41.936,48.784 35.978,54 29,54 Z" id="Path"></path>
                        <path d="M44.491,36.095 C42.727,29.09 36.366,24 29,24 C21.024,24 14.214,29.962 13.157,37.868 L15.139,38.133 C16.064,31.216 22.022,26 29,26 C35.398,26 40.927,30.391 42.516,36.451 L38.316,35.051 L37.683,36.948 L43.683,38.948 C43.787,38.983 43.895,39 44,39 C44.261,39 44.517,38.897 44.707,38.707 L48.707,34.707 L47.293,33.293 L44.491,36.095 Z" id="Path"></path>
                        <path d="M28.707,44.707 L35.707,37.707 L34.293,36.293 L28,42.586 L25.707,40.293 L24.293,41.707 L27.293,44.707 C27.488,44.902 27.744,45 28,45 C28.256,45 28.512,44.902 28.707,44.707 Z" id="Path"></path>
                    </g>
                </g>
            </g>
        </g>
    </g>
</svg>