<?xml version="1.0" encoding="UTF-8"?>
<svg width="9px" height="20px" viewBox="0 0 9 20" version="1.1" xmlns="http://www.w3.org/2000/svg" xmlns:xlink="http://www.w3.org/1999/xlink">
    <!-- Generator: Sketch 52.5 (67469) - http://www.bohemiancoding.com/sketch -->
    <title>ico/social/white/facebook</title>
    <desc>Created with Sketch.</desc>
    <g id="Symbols" stroke="none" stroke-width="1" fill="none" fill-rule="evenodd">
        <g id="gabarit/D/footer" transform="translate(-821.000000, -121.000000)" fill="#FFFFFE">
            <g id="newsletter">
                <g id="Group-2" transform="translate(426.000000, 105.000000)">
                    <g id="social" transform="translate(380.000000, 6.000000)">
                        <g id="ico/social/white/facebook" transform="translate(10.000000, 10.000000)">
                            <path d="M6.92869934,20 L10.7855011,20 C10.7855011,20 10.7855011,14.478596 10.7855011,9.99969047 L13.6484049,9.99969047 L14,5.99993809 L10.934735,5.99993809 L10.934735,4.40028477 C10.934735,3.62088711 11.4355641,3.43950228 11.7871592,3.43950228 C12.1387544,3.43950228 13.9510513,3.43950228 13.9510513,3.43950228 L13.9510513,0.0123812177 L10.9711481,0 C7.66412416,0 6.91258208,2.55548333 6.91258208,4.19166125 L6.91258208,5.99993809 L5,5.99993809 L5,9.99969047 L6.92869934,9.99969047 C6.92869934,14.5324543 6.92869934,20 6.92869934,20" id="Fill-91"></path>
                        </g>
                    </g>
                </g>
            </g>
        </g>
    </g>
</svg>