<?xml version="1.0" encoding="UTF-8"?>
<svg width="90px" height="74px" viewBox="0 0 90 74" version="1.1" xmlns="http://www.w3.org/2000/svg" xmlns:xlink="http://www.w3.org/1999/xlink">
    <!-- Generator: Sketch 52.5 (67469) - http://www.bohemiancoding.com/sketch -->
    <title>Group</title>
    <desc>Created with Sketch.</desc>
    <g id="Symbols" stroke="none" stroke-width="1" fill="none" fill-rule="evenodd">
        <g id="gabarit/D/rassuranceV2" transform="translate(-248.000000, -26.000000)" fill="#01513B" stroke="#01513B" stroke-width="0.1">
            <g id="rassurance">
                <g id="rassurance-1" transform="translate(160.000000, 21.000000)">
                    <g id="noun_Kid_1446364" transform="translate(88.000000, 5.000000)">
                        <g id="Group">
                            <path d="M50.6331,38.7723902 C50.6331,38.7723902 50.4387,38.8662439 50.1516,39.0223659 L49.4559,39.3255854 C49.2822,39.390561 49.0941,39.4609512 48.9321,39.5178049 C48.8286,39.5457805 48.7233,39.5773659 48.6153,39.6098537 C48.4416,39.6630976 48.2598,39.7190488 48.024,39.7650732 C47.7189,39.8435854 47.3949,39.8968293 47.0178,39.9527805 C46.8297,39.9924878 46.6362,40.0042195 46.4418,40.0186585 C46.2807,40.0303902 46.1196,40.0430244 45.9918,40.0601707 C45.7596,40.0782195 45.5085,40.0818293 45.2628,40.0863415 L44.8983,40.0962683 L44.478,40.0836341 C44.2386,40.0782195 44.001,40.0728049 43.7904,40.0529512 C43.6374,40.0330976 43.4853,40.019561 43.3341,40.0069268 C43.128,39.988878 42.9228,39.9735366 42.6951,39.9248049 L41.6835,39.7208537 C41.4981,39.6829512 41.3244,39.6260976 41.157,39.5728537 C41.0409,39.5358537 40.9275,39.4997561 40.8708,39.4862195 L40.1607,39.2236098 L39.6315,38.9817561 C39.3066,38.8057805 39.114,38.7128293 39.114,38.7128293 C38.7801,38.5503902 38.3751,38.6911707 38.2131,39.0259756 C38.0493,39.3625854 38.1897,39.766878 38.5245,39.9302195 C38.5317,39.9338293 38.7036,40.0186585 39.0321,40.1937317 L40.4586,40.774 C40.5531,40.8001707 40.6494,40.8308537 40.7484,40.862439 C40.959,40.930122 41.1795,40.9987073 41.3973,41.0429268 L42.4386,41.2522927 C42.6906,41.3073415 42.9525,41.3317073 43.218,41.3542683 C43.3494,41.366 43.4826,41.3768293 43.6383,41.3966829 C43.9038,41.4219512 44.1738,41.4291707 44.4447,41.4354878 L44.8911,41.448122 L45.2853,41.4390976 C45.558,41.4345854 45.837,41.4291707 46.1295,41.4048049 C46.2654,41.3867561 46.4031,41.3777317 46.5381,41.3669024 C46.7928,41.3479512 47.0448,41.3271951 47.2518,41.2829756 C47.61,41.2297317 47.9934,41.1683659 48.3165,41.0826341 C48.5604,41.0366098 48.7863,40.9689268 49.0041,40.9030488 C49.0977,40.8741707 49.1895,40.8461951 49.3227,40.8091951 C49.5396,40.7351951 49.7403,40.6602927 49.9266,40.5908049 L50.7546,40.2289268 C51.0372,40.0764146 51.2109,39.9924878 51.2181,39.988878 C51.5538,39.826439 51.6942,39.4230488 51.534,39.086439 C51.3711,38.7525366 50.9697,38.6099512 50.6331,38.7723902 Z" id="Path"></path>
                            <path d="M37.71,28.9700976 C37.2933,28.7598293 36.7272,29.0061951 36.5427,29.4177073 C36.1701,30.2524634 36.1188,32.4336585 37.4886,32.3470244 C38.5236,32.2820488 38.5677,30.7993415 38.3904,30.0611463 C38.2959,29.6604634 38.1024,29.1677317 37.71,28.9700976 Z" id="Path"></path>
                            <path d="M51.0237,32.3470244 C52.3944,32.4147073 52.3125,30.2344146 51.9291,29.4050732 C51.7392,28.9971707 51.1677,28.7589268 50.7528,28.9737073 C50.364,29.1767561 50.1777,29.6721951 50.0886,30.0737805 C49.9239,30.8146829 49.9869,32.2964878 51.0237,32.3470244 Z" id="Path"></path>
                            <path d="M43.1739,37.4277561 C43.2306,37.4485122 43.5339,37.5513902 44.0181,37.5513902 C44.4582,37.5513902 45.0486,37.466561 45.7398,37.1588293 C46.7352,36.7148293 47.2158,35.8123902 46.9341,34.9162683 C46.719,34.2222927 46.395,33.8441707 46.1097,33.5102683 C45.6966,33.0274634 45.306,32.5717317 45.2718,30.6531463 C45.2646,30.2831463 44.964,29.9880488 44.5968,29.9880488 C44.5932,29.9880488 44.5887,29.9880488 44.5842,29.9880488 C44.2116,29.9943659 43.9155,30.303 43.9218,30.6766098 C43.9614,32.9056341 44.4501,33.6492439 45.0846,34.3910488 C45.324,34.6699024 45.513,34.891 45.6453,35.3187561 C45.7524,35.6589756 45.2493,35.8954146 45.1917,35.9206829 C44.2611,36.334 43.6725,36.1652439 43.6293,36.1526098 C43.2792,36.029878 42.9012,36.2103659 42.7743,36.5569024 C42.6456,36.9088537 42.8238,37.2978049 43.1739,37.4277561 Z" id="Path"></path>
                            <path d="M87.9165,6.69339024 C87.8985,6.67895122 87.8814,6.6645122 87.8634,6.65007317 C87.9525,6.5535122 88.0128,6.45243902 88.0533,6.35768293 C88.1919,6.03821951 88.2351,5.5084878 87.6537,4.79736585 C87.138,4.16836585 86.1786,3.45363415 85.203,3.07280488 C85.0986,2.75334146 84.7917,2.36709756 84.0006,2.05936585 C83.232,1.75885366 82.539,1.75434146 81.8703,1.87165854 C81.8334,1.84007317 81.7929,1.81209756 81.7488,1.78863415 C79.173,0.413317073 72.6813,6.8125122 70.6518,9.00543902 C69.696,8.02358537 68.157,7.79526829 66.9483,8.54609756 C66.7287,8.68236585 66.5325,8.8267561 66.3579,9.00182927 C65.7126,8.31146341 65.0322,7.66621951 64.2924,7.11482927 L63.9288,6.84319512 C61.2648,4.85512195 58.5099,2.79936585 55.3023,1.813 C49.1337,-0.0821219512 42.5682,-0.0433170732 36.8181,1.924 C36.2187,2.1297561 35.6526,2.45012195 35.1972,2.70821951 C35.0298,2.80207317 34.8876,2.8814878 34.7616,2.94556098 C30.3993,3.74873171 26.631,5.85592683 23.6799,9.07221951 C23.4963,8.87187805 23.2875,8.69319512 23.0535,8.547 C21.843,7.79526829 20.304,8.02358537 19.35,9.00634146 C17.3214,6.8125122 10.8351,0.409707317 8.253,1.78953659 C8.2089,1.813 8.1684,1.84097561 8.1315,1.87256098 C7.4628,1.75434146 6.7698,1.7597561 6.0012,2.06026829 C5.211,2.368 4.9032,2.75514634 4.7988,3.07370732 C3.8232,3.45453659 2.8647,4.16926829 2.3481,4.79826829 C1.7667,5.50939024 1.809,6.03912195 1.9485,6.35858537 C1.989,6.45243902 2.0493,6.55441463 2.1384,6.65097561 C2.1204,6.66541463 2.1033,6.67985366 2.0853,6.69429268 C1.467,7.19514634 0.6219,7.881 0.8406,9.213 C0.9594,9.91780488 1.5192,10.4890488 1.9683,10.9474878 C2.0277,11.0079512 2.0862,11.0675122 2.1411,11.1261707 C1.9476,12.181122 2.0367,12.9382683 2.4201,13.5483171 C2.988,14.4507561 4.1193,14.8135366 5.2578,15.0716341 C6.5034,15.3540976 12.852,15.9479024 15.2973,16.0363415 C15.1965,17.1319024 15.6906,18.2437073 16.6842,18.8609756 C17.1432,19.1461463 17.6652,19.2923415 18.1908,19.3040732 C16.9596,23.8397317 16.8012,28.8365366 17.8299,33.6564634 C17.9118,34.0454146 18.0009,34.4316585 18.0945,34.8151951 C18.144,35.0209512 18.2871,35.1743659 18.4635,35.2591951 C18.2835,35.6075366 18.1521,35.9811463 18.0846,36.3809268 C17.7516,38.3635854 18.9405,40.4229512 21.2616,41.8876098 C22.6683,42.7855366 24.1011,42.6221951 25.0533,42.5139024 C25.2657,42.490439 25.5384,42.4597561 25.6896,42.4624634 C28.3842,46.3303171 29.9637,47.6821707 31.9203,48.811122 C35.4645,50.8587561 39.7926,51.3487805 41.3028,51.4606829 C41.355,52.1970732 41.3127,53.7366341 41.2254,55.1200732 C41.0607,55.2482195 40.8978,55.3637317 40.7331,55.4702195 C40.5234,55.2319756 40.3956,55.0541951 40.392,55.0487805 C40.2273,54.7997073 39.9213,54.6905122 39.6324,54.7753415 C37.0926,55.5505366 35.7093,56.3239268 35.523,57.0747561 C35.5131,57.1126585 35.514,57.150561 35.5095,57.1893659 C33.9525,58.1775366 31.6674,60.0573171 31.0275,62.9009024 C30.0492,67.2253902 30.483,72.7302683 30.5019,72.9621951 C30.5298,73.3132439 30.8223,73.5839756 31.1742,73.5839756 L37.6902,73.5839756 L51.5538,73.5839756 L52.0758,73.5839756 L58.0698,73.5839756 C58.4217,73.5839756 58.7142,73.3132439 58.7421,72.9621951 C58.761,72.7302683 59.1948,67.2253902 58.2183,62.9018049 C57.5748,60.0573171 55.2906,58.1775366 53.7354,57.1902683 C53.7309,57.1514634 53.7318,57.113561 53.7219,57.0747561 C53.5356,56.3239268 52.1523,55.5505366 49.6116,54.7753415 C49.3254,54.6896098 49.0194,54.8006098 48.8529,55.0469756 C48.8502,55.0505854 48.7854,55.1408293 48.6891,55.2608537 C48.4218,55.115561 48.1653,54.9693659 48.006,54.8673902 C47.9097,53.1726098 47.9043,52.0210976 47.9403,51.4606829 C49.4487,51.3487805 53.7786,50.8587561 57.3255,48.811122 C59.2821,47.6830732 60.8616,46.3303171 63.5562,42.4624634 C63.7101,42.461561 63.9819,42.490439 64.1925,42.5139024 C65.1411,42.6230976 66.5766,42.786439 67.9815,41.8894146 C71.0442,39.9554878 71.5635,37.4981463 71.0298,35.8430732 C70.9038,35.454122 70.7085,35.1093902 70.479,34.788122 C72.4932,30.0385854 72.7596,24.4109756 71.5761,19.2923415 C71.6328,19.2950488 71.6886,19.3094878 71.7453,19.3094878 C72.2934,19.3094878 72.8397,19.1587805 73.3176,18.861878 C74.3112,18.2446098 74.8053,17.1319024 74.7045,16.0372439 C77.1507,15.9479024 83.4984,15.355 84.744,15.0725366 C85.8834,14.814439 87.0138,14.4516585 87.5817,13.5492195 C87.9651,12.9391707 88.0533,12.1829268 87.8607,11.1270732 C87.9165,11.0693171 87.9741,11.0097561 88.0335,10.9483902 C88.4826,10.4899512 89.0424,9.91870732 89.1621,9.21029268 C89.3799,7.88009756 88.5339,7.1942439 87.9165,6.69339024 Z M3.5613,12.824561 C3.3462,12.4825366 3.3354,11.9266341 3.5289,11.0765366 C3.5757,10.8716829 3.5244,10.6578049 3.3921,10.4962683 C3.2634,10.3392439 3.1014,10.1722927 2.9304,9.99812195 C2.6127,9.67414634 2.2185,9.27165854 2.1708,8.98829268 C2.0871,8.48202439 2.3013,8.25821951 2.9331,7.74563415 C3.2517,7.48663415 3.6144,7.19334146 3.8763,6.79536585 C4.0095,6.59412195 4.0257,6.33692683 3.9186,6.12034146 C3.8106,5.9037561 3.5973,5.76117073 3.3561,5.74582927 C3.3435,5.74492683 3.3327,5.74402439 3.3219,5.74312195 C3.4893,5.51570732 3.8385,5.16465854 4.3857,4.81 C4.8132,4.53385366 5.2056,4.35336585 5.5278,4.25229268 C5.8023,4.30734146 6.147,4.2874878 6.5754,4.14580488 C6.8634,4.05014634 7.0524,3.77129268 7.0371,3.46807317 C7.0317,3.36880488 7.0047,3.27404878 6.9606,3.18921951 C7.5762,3.08453659 8.1603,3.23885366 8.829,3.44912195 C9.1413,3.54568293 9.4842,3.39497561 9.6309,3.0917561 C9.6471,3.05836585 9.6597,3.02407317 9.6696,2.98887805 C11.8332,3.61426829 16.7076,7.93334146 18.5679,10.129878 L15.7509,14.6908049 C13.9239,14.6763659 6.8085,14.0329268 5.5557,13.749561 C4.4001,13.4878537 3.8043,13.2117073 3.5613,12.824561 Z M17.3934,17.708561 C16.6284,17.233878 16.3926,16.2231463 16.8651,15.4551707 L20.0943,10.2273415 C20.5677,9.45936585 21.5766,9.22292683 22.3416,9.69760976 C22.5117,9.80319512 22.6503,9.94578049 22.77,10.1037073 C22.3731,10.5982439 21.9879,11.108122 21.6261,11.6477805 C20.3553,13.542 19.3455,15.6564146 18.6075,17.9070976 C18.1953,17.9973415 17.7579,17.9350732 17.3934,17.708561 Z M39.5811,56.2093171 C40.122,56.8599756 41.3289,58.0665366 43.0209,58.3336585 L43.7175,61.0148049 C42.39,60.7558049 39.7791,59.9282683 37.0269,57.2976585 C37.4886,57.0007561 38.5038,56.5657805 39.5811,56.2093171 Z M44.622,62.4866829 C44.7624,62.4884878 47.4912,62.4550976 50.8779,60.1286098 L50.8779,72.2285122 L38.3643,72.2285122 L38.3643,60.125 C41.7519,62.4496829 44.4843,62.4749512 44.622,62.4866829 Z M32.3433,63.1978049 C32.8743,60.8415366 34.8282,59.2261707 36.1908,58.3553171 C36.468,58.6170244 36.7416,58.8624878 37.0143,59.0917073 L37.0143,72.2285122 L31.8069,72.2285122 C31.7241,70.6727073 31.5945,66.5025366 32.3433,63.1978049 Z M56.9016,63.1978049 C57.6468,66.4980244 57.519,70.6718049 57.4362,72.2276098 L52.2288,72.2276098 L52.2288,59.0926098 C52.5024,58.8633902 52.7769,58.6179268 53.0541,58.3562195 C54.4149,59.2261707 56.3688,60.8406341 56.9016,63.1978049 Z M49.6611,56.2093171 C50.7384,56.5666829 51.7545,57.0007561 52.2162,57.2976585 C49.4631,59.9291707 46.8522,60.7558049 45.5256,61.0148049 L46.2204,58.3336585 C47.9124,58.0665366 49.1202,56.8599756 49.6611,56.2093171 Z M67.2588,40.7433171 C66.2517,41.3849512 65.1933,41.2640244 64.3446,41.1674634 C63.6129,41.0835366 62.9208,41.0050244 62.5257,41.5762683 C59.9274,45.3195854 58.4568,46.5947317 56.6523,47.6361463 C52.6716,49.9346585 47.4084,50.1359024 47.3553,50.1368049 C47.1042,50.1449268 46.8774,50.2929268 46.7694,50.5203415 C46.6767,50.712561 46.4328,51.2233415 46.6758,55.218439 C46.6938,55.5045122 46.7721,55.7247073 47.6712,56.2409024 C47.1384,56.6415854 46.4571,56.9989512 45.6606,57.0305366 C45.3636,57.0422683 45.1089,57.2480244 45.0342,57.5368049 L44.6238,59.1214878 L44.2116,57.5359024 C44.1369,57.247122 43.8822,57.0422683 43.5852,57.0296341 C42.8868,57.002561 42.2721,56.7255122 41.7726,56.3889024 C41.9526,56.2589512 42.1326,56.1280976 42.3135,55.9764878 C42.4539,55.8582683 42.5412,55.6877073 42.5538,55.5045122 C42.6618,53.9288537 42.7968,51.185439 42.4791,50.5212439 C42.3702,50.2938293 42.1434,50.1449268 41.8923,50.1368049 C41.8392,50.135 36.576,49.9337561 32.5953,47.6361463 C30.7899,46.5947317 29.3193,45.3204878 26.7228,41.5771707 C26.3259,41.004122 25.6347,41.0826341 24.903,41.1674634 C24.0534,41.2640244 22.995,41.3849512 21.9861,40.7415122 C20.1384,39.575561 19.179,38.0287805 19.4184,36.6038293 C19.5876,35.5949024 20.3787,34.7962439 21.5613,34.4009756 C21.6288,34.6843415 21.6945,34.9487561 21.7548,35.1635366 C22.023,36.1273415 22.3884,36.5776585 22.9032,36.5776585 C22.9077,36.5776585 22.9122,36.5776585 22.9167,36.5776585 C23.2173,36.5740488 23.6133,36.4125122 23.7978,35.6716098 C24.1722,34.1491951 24.2829,32.6087317 24.3891,31.1197073 C24.4494,30.2840488 24.5115,29.4204146 24.6204,28.5856585 C24.6393,28.4340488 24.5979,28.2932683 24.5277,28.1705366 C24.6951,27.061439 24.9354,26.122 25.2873,25.2664878 C26.3997,22.5438293 27.4275,20.4546829 28.2582,19.2246585 C29.4912,17.4035366 30.7395,15.8269756 32.2911,14.1430244 C32.5116,15.207 33.0606,16.3431707 33.9219,17.5028049 C35.8938,20.1595854 39.2058,22.4689268 41.4603,22.7604146 C41.7069,22.7947073 41.9445,22.6882195 42.0894,22.4905854 C42.2352,22.2929512 42.2613,22.0312439 42.1596,21.807439 C41.976,21.4031463 41.7042,20.9591463 41.3802,20.4700244 C43.47,22.0402683 45.9666,23.4237073 48.7719,23.8821463 C47.3544,25.1482683 46.3779,26.8953902 46.0971,28.8690244 C45.5904,28.5107561 45.0504,28.3004878 44.4744,28.2833415 C43.3971,28.2400244 42.4701,28.8239024 41.9139,29.2850488 C41.5368,25.4451707 38.2986,22.4346341 34.3719,22.4346341 C30.1923,22.4346341 26.7921,25.8440488 26.7921,30.0340732 C26.7921,34.225 30.1923,37.6344146 34.3719,37.6344146 C38.52,37.6344146 41.8968,34.2746341 41.9472,30.126122 C42.2721,29.7985366 43.2783,28.8933902 44.4564,28.9312927 C45.0108,28.948439 45.5355,29.1839756 46.026,29.6153415 C46.0188,29.7552195 46.0053,29.8923902 46.0053,30.0331707 C46.0053,34.5814634 49.6962,38.2823659 54.2322,38.2823659 C58.7673,38.2823659 62.4573,34.5814634 62.4573,30.0331707 C62.4573,28.5161707 62.0397,27.0993415 61.3251,25.877439 C61.4025,25.9063171 61.4808,25.9424146 61.5591,25.9694878 C63.4086,26.617439 63.4086,26.7121951 63.4086,28.2860488 C63.4086,28.5053415 63.4212,28.8663171 63.4374,29.3103171 C63.4788,30.4573171 63.6048,33.9470488 63.2682,34.484 C63.2682,34.484 63.2682,34.484 63.2673,34.484 C62.9928,34.7366829 62.9739,35.164439 63.225,35.4405854 C63.3582,35.5867805 63.5409,35.6607805 63.7236,35.6607805 C63.8865,35.6607805 64.0494,35.602122 64.179,35.483 C64.1799,35.483 64.1799,35.483 64.1799,35.483 C64.3482,35.3295854 64.5174,35.195122 64.6812,35.0660732 C65.0205,34.7971463 65.367,34.5182927 65.6397,34.1356585 C67.2219,34.1004634 68.49,34.535439 69.2127,35.3404146 C69.2172,35.3458293 69.2208,35.3530488 69.2262,35.3584634 C69.4602,35.622878 69.6411,35.9224878 69.75,36.26 C70.227,37.7517317 69.2757,39.4699756 67.2588,40.7433171 Z M54.2286,23.1376341 C58.0194,23.1376341 61.1037,26.2302927 61.1037,30.0322683 C61.1037,33.8342439 58.0194,36.9278049 54.2286,36.9278049 C50.4369,36.9278049 47.3517,33.8342439 47.3517,30.0322683 C47.3517,26.2302927 50.4369,23.1376341 54.2286,23.1376341 Z M40.5981,30.0322683 C40.5981,33.476878 37.8036,36.2789512 34.3683,36.2789512 C30.933,36.2789512 28.1385,33.476878 28.1385,30.0322683 C28.1385,26.588561 30.933,23.7864878 34.3683,23.7864878 C37.8036,23.7864878 40.5981,26.588561 40.5981,30.0322683 Z M69.4305,33.7656585 C68.3694,33.0419024 66.9132,32.6773171 65.2104,32.7874146 C65.2032,32.7874146 65.1978,32.7919268 65.1915,32.7928293 C65.1123,32.8000488 65.0367,32.8199024 64.9647,32.8541951 C64.9476,32.8623171 64.935,32.8740488 64.9179,32.8839756 C64.8837,32.9038293 64.8468,32.921878 64.8162,32.9489512 C64.854,32.0401951 64.8405,30.8426585 64.7838,29.2615854 C64.7676,28.8383415 64.7559,28.4954146 64.7559,28.2860488 C64.7559,26.1851707 64.4319,25.5426341 62.0019,24.6916341 C61.3035,24.4470732 60.6204,24.1474634 59.8527,23.7503902 C59.733,23.688122 59.6052,23.6781951 59.4801,23.6908293 C58.7412,23.0753659 57.8907,22.5943659 56.9682,22.265878 C56.9088,22.1584878 56.8296,22.0610244 56.7144,21.9987561 C55.0395,21.0863902 51.3297,18.3781707 49.3866,16.5200488 C49.1346,16.2781951 48.744,16.2691707 48.4803,16.4965854 C48.2175,16.7230976 48.168,17.1138537 48.3678,17.3990244 C49.2084,18.5992683 50.9445,20.6721707 52.236,22.0420732 C51.5745,22.208122 50.9418,22.4472683 50.3532,22.763122 C50.2659,22.7125854 50.1705,22.6755854 50.0634,22.6692683 C45.3573,22.3750732 41.3955,18.9764878 38.826,16.4451463 C38.592,16.2150244 38.2275,16.1870488 37.962,16.376561 C37.6947,16.5669756 37.6038,16.9216341 37.7433,17.2176341 C38.2581,18.306878 39.0078,19.3979268 39.6702,20.3608293 C39.7998,20.5485366 39.9258,20.7335366 40.0482,20.913122 C38.3247,20.1045366 36.3177,18.4675122 35.0028,16.695122 C33.8931,15.1997805 33.3828,13.7549756 33.5673,12.6278293 C33.615,12.3363415 33.4692,12.047561 33.2064,11.914 C32.9436,11.7813415 32.625,11.8336829 32.4189,12.0457561 C30.2742,14.2468049 28.6956,16.1671951 27.1395,18.4666098 C26.0244,20.1171707 24.8364,22.7974146 24.0372,24.7548049 C23.5962,25.8296098 23.3055,26.9919512 23.1228,28.4150976 C23.1021,28.5793415 23.1489,28.7336585 23.2317,28.8627073 C23.1507,29.5882683 23.0922,30.3165366 23.0409,31.0249512 C22.977,31.9174634 22.9113,32.8289268 22.788,33.729561 C22.7799,33.6970732 22.7727,33.6636829 22.7664,33.6302927 C22.7106,33.3830244 22.5225,33.2079512 22.2975,33.1393659 C22.1373,32.9877561 21.915,32.9065366 21.6882,32.9606829 C20.7378,33.1817805 19.9395,33.596 19.3284,34.151 C19.269,33.8938049 19.2069,33.6375122 19.152,33.3767073 C18.0954,28.4232195 18.351,23.2847317 19.7748,18.7129756 C19.7775,18.7066585 19.7784,18.7003415 19.7802,18.6940244 C20.4885,16.428 21.4785,14.2991463 22.7484,12.4058293 C25.7148,7.98478049 29.9934,5.16465854 35.1225,4.25139024 C35.154,4.24597561 35.1783,4.22792683 35.2071,4.218 C35.2368,4.20897561 35.2683,4.20897561 35.298,4.19543902 C35.4564,4.11963415 35.649,4.01043902 35.865,3.88860976 C36.2709,3.6584878 36.7776,3.3715122 37.2573,3.20726829 C42.741,1.33019512 49.0113,1.29590244 54.9099,3.10980488 C57.8943,4.02668293 60.5538,6.01204878 63.1251,7.93153659 L63.4905,8.20317073 C70.2369,13.2360732 72.8874,24.9686829 69.4305,33.7656585 Z M72.6066,17.708561 C72.1872,17.9693659 71.6733,18.0153902 71.2098,17.8538537 C70.3593,14.9236341 69.012,12.232561 67.2507,10.0315122 C67.3416,9.91870732 67.4595,9.8212439 67.6584,9.69760976 C68.4234,9.22382927 69.4314,9.45936585 69.9057,10.2273415 L73.1349,15.4542683 C73.6074,16.2222439 73.3707,17.2329756 72.6066,17.708561 Z M87.8301,8.98468293 C87.7815,9.2707561 87.3873,9.67414634 87.0696,9.99812195 C86.8995,10.1722927 86.7366,10.3392439 86.6079,10.4962683 C86.4756,10.6578049 86.4243,10.8725854 86.4711,11.0765366 C86.6646,11.9266341 86.6538,12.4825366 86.4387,12.824561 C86.1957,13.2117073 85.5999,13.4878537 84.4461,13.749561 C83.1915,14.0338293 76.0914,14.6917073 74.2518,14.6926098 L71.4339,10.129878 C73.2906,7.93604878 78.1569,3.62509756 80.3241,2.99158537 C80.3331,3.02497561 80.3448,3.05746341 80.3601,3.08904878 C80.5032,3.39678049 80.8551,3.55109756 81.1719,3.44912195 C81.8406,3.23885366 82.4247,3.08363415 83.0403,3.18921951 C82.9962,3.27314634 82.9692,3.36790244 82.9638,3.46807317 C82.9476,3.77219512 83.1366,4.05014634 83.4255,4.14580488 C83.8548,4.2874878 84.1995,4.30734146 84.4731,4.25229268 C84.7944,4.35336585 85.1877,4.53385366 85.6152,4.81 C86.1615,5.16465854 86.5116,5.51570732 86.679,5.74312195 C86.6682,5.74402439 86.6574,5.74492683 86.6448,5.74582927 C86.4036,5.76117073 86.1903,5.9037561 86.0823,6.12034146 C85.9752,6.33692683 85.9905,6.59412195 86.1246,6.79536585 C86.3865,7.19243902 86.7483,7.48663415 87.0678,7.74563415 C87.6987,8.25731707 87.9129,8.48202439 87.8301,8.98468293 Z" id="Shape" fill-rule="nonzero"></path>
                        </g>
                    </g>
                </g>
            </g>
        </g>
    </g>
</svg>