<?xml version="1.0" encoding="UTF-8"?>
<svg width="20px" height="20px" viewBox="0 0 20 20" version="1.1" xmlns="http://www.w3.org/2000/svg" xmlns:xlink="http://www.w3.org/1999/xlink">
    <!-- Generator: Sketch 52.5 (67469) - http://www.bohemiancoding.com/sketch -->
    <title>ico/social/white/instagram</title>
    <desc>Created with Sketch.</desc>
    <g id="Symbols" stroke="none" stroke-width="1" fill="none" fill-rule="evenodd">
        <g id="gabarit/D/footer" transform="translate(-944.000000, -121.000000)" fill="#FFFFFE">
            <g id="newsletter">
                <g id="Group-2" transform="translate(426.000000, 105.000000)">
                    <g id="social" transform="translate(380.000000, 6.000000)">
                        <g id="ico/social/white/instagram" transform="translate(138.000000, 10.000000)">
                            <path d="M18.0557276,16.1353225 C18.0557276,17.1926458 17.1950464,18.0518757 16.1362229,18.0518757 L3.86377709,18.0518757 C2.80495356,18.0518757 1.94427245,17.1926458 1.94427245,16.1353225 L1.94427245,7.94787669 L4.93498452,7.94787669 C4.6749226,8.58177541 4.53250774,9.2744831 4.53250774,10 C4.53250774,13.0153522 6.98452012,15.4686146 10,15.4686146 C13.0154799,15.4686146 15.4674923,13.0153522 15.4674923,10 C15.4674923,9.2744831 15.3250774,8.58177541 15.0650155,7.94787669 L18.0557276,7.94787669 L18.0557276,16.1353225 Z M7.14551084,7.94787669 C7.78328173,7.06140894 8.82352941,6.4807478 10,6.4807478 C11.1764706,6.4807478 12.2167183,7.06140894 12.8544892,7.94787669 C13.2693498,8.52606166 13.5232198,9.23424539 13.5232198,10 C13.5232198,11.9400768 11.9380805,13.5192522 10,13.5192522 C8.05572755,13.5192522 6.47678019,11.9400768 6.47678019,10 C6.47678019,9.23424539 6.73065015,8.52606166 7.14551084,7.94787669 Z M17.244582,2.30593042 L17.6842105,2.30345425 L17.6842105,5.69270769 L14.3095975,5.70446948 L14.2972136,2.31521605 L17.244582,2.30593042 Z M16.1362229,0 L3.86377709,0 C1.73374613,0 0,1.73331683 0,3.86467748 L0,16.1353225 C0,18.2666832 1.73374613,20 3.86377709,20 L16.1362229,20 C18.2662539,20 20,18.2666832 20,16.1353225 L20,3.86467748 C20,1.73331683 18.2662539,0 16.1362229,0 Z" id="Fill-201"></path>
                        </g>
                    </g>
                </g>
            </g>
        </g>
    </g>
</svg>