<?xml version="1.0" encoding="UTF-8"?>
<svg width="26px" height="18px" viewBox="0 0 26 18" version="1.1" xmlns="http://www.w3.org/2000/svg" xmlns:xlink="http://www.w3.org/1999/xlink">
    <!-- Generator: Sketch 52.5 (67469) - http://www.bohemiancoding.com/sketch -->
    <title>ico/white/mail</title>
    <desc>Created with Sketch.</desc>
    <g id="Symbols" stroke="none" stroke-width="1" fill="none" fill-rule="evenodd">
        <g id="gabarit/D/footer" transform="translate(-569.000000, -409.000000)" fill="#FFFFFF">
            <g id="footer" transform="translate(0.000000, 185.000000)">
                <g id="infos-et-resa" transform="translate(542.000000, 40.000000)">
                    <g id="ico/white/mail" transform="translate(27.000000, 181.000000)">
                        <g id="noun_601758_cc" transform="translate(0.000000, 3.900000)">
                            <g id="Group" fill-rule="nonzero">
                                <g id="Shape">
                                    <path d="M1.20930233,15.7209302 L1.20930233,2.25595349 L11.6673488,9.7642093 C12.0413256,10.0326744 12.520814,10.1666047 13,10.1666047 C13.4794884,10.1666047 13.9589767,10.0326744 14.3326512,9.7642093 L24.7906977,2.25595349 L24.7906977,15.7209302 L1.20930233,15.7209302 Z M24.1751628,1.20930233 L13.6273256,8.78195349 C13.2986977,9.01806977 12.701,9.01776744 12.3726744,8.78195349 L1.82483721,1.20930233 L24.1751628,1.20930233 Z M24.7894884,0 L1.21051163,0 C0.542976744,0 0,0.542069767 0,1.21081395 L0,15.7194186 C0,16.3860465 0.542069767,16.9302326 1.21051163,16.9302326 L24.7894884,16.9302326 C25.4570233,16.9302326 26,16.3881628 26,15.7194186 L26,1.21081395 C26,0.544186047 25.4579302,0 24.7894884,0 Z"></path>
                                </g>
                            </g>
                        </g>
                    </g>
                </g>
            </g>
        </g>
    </g>
</svg>