<?xml version="1.0" encoding="UTF-8"?>
<svg width="42px" height="32px" viewBox="0 0 42 32" version="1.1" xmlns="http://www.w3.org/2000/svg" xmlns:xlink="http://www.w3.org/1999/xlink">
    <!-- Generator: Sketch 52.5 (67469) - http://www.bohemiancoding.com/sketch -->
    <title>Group 8</title>
    <desc>Created with Sketch.</desc>
    <g id="A_HP" stroke="none" stroke-width="1" fill="none" fill-rule="evenodd">
        <g id="A_HP_V1" transform="translate(-1210.000000, -1220.000000)" fill-rule="nonzero">
            <g id="camping-ou-village-copy-2" transform="translate(0.000000, 884.000000)">
                <g id="tableau" transform="translate(330.000000, 0.000000)">
                    <g id="village-argu" transform="translate(856.000000, 141.000000)">
                        <g id="Group" transform="translate(24.000000, 191.215264)">
                            <g id="Group-8">
                                <path d="M19,9.122229 C13.454667,9.122229 8.36786667,11.0023403 4.3958335,14.0476196 C3.97090017,14.3649979 3.87356683,15.0482396 4.19256683,15.4742726 C4.51160017,15.9003056 5.1876335,15.9898714 5.60416683,15.6612915 C9.2378,12.8754585 13.9024337,11.147229 19,11.147229 C24.0975667,11.147229 28.7622,12.8754585 32.3958333,15.6612915 C32.8123667,15.9898714 33.4883997,15.9003023 33.8074333,15.4742726 C34.1264333,15.048243 34.0291,14.3649979 33.6041667,14.0476196 C29.632133,11.0023403 24.5453667,9.122229 19,9.122229 Z M19,15.534729 C15.0125667,15.534729 11.2813,16.7569819 8.375,19.1312134 C7.91683333,19.4433503 7.808,20.1710239 8.1544,20.60649 C8.50076667,21.0419629 9.22613333,21.089412 9.625,20.7026978 C12.1417667,18.6467085 15.4160333,17.559729 19,17.559729 C22.583967,17.559729 25.8582667,18.6467085 28.375,20.7026978 C28.773867,21.089412 29.499233,21.0419629 29.8455997,20.60649 C30.1919997,20.1710205 30.0831663,19.4433469 29.625,19.1312134 C26.7187003,16.7569819 22.9874333,15.534729 19,15.534729 Z M19,21.6097425 C16.5355333,21.6097425 14.1878667,22.3912575 12.375,23.84568 C11.9631333,24.17697 11.8861333,24.8578763 12.2134333,25.2748575 C12.5407,25.6918388 13.2132337,25.7697 13.625,25.4382413 C15.0540333,24.2917875 16.9591003,23.6347425 19,23.6347425 C21.0409,23.6347425 22.945967,24.2917875 24.375,25.4382413 C24.7867667,25.7697 25.4593,25.6918388 25.786567,25.2748575 C26.1138667,24.8578763 26.036867,24.17697 25.625,23.84568 C23.8121337,22.3912575 21.4644667,21.6097425 19,21.6097425 Z M19,28.0222425 C16.9868,28.0222425 15.3333333,29.6963775 15.3333333,31.7347425 C15.3333333,33.7731075 16.9868,35.4472425 19,35.4472425 C21.0132003,35.4472425 22.6666667,33.7731075 22.6666667,31.7347425 C22.6666667,29.6963775 21.0132003,28.0222425 19,28.0222425 Z M19,30.0472425 C19.9323333,30.0472425 20.6666667,30.790755 20.6666667,31.7347425 C20.6666667,32.6786963 19.9323333,33.4222425 19,33.4222425 C18.067667,33.4222425 17.3333333,32.6786963 17.3333333,31.7347425 C17.3333333,30.790755 18.067667,30.0472425 19,30.0472425 Z" id="Shape" fill="#FFFFFF"></path>
                                <path d="M3.21179072,35.4472425 L38.0193548,3" id="Line-6" stroke="#FFFFFF" stroke-width="2" stroke-linecap="round" transform="translate(21.000000, 19.500000) rotate(8.000000) translate(-21.000000, -19.500000) "></path>
                            </g>
                        </g>
                    </g>
                </g>
            </g>
        </g>
    </g>
</svg>