<?xml version="1.0" encoding="UTF-8"?>
<svg width="23px" height="23px" viewBox="0 0 23 23" version="1.1" xmlns="http://www.w3.org/2000/svg" xmlns:xlink="http://www.w3.org/1999/xlink">
    <!-- Generator: Sketch 52.5 (67469) - http://www.bohemiancoding.com/sketch -->
    <title>ico/white/phone</title>
    <desc>Created with Sketch.</desc>
    <g id="Symbols" stroke="none" stroke-width="1" fill="none" fill-rule="evenodd">
        <g id="gabarit/D/footer" transform="translate(-569.000000, -367.000000)" fill="#FFFFFF" fill-rule="nonzero">
            <g id="footer" transform="translate(0.000000, 185.000000)">
                <g id="infos-et-resa" transform="translate(542.000000, 40.000000)">
                    <g id="ico/white/phone" transform="translate(27.000000, 142.000000)">
                        <path d="M4.66084644,15.2888521 C6.93799137,18.0006216 9.67917634,20.1357232 12.8078587,21.6464981 C13.9990542,22.2088686 15.5920989,22.8760879 17.3669325,22.9904683 C17.4769626,22.9952341 17.5822088,23 17.6922389,23 C18.8834344,23 19.840218,22.5901368 20.6199966,21.746581 C20.6247806,21.7418152 20.6343484,21.7322835 20.6391323,21.7227518 C20.9165996,21.3891421 21.2323381,21.0888935 21.5624285,20.7695814 C21.7872726,20.5551181 22.0169007,20.3311231 22.2369609,20.1023622 C23.2559354,19.0443431 23.2559354,17.700373 22.2273931,16.6757149 L19.3522584,13.811438 C18.8642988,13.3062578 18.2806608,13.0393701 17.6683193,13.0393701 C17.0559778,13.0393701 16.4675559,13.3062578 15.9652445,13.8066722 L14.2526019,15.5128471 C14.0947326,15.4222959 13.9320794,15.3412764 13.778994,15.2650228 C13.5876373,15.1697058 13.4106323,15.0791546 13.252763,14.9790717 C11.6932058,13.9925404 10.2771661,12.7057605 8.92331731,11.0520099 C8.23921705,10.1893908 7.77996093,9.46498135 7.45943843,8.72627435 C7.90912671,8.32117696 8.33011149,7.89701616 8.73674451,7.48238707 C8.88026205,7.33464567 9.02856351,7.18690427 9.17686496,7.03916287 C9.6935281,6.52445089 9.97099534,5.92871944 9.97099534,5.32345628 C9.97099534,4.71819312 9.69831202,4.12246167 9.17686496,3.60774969 L7.75125742,2.1875259 C7.58382029,2.02072109 7.425951,1.85868214 7.26329779,1.69187733 C6.94755921,1.36779942 6.61746887,1.03418981 6.29216245,0.733941152 C5.79941891,0.252590137 5.22056484,0 4.60822334,0 C4.00066577,0 3.41702778,0.252590137 2.90514856,0.738707004 L1.11596326,2.52113552 C0.46535042,3.16929134 0.0969887392,3.95565686 0.0204460524,4.86593452 C-0.0704483882,6.00497306 0.140044001,7.21549938 0.685410644,8.67861583 C1.52259628,10.9423954 2.78555061,13.0441359 4.66084644,15.2888521 Z M1.29417841,5.03307214 C1.35099852,4.40640445 1.592484,3.88339607 2.04704491,3.43106451 L3.80846842,1.67827969 C4.08309897,1.41441961 4.38613957,1.27777778 4.67971016,1.27777778 C4.96854573,1.27777778 5.26211632,1.41441961 5.53201186,1.68770326 C5.84925749,1.97983406 6.14756308,2.28610023 6.46954372,2.61121354 C6.63053404,2.77612609 6.79625937,2.94103864 6.96198471,3.11066298 L8.37301752,4.51477555 C8.6665881,4.80690635 8.8181084,5.10374894 8.8181084,5.39587975 C8.8181084,5.68801055 8.6665881,5.98485314 8.37301752,6.27698394 C8.22623222,6.42304935 8.07944693,6.57382653 7.93266164,6.71989194 C7.49230576,7.16279993 7.08035994,7.58214898 6.62579904,7.98265089 C6.61632902,7.99207447 6.61159401,7.99678625 6.60212399,8.00620983 C6.2091182,8.39728816 6.27067333,8.76951935 6.36537352,9.05222658 C6.37010853,9.06636194 6.37484354,9.07578551 6.37957854,9.08992087 C6.74417427,9.9616015 7.25082028,10.790876 8.04156686,11.7803513 C9.46206969,13.5237126 10.9583327,14.8759955 12.606116,15.9173005 C12.8097214,16.0492305 13.0275318,16.1528898 13.2311372,16.2565491 C13.4205376,16.3507849 13.5957329,16.4403088 13.7519882,16.5392564 C13.7709283,16.5486799 13.7851333,16.5581035 13.8040733,16.5675271 C13.9603287,16.6476275 14.111849,16.6853218 14.2633693,16.6853218 C14.64217,16.6853218 14.8883905,16.4450206 14.9688857,16.3649202 L16.7397792,14.6027118 C17.0144097,14.3294282 17.3127153,14.1833628 17.6062859,14.1833628 C17.9661466,14.1833628 18.2597172,14.4048168 18.4443826,14.6027118 L21.2995933,17.4392077 C21.8677944,18.0046222 21.8630594,18.6171545 21.2853883,19.2155515 C21.0865179,19.4275819 20.8781774,19.6301887 20.655632,19.8422191 C20.3241813,20.1626207 19.9785256,20.4924458 19.666015,20.864677 C19.1214889,21.4489386 18.4727926,21.7222222 17.634696,21.7222222 C17.5542008,21.7222222 17.4689706,21.7175104 17.3884755,21.7127986 C15.8353924,21.6138511 14.3912145,21.0107424 13.3068974,20.4971576 C10.3617215,19.0789096 7.77640633,17.0669765 5.63144705,14.5131879 C3.86528853,12.3975955 2.67680116,10.4280684 1.8907896,8.31718778 C1.40308363,7.02144631 1.21841826,5.98014135 1.29417841,5.03307214 Z" id="ic_phone"></path>
                    </g>
                </g>
            </g>
        </g>
    </g>
</svg>