<?xml version="1.0" encoding="UTF-8"?>
<svg width="16px" height="20px" viewBox="0 0 16 20" version="1.1" xmlns="http://www.w3.org/2000/svg" xmlns:xlink="http://www.w3.org/1999/xlink">
    <!-- Generator: Sketch 52.5 (67469) - http://www.bohemiancoding.com/sketch -->
    <title>ico/social/white/pinterest</title>
    <desc>Created with Sketch.</desc>
    <g id="Symbols" stroke="none" stroke-width="1" fill="none" fill-rule="evenodd">
        <g id="gabarit/D/footer" transform="translate(-988.000000, -121.000000)" fill="#FFFFFF">
            <g id="newsletter">
                <g id="Group-2" transform="translate(426.000000, 105.000000)">
                    <g id="social" transform="translate(380.000000, 6.000000)">
                        <g id="ico/social/white/pinterest" transform="translate(180.000000, 10.000000)">
                            <path d="M8.39520795,13.2286019 C7.87020795,15.9817269 7.22958295,18.6217269 5.32958295,20.0004769 C4.74333295,15.8392269 6.19083295,12.7142269 6.86208295,9.39610193 C5.71645795,7.46547693 7.00020795,3.58360193 9.41833295,4.54110193 C12.3927079,5.71735193 6.84270795,11.7136019 10.5683329,12.4629769 C14.4589579,13.2448519 16.0470829,5.71297693 13.6352079,3.26422693 C10.1495829,-0.27389807 3.48770795,3.18172693 4.30708295,8.24485193 C4.50583295,9.48297693 5.78520795,9.85860193 4.81833295,11.5667269 C2.58708295,11.0729769 1.92208295,9.31235193 2.00708295,6.96735193 C2.14520795,3.12797693 5.45708295,0.43985193 8.77895795,0.0673519295 C12.9814579,-0.40327307 16.9239579,1.60985193 17.4670829,5.56172693 C18.0802079,10.0217269 15.5714579,14.8529769 11.0783329,14.5048519 C9.86145795,14.4123519 9.34958295,13.8092269 8.39520795,13.2286019" id="Fill-1"></path>
                        </g>
                    </g>
                </g>
            </g>
        </g>
    </g>
</svg>