<?xml version="1.0" encoding="UTF-8"?>
<svg width="40px" height="30px" viewBox="0 0 40 30" version="1.1" xmlns="http://www.w3.org/2000/svg" xmlns:xlink="http://www.w3.org/1999/xlink">
    <!-- Generator: Sketch 52.5 (67469) - http://www.bohemiancoding.com/sketch -->
    <title>Shape</title>
    <desc>Created with Sketch.</desc>
    <g id="A_HP" stroke="none" stroke-width="1" fill="none" fill-rule="evenodd">
        <g id="A_HP_V1" transform="translate(-445.000000, -1080.000000)" fill="#FFFFFF" fill-rule="nonzero">
            <g id="camping-ou-village-copy-2" transform="translate(0.000000, 884.000000)">
                <g id="tableau" transform="translate(330.000000, 0.000000)">
                    <g id="camping-argus" transform="translate(115.000000, 141.000000)">
                        <g id="noun_towels_1121727" transform="translate(0.000000, 55.000000)">
                            <path d="M33.4809698,28.5217269 L15.2548295,28.5217269 L15.2548295,23.881844 L33.1259152,23.881844 C33.4603694,23.881844 33.7318105,23.6139745 33.7318105,23.283921 C33.7318105,22.9538674 33.4603694,22.6859979 33.1259152,22.6859979 L15.2548295,22.6859979 L15.2548295,18.0469123 L31.6592444,18.0469123 L33.4809698,18.0469123 C36.4074444,18.0469123 38.7882093,20.3959526 38.7882093,23.283921 C38.7882093,26.1718893 36.4074444,28.5217269 33.4809698,28.5217269 Z M9.66322316,28.5217269 L14.0430388,28.5217269 L14.0430388,23.881844 L9.66322316,23.881844 L9.66322316,28.5217269 Z M1.21179072,26.2021841 C1.21179072,24.9230274 2.26645258,23.881844 3.56266473,23.881844 L8.45143244,23.881844 L8.45143244,28.5217269 L3.56266473,28.5217269 C2.26645258,28.5217269 1.21179072,27.4813408 1.21179072,26.2021841 Z M1.21179072,20.3664551 C1.21179072,19.0872984 2.26645258,18.0469123 3.56266473,18.0469123 L7.04898664,18.0469123 L8.45143244,18.0469123 L8.45143244,22.6859979 L3.56266473,22.6859979 C2.26645258,22.6859979 1.21179072,21.6456118 1.21179072,20.3664551 Z M9.66322316,22.6859979 L14.0430388,22.6859979 L14.0430388,18.0465136 L9.66322316,18.0465136 L9.66322316,22.6859979 Z M4.8095974,14.6407439 C4.8095974,13.4217781 5.81417188,12.4300231 7.04898664,12.4300231 L31.6592444,12.4300231 C32.8944631,12.4300231 33.8990376,13.4217781 33.8990376,14.6407439 C33.8990376,15.8593111 32.8944631,16.8510661 31.6592444,16.8510661 L14.6489341,16.8510661 L9.0573278,16.8510661 L7.04898664,16.8510661 C5.81417188,16.8510661 4.8095974,15.8593111 4.8095974,14.6407439 Z M4.8095974,9.02345613 C4.8095974,7.80449033 5.81417188,6.81313389 7.04898664,6.81313389 L7.11603908,6.81313389 L31.6592444,6.81313389 C32.8944631,6.81313389 33.8990376,7.80449033 33.8990376,9.02345613 C33.8990376,10.2424219 32.8944631,11.234177 31.6592444,11.234177 L7.04898664,11.234177 C5.81417188,11.234177 4.8095974,10.2424219 4.8095974,9.02345613 Z M7.11603908,1.19584611 L15.912024,1.19584611 L23.5531724,4.93645275 C23.6379977,4.97830737 23.7300938,4.99863675 23.8225938,4.99863675 C23.9130742,4.99863675 24.0043624,4.97830737 24.087976,4.93844582 L31.853131,1.20222396 C33.0289719,1.26799549 33.96609,2.23025299 33.96609,3.40656695 C33.96609,4.62553275 32.9611116,5.61728779 31.7258929,5.61728779 L31.6592444,5.61728779 L7.11603908,5.61728779 C5.8808204,5.61728779 4.87624588,4.62553275 4.87624588,3.40656695 C4.87624588,2.18799977 5.8808204,1.19584611 7.11603908,1.19584611 Z M29.1007503,1.19584611 L23.8250174,3.73422878 L18.638957,1.19584611 L29.1007503,1.19584611 Z M34.2371272,16.8981028 C34.7787977,16.2961935 35.1108284,15.5069351 35.1108284,14.6407439 C35.1108284,13.4759898 34.5150312,12.4467649 33.6082079,11.8321 C34.5150312,11.2174351 35.1108284,10.1882102 35.1108284,9.02345613 C35.1108284,7.87265357 34.528361,6.85578572 33.6409262,6.23912775 C34.5667343,5.62725316 35.1778808,4.58606984 35.1778808,3.40656695 C35.1778808,1.52829133 33.6292122,0 31.7258929,0 L16.0538035,0 L7.11603908,0 C5.21271976,0 3.66445515,1.52829133 3.66445515,3.40656695 C3.66445515,4.55736951 4.24692256,5.57463596 5.13435728,6.19129393 C4.2085492,6.80316853 3.59780666,7.84395324 3.59780666,9.02345613 C3.59780666,10.1882102 4.19360376,11.2174351 5.09961928,11.8321 C4.19360376,12.4467649 3.59780666,13.4759898 3.59780666,14.6407439 C3.59780666,15.4842141 3.91166046,16.2555348 4.42788332,16.8510661 L3.56266473,16.8510661 C1.59794804,16.8510661 0,18.4279885 0,20.3664551 C0,21.5802389 0.626495804,22.6521156 1.57734759,23.283921 C0.626495804,23.9161249 0,24.9884003 0,26.2021841 C0,28.1406506 1.59794804,29.7175731 3.56266473,29.7175731 L9.0573278,29.7175731 L14.6489341,29.7175731 L33.4809698,29.7175731 C37.0751411,29.7175731 40,26.8315978 40,23.283921 C40,19.9897635 37.4762438,17.2692137 34.2371272,16.8981028 Z" id="Shape"></path>
                        </g>
                    </g>
                </g>
            </g>
        </g>
    </g>
</svg>