<?xml version="1.0" encoding="UTF-8"?>
<svg width="42px" height="28px" viewBox="0 0 42 28" version="1.1" xmlns="http://www.w3.org/2000/svg" xmlns:xlink="http://www.w3.org/1999/xlink">
    <!-- Generator: Sketch 52.5 (67469) - http://www.bohemiancoding.com/sketch -->
    <title>Shape</title>
    <desc>Created with Sketch.</desc>
    <g id="A_HP" stroke="none" stroke-width="1" fill="none" fill-rule="evenodd">
        <g id="A_HP_V1" transform="translate(-444.000000, -1024.000000)" fill="#FFFFFF" fill-rule="nonzero" stroke="#FFFFFF" stroke-width="0.5">
            <g id="camping-ou-village-copy-2" transform="translate(0.000000, 884.000000)">
                <g id="tableau" transform="translate(330.000000, 0.000000)">
                    <g id="camping-argus" transform="translate(115.000000, 141.000000)">
                        <g id="noun_Tent_1734027">
                            <path d="M11.6245415,0.185599975 L0.0729863189,15.8718303 C-0.0882892367,16.09942 0.0317863189,16.4703683 0.295132986,16.5580958 L1.7668441,17.0763027 L1.7668441,20.6196993 C1.76506632,20.7984717 1.8802041,20.9728062 2.04452854,21.0398683 L14.4846615,25.9698269 C14.5505504,25.9958269 14.6226171,26.0052407 14.6929237,25.99762 L38.240318,23.7567338 C38.4587224,23.7361131 38.6439002,23.5298614 38.6429535,23.3085476 L38.684598,16.7119441 C38.8671446,16.9196751 39.0404913,17.1175889 39.226078,17.3281889 C39.382358,17.5042717 39.6833757,17.5209924 39.857878,17.3631545 C40.0323802,17.205451 40.0488824,16.9017889 39.8925446,16.7257958 C34.7015757,10.8348772 30.7635224,6.1612517 27.5357135,0.325300664 C27.321638,-0.0188810598 27.1878824,-0.0148151977 26.9110646,0.0312048023 C21.7795904,1.31498618 17.2335415,1.31263273 12.0967549,0.0172185954 C11.891106,-0.0393717494 11.7455637,0.0504806644 11.6246971,0.185286182 L11.6245415,0.185599975 Z M12.1799015,0.94189963 C17.0273326,2.12090549 21.4735371,2.15033032 26.2861282,1.06795032 C23.1067771,8.35554411 18.6607104,13.426082 11.8744526,19.6673372 L1.15594632,15.9138338 L12.1799015,0.94189963 Z M27.5356913,2.13237239 C30.347958,6.90182135 33.6862291,10.9941676 37.8099091,15.7177579 L37.7543757,22.9026338 L27.5356913,23.868982 L27.5356913,2.13237239 Z M26.6471135,2.56654549 L26.6471135,23.9530338 L15.0955593,25.045482 L15.0955593,17.8746372 C20.200866,12.9434683 23.8844171,8.4650086 26.6471135,2.56654549 Z M2.65542641,17.3844476 L11.8466837,20.591682 C11.9952704,20.6461027 12.1720304,20.612751 12.2909771,20.5076303 C12.957306,19.8965855 13.5821237,19.3069683 14.2069771,18.7149751 L14.2069771,24.8773786 L2.65542641,20.3115545 L2.65542641,17.3844476 Z" id="Shape"></path>
                        </g>
                    </g>
                </g>
            </g>
        </g>
    </g>
</svg>