<?xml version="1.0" encoding="UTF-8"?>
<svg width="20px" height="16px" viewBox="0 0 20 16" version="1.1" xmlns="http://www.w3.org/2000/svg" xmlns:xlink="http://www.w3.org/1999/xlink">
    <!-- Generator: Sketch 52.5 (67469) - http://www.bohemiancoding.com/sketch -->
    <title>ico/social/white/twitter</title>
    <desc>Created with Sketch.</desc>
    <g id="Symbols" stroke="none" stroke-width="1" fill="none" fill-rule="evenodd">
        <g id="gabarit/D/footer" transform="translate(-857.000000, -123.000000)" fill="#FFFFFE">
            <g id="newsletter">
                <g id="Group-2" transform="translate(426.000000, 105.000000)">
                    <g id="social" transform="translate(380.000000, 6.000000)">
                        <g id="ico/social/white/twitter" transform="translate(51.000000, 10.000000)">
                            <path d="M19.4478661,2.29528747 C18.6549472,2.75833785 17.7759896,3.09510176 16.8413234,3.27586474 C16.0942094,2.49090768 15.0276995,2 13.8466776,2 C11.5818142,2 9.744669,3.80886791 9.744669,6.03992881 C9.744669,6.35626403 9.78118907,6.66393252 9.84989632,6.95983905 C6.4399121,6.79145709 3.41679304,5.1831618 1.39333354,2.73976631 C1.04051252,3.33591271 0.836866702,4.02986923 0.836866702,4.77087364 C0.836866702,6.17178674 1.56293522,7.40803219 2.66287023,8.13232222 C1.99127232,8.11127447 1.35805144,7.92927339 0.804679521,7.62717635 C0.804679521,7.64389074 0.804679521,7.66122417 0.804679521,7.67793856 C0.804679521,9.63414068 2.21905852,11.267198 4.09643775,11.6392479 C3.75166352,11.7314865 3.38955774,11.7803915 3.01445328,11.7803915 C2.75014701,11.7803915 2.49388753,11.7550104 2.24257993,11.7079625 C2.7662406,13.3125435 4.28027607,14.4806933 6.07533038,14.5135031 C4.67085513,15.5962238 2.90241713,16.2425133 0.979233079,16.2425133 C0.646838538,16.2425133 0.321871808,16.2233228 0,16.1861797 C1.81671876,17.3320436 3.97449785,18 6.29011792,18 C13.8380118,18 17.9635418,11.846011 17.9635418,6.50793159 C17.9635418,6.33335913 17.9610659,6.15816761 17.9530191,5.98545229 C18.7539847,5.41592509 19.450342,4.70463515 20,3.89367794 C19.2646467,4.21558462 18.4742038,4.43225257 17.643527,4.52944363 C18.4909164,4.03048828 19.1408499,3.23872166 19.4478661,2.29528747" id="Fill-84"></path>
                        </g>
                    </g>
                </g>
            </g>
        </g>
    </g>
</svg>