<?xml version="1.0" encoding="UTF-8"?>
<svg width="30px" height="27px" viewBox="0 0 30 27" version="1.1" xmlns="http://www.w3.org/2000/svg" xmlns:xlink="http://www.w3.org/1999/xlink">
    <!-- Generator: Sketch 52.5 (67469) - http://www.bohemiancoding.com/sketch -->
    <title>noun_wifi_1559526</title>
    <desc>Created with Sketch.</desc>
    <g id="A_HP" stroke="none" stroke-width="1" fill="none" fill-rule="evenodd">
        <g id="A_HP_V1" transform="translate(-450.000000, -1196.000000)" fill="#FFFFFF" fill-rule="nonzero">
            <g id="camping-ou-village-copy-2" transform="translate(0.000000, 884.000000)">
                <g id="tableau" transform="translate(330.000000, 0.000000)">
                    <g id="camping-argus" transform="translate(115.000000, 141.000000)">
                        <g id="Group-2-Copy-3" transform="translate(5.000000, 162.000000)">
                            <g id="noun_wifi_1559526" transform="translate(0.000000, 9.000000)">
                                <g id="Group" transform="translate(0.000000, 0.215264)">
                                    <path d="M15,0.122229 C9.454667,0.122229 4.36786667,2.00234025 0.3958335,5.04761963 C-0.0290998333,5.36499788 -0.126433167,6.04823962 0.192566833,6.47427263 C0.511600167,6.90030563 1.1876335,6.98987138 1.60416683,6.6612915 C5.2378,3.8754585 9.90243367,2.147229 15,2.147229 C20.0975667,2.147229 24.7622,3.8754585 28.3958333,6.6612915 C28.8123667,6.98987138 29.4883997,6.90030225 29.8074333,6.47427263 C30.1264333,6.048243 30.0291,5.36499788 29.6041667,5.04761963 C25.632133,2.00234025 20.5453667,0.122229 15,0.122229 Z M15,6.534729 C11.0125667,6.534729 7.2813,7.75698188 4.375,10.1312134 C3.91683333,10.4433503 3.808,11.1710239 4.1544,11.60649 C4.50076667,12.0419629 5.22613333,12.089412 5.625,11.7026978 C8.14176667,9.6467085 11.4160333,8.559729 15,8.559729 C18.583967,8.559729 21.8582667,9.6467085 24.375,11.7026978 C24.773867,12.089412 25.499233,12.0419629 25.8455997,11.60649 C26.1919997,11.1710205 26.0831663,10.4433469 25.625,10.1312134 C22.7187003,7.75698188 18.9874333,6.534729 15,6.534729 Z M15,12.6097425 C12.5355333,12.6097425 10.1878667,13.3912575 8.375,14.84568 C7.96313333,15.17697 7.88613333,15.8578763 8.21343333,16.2748575 C8.5407,16.6918388 9.21323367,16.7697 9.625,16.4382413 C11.0540333,15.2917875 12.9591003,14.6347425 15,14.6347425 C17.0409,14.6347425 18.945967,15.2917875 20.375,16.4382413 C20.7867667,16.7697 21.4593,16.6918388 21.786567,16.2748575 C22.1138667,15.8578763 22.036867,15.17697 21.625,14.84568 C19.8121337,13.3912575 17.4644667,12.6097425 15,12.6097425 Z M15,19.0222425 C12.9868,19.0222425 11.3333333,20.6963775 11.3333333,22.7347425 C11.3333333,24.7731075 12.9868,26.4472425 15,26.4472425 C17.0132003,26.4472425 18.6666667,24.7731075 18.6666667,22.7347425 C18.6666667,20.6963775 17.0132003,19.0222425 15,19.0222425 Z M15,21.0472425 C15.9323333,21.0472425 16.6666667,21.790755 16.6666667,22.7347425 C16.6666667,23.6786963 15.9323333,24.4222425 15,24.4222425 C14.067667,24.4222425 13.3333333,23.6786963 13.3333333,22.7347425 C13.3333333,21.790755 14.067667,21.0472425 15,21.0472425 Z" id="Shape"></path>
                                </g>
                            </g>
                        </g>
                    </g>
                </g>
            </g>
        </g>
    </g>
</svg>