<?xml version="1.0" encoding="UTF-8"?>
<svg width="20px" height="14px" viewBox="0 0 20 14" version="1.1" xmlns="http://www.w3.org/2000/svg" xmlns:xlink="http://www.w3.org/1999/xlink">
    <!-- Generator: Sketch 52.5 (67469) - http://www.bohemiancoding.com/sketch -->
    <title>ico/social/white/youtube</title>
    <desc>Created with Sketch.</desc>
    <g id="Symbols" stroke="none" stroke-width="1" fill="none" fill-rule="evenodd">
        <g id="gabarit/D/footer" transform="translate(-901.000000, -124.000000)" fill="#FFFFFF">
            <g id="newsletter">
                <g id="Group-2" transform="translate(426.000000, 105.000000)">
                    <g id="social" transform="translate(380.000000, 6.000000)">
                        <g id="ico/social/white/youtube" transform="translate(95.000000, 10.000000)">
                            <path d="M8.00189807,12.7146684 L8.00189807,6.88518331 L13.1975601,9.79992584 L8.00189807,12.7146684 Z M19.5831898,5.12348979 C19.3541968,4.28881555 18.6764019,3.63050397 17.8141575,3.40492036 C16.2551374,3 9.99992346,3 9.99992346,3 C9.99992346,3 3.74792399,3 2.18568947,3.40492036 C1.32665947,3.62738119 0.649017672,4.28569277 0.41681017,5.12348979 C0,6.63803765 0,9.79992584 0,9.79992584 C0,9.79992584 0,12.9619627 0.41681017,14.4766593 C0.645803198,15.3110361 1.32359807,15.9694964 2.18568947,16.19508 C3.74792399,16.6000004 9.99992346,16.6000004 9.99992346,16.6000004 C9.99992346,16.6000004 16.2551374,16.6000004 17.8141575,16.19508 C18.6731875,15.9724705 19.3509823,15.3141589 19.5831898,14.4766593 C20,12.9619627 20,9.79992584 20,9.79992584 C20,9.79992584 20,6.63803765 19.5831898,5.12348979 Z" id="Fill-1"></path>
                        </g>
                    </g>
                </g>
            </g>
        </g>
    </g>
</svg>