<svg xmlns="http://www.w3.org/2000/svg" xmlns:xlink="http://www.w3.org/1999/xlink" style="display: none">

    <symbol id="logo-huttopia" viewBox="0 0 250 85.8">
        <path fill="#005844" d="M249 84.6H1.1V1.2H249v83.4z"/>
        <path fill="#fff"
              d="M81 33.3l-.6-.2-1.2.2-.9.3-.6.1c-.6.1-1 .6-1.2 1.1-.1.2-.2.4-.2.7 0 .4.2.7.3.8l.1.1s-.1 0-.1.1l-.4.3v.1c-.2.3-.2.6-.2.8 0 .3.1.6.3.8v.1l-.5 1 .1.7-.3.1-.6.7v.1c0 .3.1.6.2.8l-.2.5-.2.2v.9l-.5.7.1.8c0 .1-.1.1-.2.2-.2.3-.4.6-.5 1.1v.1l-.2.3-.3.7-.2.4-.2.9-.3.7-.5 1.6-.5.7-.7.4c-.1 0-.2 0-.4-.1-.4-.1-.9-.2-1.5-.4h-.5c-.6.2-1 .4-1.3.6-1.3.7-1.5.7-1.7.7h-.2l-.8-.9V52c0-.4-.1-.8-.2-1.1l-.2-.3v-.1l-.2-.5-.1-.1v-.5c0-.2 0-.4-.1-.5l-.1-1.5.1-.3c.1-.3.1-.6.1-.9 0-.5-.1-.9-.2-1.3l-.4-1-.5-1.8v-1l.1-1.1.2-.8v-.9l.2-.4.2-.9.1-.3.1-.8v-.4l.2-1.5-.3-.8h-.1s-.1 0-.1-.1V33l-.7-.6h-.6l-.8.2c-.2 0-.3.1-.5.2l-.3.3-.1.2c-.1 0-.2 0-.3.1l-.4.2-.1.1c-.4.3-.5.5-.9.9l-.2.2.2.1-.3.5.1.2c-.1.3-.1.6-.2.8v.5l-.2.7v1.5l-.2.6-.1 1.5c0 .6 0 1.1.4 1.6l.1.6.4.7v.5l.1.3.1.2-.1.4.1.5.2.3v.9l.3 1.4.1.1c0 .2.1.4.1.7l.1.2c.2.3.3.6.3.7l.9.7.4.5.4.9v.3l.3 1v.4c0 .2 0 .5.1 1.1v.3l.1.3v.8l.3.5.8.5.3-.1.4-.2.4-.1.2-.1c.4-.1.9-.3 1.3-.5.5-.3 1-.5 1-.5h.5l1.3-.2 2-.5.4-.2.1-.1c.4 0 .7-.1 1-.3.1-.1.1-.1.2-.1.2-.1.5-.2 1-.5.4-.2.7-.3 1.1-.7 1-.5 1.9-.9 2-1.7l.3-1.5v-1c0-.2 0-.4.4-1.2V48l.2-.1.1-.4.6-.8.2-.4v-.4l.1-.3.1-.1v-.1c0-.1.1-.1.1-.1.2-.2.5-.4.5-1v-.1l-.2-.3c.3-.4.5-.6.5-1.2v-.1l-.1-.3c.2 0 .3-.1.5-.2 0-.2.1-.4.1-.6l.3-.9-.2-.4.1-.1.2-1.1.3-.1c.1-.5.3-1.1.5-1.5l-.1-.4-.1-.1c-.1-.1-.2-.2-.3-.2l.3-.7-.2-1 .3-.2.3-.3.2-.4-.2-1.1-.1.3zM109.5 37.2c.2-.3-.5-.5-.5-.9h-.1l-.6-.3-.8-.1h-.8c-.4 0-.8-.1-1.3-.3-.5-.2-.7-.2-.8-.2h-.7l-2.6-.8c-.3-.1-.7-.2-1.2-.2h-.4c-.1 0-.3-.1-.6-.2s-.8-.2-1.3-.2H97c-.2 0-.5 0-.9-.1l-.5-.3-2-.3h-.3l-.6-.2h-.6l-.4.1-.1.1H91c-.1 0-.2 0-.4.1l-1.2.4c-.1 0-.2-.1-.4-.2v.1l-.1-.1c-.2-.1-.4-.1-.5-.1-.8 0-2 .9-2.5 2.1l-.2.2c-.1.1-.2.2-.3.4-.3.3-.6.6-.6 1.1 0 .6.4.9.7 1v.1c.3.2.5.3.7.3l.8-.1h2.4l.7-.2h1l.2-.1.5.1.2-.4.9.1h.4l.5.1v-.1l.2.1h1.7l.1.3.1.4.2.7c0 .1-.1.2-.2.4l-.1.3v.3l.1.2.1.4-.1.4v1l-.4.4-.1 1-.1.2v.3l-.2.3-.1.5v1l.1.9-.1.4-.1.3v.6l-.1.4v.7c0 .1 0 .1-.1.3l.1.1-.2.3v.5l-.1.6v.6l-.1.4-.2 1.3v.2l.1.8s0 .2-.7.5V55l-.2.1c-.2.3-.4.7-.4 1v.3l.1.1.4.4-.1.1.2.2.4.2h.7c.2.1.4.1.5.1.1 0 .3 0 .5-.1l.8-.4c.1 0 .4-.1.6-.1.5 0 .8-.1 1-.2l.9-.3c.3-.1.4-.3.6-.5.1-.2.3-.6.3-.9 0-.2-.1-.5-.1-.6l-.2-.3.1-.4v-.1l.1-.4c0-.2-.1-.5-.2-.7l.1-.2c.1-.1.1-.3.1-.5 0-.6-.4-.9-.7-1.1l-.4-.7-.4-.5-.2-.5-.1-.6-.2-.6.3-.4.2-.6v-.5l.1-.3v-1.1-.5l-.1-.3.2-.1.2-.3.3-.7v-.5c0-.1.1-.2.1-.2.3-.3.3-.6.3-.7V41l.1-.2c.1-.1.1-.2.1-.3l.1-.3v-.1l.4-.5.3-.7.2-.2H101.8l.8.2 1.1.1h.7l1.9.2c.1 0 .2 0 .4-.1h.4l.3.1 1.9.1c.7-.2-.1-1.5.2-2.1zM135.7 35.9l-.7-.1-.4-.1h-1c-.4.1-.5.1-.8.1l-.1.1c-.4 0-.7.1-.9.1h-.3l-.6-.3-.8-.1h-1.2l-2.5-.7c-.3-.1-.7-.2-1.2-.2h-.4c-.1 0-.3-.1-.6-.2s-.8-.2-1.3-.2l-.2.1h-.2c-.1-.3-.4-.8-.9-1l-.5-.4-2-.3h-.3l-.6-.2h-.6l-.4.1-.1.1c-.1 0-.1 0-.1.1l-.5-.1c-.1 0-.2 0-.4.1l-1.2.4-.2.1.1.1-.5.5.5.5c-.4.5-.7 1.1-1 1.5l-.2.2c-.1.1-.3.2-.4.4-.3.3-.6.6-.6 1.1 0 .6.4.9.7 1v.1c.3.2.5.3.7.3l.8-.1h1.9v-.3h.1l.3-.1.9.1h.4l.5.1v-.1l.1.1h1.8l.1.3.1.4.2.7c0 .1-.1.2-.2.4l-.1.3v.3l.1.2.1.4-.1.4v1l-.1.3-.1 1-.1.2v.3l-.2.3-.1.5v.1l-.1.8.1.9-.2.4-.1.3v.6l-.1.4v.7c0 .1 0 .1-.1.2l.1.1-.2.3v.5l-.1.5v.5l-.1.4-.2 1.3v.2l.1.7c0 .1 0 .2-.7.5l-.1.1-.2.1c-.2.3-.4.6-.4 1v.3l.1.1.4.3-.1.1.2.2.4.2h.7c.2.1.4.1.5.1.1 0 .3 0 .5-.1l.7-.4c.1 0 .4-.1.6-.1.5 0 .8-.1 1-.2l.7-.2s.7-.1.4-.7c-.1-.4-.6-.5-.6-.5l-.2-.1c0-.1.1-.3.1-.4 0-.3-.1-.5-.1-.6l-.2-.3.2-.9c0-.2-.1-.5-.2-.7l.1-.2s0-.1.1-.1h.1c-.1-.3-.1-.7-.1-1V50l-.2-.5-.1-.3.3-.3c0-.3 0-.6.1-1l-.2-.2.2-.4v-.5l.1-.3v-1.1-.5l-.1-.3.1-.1.3-.3.3-.6.1-.3v-.2c0-.1.1-.2.1-.2.2-.3.3-.6.3-.7v-.5l.1-.2c.1-.1.1-.2.1-.3l.1-.3v-.1l.4-.5.3-.7.2-.2H127.1l.8.2 1.1.1H129.8l.1-.3 2.8.2 1.5-.2.3-.1.9-.1.8-.2.4-.3c.2-.3.3-.6.3-1 .1-1-.3-1.6-1.2-1.8zM188.4 39.7l-.1-.3-.8-1.2-.2-.5-.3-.3-.3-.2-.3-.4-.5-.2h-.4c-.3-.4-.6-.6-1.2-.8l-.1-.1-.5-.1h-1.1c-.1 0-.4-.1-1.3-.3-.3-.1-.7-.1-1.3-.1l-.3-.4-.4-.2-1-.1-1.9-.6c-.1-.1-.3-.1-.4-.1h-.3c-.2 0-.5-.1-1.1-.3l-.1-.1-.6-.1h-.9l-1.1-.4-1-.2-1.6-.4c-.2-.1-.4-.1-.8-.1-.5-.1-.8-.2-1.4-.6l-.3-.1-.8.1-.2.3-.1-.1v1c.2.2.2.2.4.5l.5.4h.4c.3.2.5.3.8.4.4.4.8.6 1.5.7l1.3.2 1.2.3 1.1.4.9.2.5.2c.2.2.2.3.3.6l-.3.4-.1.4-.3 2.3.1.8-.4 1-.2.5-.3.4-.1.5v.2l-.4 1.2-.2 1.3-.2.8-.2 1.5-.5 1.4-.3 1.4-.2 1.2v.3l.3.8c-.1 0-.4.1-.7.1l-1.2.2h-.7c-.2 0-.5 0-.8.3l-1.2.9-.2.2-.2.3-.1.5.1.5v.3l.7.6.5.1h.7l.9.2h.2l1.4-.1.1-.1.6-.1.4.1 1.8.2 2.5-.4 2.9-.2 1.5.1c.4 0 .8-.1 1.2-.4l.3-.7c-.1-.7-.5-1.1-1.2-1.2l-1.2-.2-1.1-.4-1.4-.8-2.1-.4.1-.4c-.1-.4-.2-.6-.3-.8v-.1l-.2-1 .1-.6-.1-.6c.1-.5.2-.8.2-1.1.1-.6.2-.7.2-.7h.8l2.3.3 3.3-.5.7-.2.7-.1 2.3-.8.7-.3 1.6-1.3.6-.5c.1-.1.3-.3.3-.5l.4-2.2v-.2l-.3-1.4zm-4.9 3.7l-1.6.6-2.7.5-1.9-.3-.1-.1h-.3l.1-.2.1-.3.1-.6.5-1.4.4-1.1.3-.5.1-.3v-.4l.4-.8.1-.2.9.3.4.1 2.2 1.1.9.6 1 .9.2.1c.2.2.2.4.2.4.2.5-.5 1.3-1.3 1.6zM229.1 53.6l-1.4.1-1 .2-.7-.1c0-.4.1-.6.2-.9.2-.3.4-.5.4-.8l-.4-1V51c0-.1.1-.3.1-.5.1-.3.3-1.5.3-1.8 0-.1 0-.3-.1-.5l-.4-2.6v-.4l-.1-.4c-.2-.3-.2-.3-.2-.5l-.3-.4-.1-.1v-.3c.1-.2.1-.4.1-.6 0-.3-.2-.5-.4-.7V42l-.5-1.1-.1-.6-.1-.3-.3-.4-.2-.5.1-.6-.4-.8c-.1 0-.2-.1-.2-.1v-.5l-.1-.3-.1-.2.1-1-.1-.4-.5-.8-.4-1.1.3-1.7c0-.1 0-.4-.5-1l-.6-.7-.3-.2-.2-.1h-.4c-.3.1-.6.2-.8.4-.2.2-.3.5-.3.8v.5l-.3.4v.8l.1.4.1.1-.1.3v.3l.1.4-.1.5v.4l.1.1-.1.5.1.6c.1.2.2.3.2.3l-.4.6v.3l-1.2 2.6-.5.5-1.1 1.9s-.1.1-.3-.2l-.3-.2-.5-.1-.3-.2c-.2-.1-.3-.1-.4-.1l-.2-.2c-1.1-.2-2.7.3-3.4.6l-.2 1c.4.5.6.8.9.8l.3.3 1.7.8.2.2.4.2c-.2.5-.3.6-.6.9l-.1.2c-.3.3-.4.5-.5.8l-.3.2-.4.7-.4.4-.2.3-.1.4-.2.2-.3.1-.2.3-.3.2-1 1.6-.7.6-.5.6s-.2.7-.8 1c-.1 0-.2.1-.3.1h-.1.1c-1.4.1-1.8.3-2.6 1l-.4.6c.1 1 .3.7.8 1.5l.4.3 1.5.4h.2l2.6-.2 1.2.2h1.8l.1-.1c1.5-.1 2.3-.7 2.3-1.7 0-.7-.7-1-1.1-1.2v-.1c-.3-.1-.5-.2-.8-.3-.4-.1-1.3-.3-1.4-.4 0-.1.5-.4.7-.8v-.2c.1-.2.1-.3.1-.3 0-.1.1-.1.2-.2l.3-.2.2-.3.6-.7.9-1.1.4-.8.8-.7.5-.6-.1-.5.5-.2.1-.3.3-.1.3-.4c0-.2-.4-.6.1-.4.6 0 .9.4 1.1.6l.5.3c.7 0 .8 0 1.1.3l.3.1h.1l.4.5.2.1 1 .1.2.2-.1.7-.3.4-.1.4v.3l.2.7-.2.8-.3 1.1v.5l.2.4v.1h-.3l-.3.2-.2-.1-.4.2h-.4c-.5.2-.7.4-.7.4h-.4c-.2.1.2 0-.1.1-.1.1-.4.3-.7.5l-.3.5v.1l.4.6.4.2.2.1h.3l.6.1 1.1.3c.3 1 1.4.5 1.8.5.7 0 1.6-.1 2.5-.5l.2-.2c.2-.3.3-.3.4-.3l2.8-.6c.7-.1 1.6-.1 1.6-1.1.1-.4-.5-1-1.6-1zm-6.2-8.3l-.4-.1c-.4-.1-.8-.2-.9-.2l-2.1-1.2-1.4-.4c.5-.4.5-.8.5-1.4l.3-.4c1.1-1.2 1.5-1.7 1.5-3v-.7l.1-.3c.1 0 .2-.1.2-.1.1 0 .4 0 .8.2.3.5.5.8 1 1v.1l.1.5-.3 1.2.1.6.3.3.3 1.4.5.4-.2 1.3.4.6c-.1.1-.6.3-.8.2zM200.5 39.5c-.1-.5-.6-1.1-1.3-1.1-.3 0-.5.1-.8.2l-.3.3-.3.5-.1.4v.5l-.1.9v1.4l-.2.5v.6l.1.4-.1.9-.2 1V46.6l-.1.2-.1.6c0 .1.1.2.1.3l-.5 1.1v.1c-.5.5-.6.7-.8 1.4l-.1.1c-.1.4-.2.5-.4 1l-.1.1c-.1.2-.1.3-.2.4-.1.2-.1.3-.2.4-.1.1-.1.3-.1.5v.6l-.3.7-.1.3v.7l-.1.5v.3l.2.8.2.4c.1 0 .2.2.5.3v.1c.4.1.5.1.9.1 1.5 0 1.9-.1 2.6-.9l.2-.1.1-.1.2-.2.1-.3h-.1l.2-.3c0-.4 0-.8-.1-1.1 0-.1-.1-.2-.1-.3l.3-.9.1-1.6v-.4l.1-.4.3-2.1c.1-.4.1-.6.1-.7v-.5l-.1-.6.1-1.5V45l.1-.2v-.7l.4-1.8.1-.3c.1-.2.1-.5.1-.6 0-.1 0-.3-.1-.5l-.1-1.4zM50.8 54.8l-1.2.1-.9-.2c-.2 0-.7-.1-.9-.2V52l-.3-1.1.2-1.7c0-.1-.1-.3-.2-.6l-.1-.2c-.1-.2-.1-.5-.1-1 0-1.7.2-2 .8-2.2l.2-.2.5-1.2v-.2l-.1-1.3s0-.3.2-.8c.1-.3.1-.5.1-.7 0-.4-.1-.7-.2-1.2l.1-.2-.2-.6.1-.5c.1-.2.1-.3.1-.5 0-.1 0-.3-.1-.4v-.2-.5l.5-3.8c0-.1.1-.2.1-.3 0-.4-.4-.8-.8-1l-.2-.1c-.1 0-.2-.1-.4-.1-.1 0-.2 0-.3.1l-1.3.5-.7.1-.2.1c-1.2 1-1.5 4.1-1.5 4.8 0 .4.1.7.2 1.1l.4.7.3 1.2h-.2l-2-.1-1.4.1-1.1-.2h-2.9l-1 .4-1.6.4-1.5.5-1.3-.1c-.1-.4-.2-.6-.2-.9v-.5l.2-.2.2-.9.5-.6c.1-.1.1-.2.2-.5l.1-.3c.2-.7.2-3.2.2-3.2 0-.1 0-.3-.7-1.4-.2-.4-.5-.6-.9-.8a2 2 0 0 0-.9-.2c-1 0-1.8.5-3.1 1.8-.2.2-.3.8-.5 2.5 0 .3 0 .5-.1.5l-.1.8-.2.9v1.1l-.3.9v.1c0 .2.3 1.4.6 2.3 0 .2.1.4.1.6 0 .2 0 .4-.1.6l-.2.8-.1 1.8v2l-.2.5v1.8c0 .1-.2.8-.3 1-.2.4-.2.9-.2 1.7-.2.2-.4.4-.4.8 0 .1 0 .3.1.4-.2.2-.4.5-.4.9 0 .3.1.6.2 1l.1.2c1.1.8 1.5 1 2.9 1.6l.3-.1c.5-.4.8-.7.9-1 .1-.1.1-.3.1-.5V56c0-.2 0-.4.1-.6l.3-.9.2-2.2.5-2.3.9-4.5c.1-.5.2-.6.2-.6.1-.1.3-.2 1-.5h.1c.2-.1.4-.1.5-.1l2.1.2 1.7-.2 3.7.1.7.2.1.5.3 1 .1 1.8c0 .1 0 .2.3.9.1.2.3.8.3 2.2v2.1l.2.9v.3c0 .8-.4.9-.5.9l-.8.2c-.5.2-.8.5-.9 1.2l.3.4 1.2.2 1.6.3h3.3l1.9-.5 1.9-.2c.4-.1.8-.5.8-1 .1-.5-.5-1-1-1zM200.9 31c-.5-.2-1-.3-1.5-.3-1.1 0-2.2.4-2.2 1.4v.5l-.1.3c-.1.1-.1.3-.1.5l.1.3c0 .1 0 .2.1.3v.2l-.3 1.3.4.8.6.2.1.1h.3l.6-.1.1-.1 2.2-.6.4-.3c.2-.3.3-.6.3-1 0-.1 0-.3-.1-.5l-.1-.3.1-.8v-.2l.1-.7c0-.4-.4-.8-1-1zM161 43l.2-.7-.1-.1v-.3c0-.3-.3-1-.7-1.8-.1-.2-.2-.4-.2-.8l.1-.1-.1-.2c-.3-1-.5-1.3-.9-1.8-.2-1.1-.4-1.6-1.1-2.2l-.9-.4c-.1-.1-.1-.2-.2-.3-.1-.2-.4-.5-.7-.9l-.1-.1h-.4l-1-.6-.1.1-.6-.2-.5-.3-1.4-.1h-1c-.6 0-1.4.2-2 .4-.4.2-.7.3-.9.4l-.5.3-.6.2-.6.5-.9.3c-.1 0-.3.1-.4.2-.1 0-.1.1-.2.2l-1.3 1.3-.4.7c-.1.1-.3.2-.5.3l-.4.3-.3.9-1.6 1.4c-.8.8-.8 2.8-.7 4l-.4 1-.5.6.1.1c-.1.1-.1.2-.1.3 0 .3 0 1 .2 1.9v.8l-.2.1v.2c0 1.1 0 1.3.3 2-.1 1.2-.1 1.6.3 2.4 0 .1.1.1.1.1l.6.5c0 .1.1.2.1.3.1.3.2.6.4 1.1l.1.2.4.1.7.8.2-.1.5.3.4.4 1.3.5.9.2c.3.1.7.1 1.1.1h.9c.5 0 .8-.1 1-.2l.6-.2h.6l.8-.3.9-.1c.1 0 .3 0 .4-.1.1 0 .1-.1.2-.1l1.7-1 .8-.8.8-.5.8-.2 2.2-1.1.6-.3.1-.1c.1 0 .1-.1.2-.1.2-.1.4-.4.6-.7.1-.1.2-.3.4-.5l.3-.4v-1.5l.3-1.4v-.3l.2-.1.1-.5-.1-.9.3-.2-.2-2.9zm-3.7 5.2l-1.7 1.4v.1c-.1.3-.3.7-.6 1.1l-.8.8c-.2.3-.3.5-.3.5l-.8.5c-.2.1-.5.3-1.1.9-.4.4-.6.5-1.3.8l-.3-.1-.1.1-.6-.1-1 .3-1.2-.3h-1l-1.4-.8-.7-.4-.7-1.2-.2-.6-.3-.5-.1-1.4-.2-.6.1-.3-.1-1.1-.1-.1c0-.1.1-.1.3-.2l.2-.1v-1.1l.8-2.6c.7-.6.9-1 1.1-2.3v-.1h.1l.2-.5.4-.2.3-.4c.2-.2.3-.3.5-.4.3-.1.3-.3.3-.5s-.2-.3-.3-.3l2.5-1.5.9-.7h.7l.5-.2c.2-.1.2-.1.4 0l1.6.4.8.2 1.1 1 .4.6.4.4.5 1.3.4.6v.3l.4 1.1s.1.2 0 .3l-.1.1.3 1v2.7c-.4.5-.4.9-.2 2.1z"/>
        <path fill="#fff" d="M152.6 45.8l.1-.8v-.2l.1-.7c0-.5-.4-.9-1-1.1-.5-.2-1-.3-1.5-.3-1.1 0-2.2.4-2.2 1.3v.5l-.1.3c-.1.1-.1.3-.1.4l.1.3c0 .1 0 .2.1.3v.2l-.3 1.2.4.7.6.2.1.1h.3l.6-.1.1-.1 2.2-.5.4-.3c.2-.3.3-.5.3-.9 0-.1 0-.3-.1-.5h-.1z"/>
    </symbol>

    <symbol id="account" viewBox="0 0 27 27">
        <path fill="currentColor" fill-rule="evenodd" d="M13.5 13.5a3.8 3.8 0 1 1 0-7.6 3.8 3.8 0 0 1 0 7.6m9.1 8.4c-.3-3.8-3-7-6.6-8a4.9 4.9 0 1 0-5 0 9.2 9.2 0 0 0-6.6 8 12.4 12.4 0 0 1 9.1-20.8 12.4 12.4 0 0 1 9.1 20.8m-17.2 1v-.2a8.1 8.1 0 1 1 16.2.2 12.4 12.4 0 0 1-16.2 0M13.5 0a13.5 13.5 0 1 0 0 27 13.5 13.5 0 0 0 0-27"/>
    </symbol>

    <symbol id="close" viewBox="0 0 16 16">
        <path fill="currentColor" fill-rule="nonzero" d="M13.8 1a.9.9 0 0 1 1.3 1.2L9.2 8l5.9 5.8a.9.9 0 0 1-1.3 1.3L8 9.2l-5.8 5.9a.9.9 0 0 1-1.3-1.3L6.8 8 .9 2.2A.9.9 0 0 1 2.2.9L8 6.8 13.8.9z"/>
    </symbol>

    <symbol id="long-arrow-right" viewBox="0 0 18 13">
        <g fill="currentColor" fill-rule="nonzero" stroke="currentColor">
            <path d="M12.613218 11.562634l4.675-4.710417c.194524-.195998.19333-.512578-.002668-.707102-.195998-.194524-.512578-.193329-.707102.002669l-4.675 4.710416c-.194524.195998-.19333.512578.002668.707102.195998.194524.512578.19333.707102-.002668z"/>
            <path d="M17.288218 6.147784l-4.675-4.710417c-.194524-.195998-.511104-.197192-.707102-.002668-.195997.194524-.197192.511104-.002668.707101l4.675 4.710417c.194524.195998.511104.197192.707102.002668.195997-.194524.197192-.511104.002668-.707101z"/>
            <path d="M1.791667 7H16.12936c.276142 0 .5-.223858.5-.5s-.223858-.5-.5-.5H1.791667c-.276143 0-.5.223858-.5.5s.223857.5.5.5z"/>
        </g>
    </symbol>

    <symbol id="arrow-down" viewBox="0 0 18 10">
        <g fill="currentColor" fill-rule="nonzero">
            <path d="M.1 1.4l8.5 8.5a.5.5 0 0 0 .8-.8L.9.6a.5.5 0 0 0-.8.8z"/>
            <path d="M9.4 9.9l8.5-8.5a.5.5 0 0 0-.8-.8L8.6 9.1a.5.5 0 1 0 .8.8z"/>
        </g>
    </symbol>

    <symbol id="marker" viewBox="0 0 14 20">
        <path fill="currentColor" fill-rule="nonzero" d="M7 19.3h-.2l-.2-.1C2.6 15 .7 11.7.7 7 .7 3.6 3.5.7 7 .7s6.3 2.9 6.3 6.4c0 4.6-1.9 8-5.9 12l-.2.2H7zm0-9.6c1.5 0 2.7-1.2 2.7-2.7 0-1.5-1.2-2.7-2.7-2.7A2.7 2.7 0 0 0 4.3 7c0 1.5 1.2 2.7 2.7 2.7z"/>
    </symbol>

    <symbol id="burger-menu" viewBox="0 0 19 15">
        <path fill="currentColor" fill-rule="evenodd" stroke="currentColor" stroke-width=".5" d="M1.5 1h16.1a.5.5 0 1 1 0 1H1.5a.5.5 0 1 1 0-1zm0 6h16.1a.5.5 0 1 1 0 1H1.5a.5.5 0 1 1 0-1zm0 6h16.1a.5.5 0 1 1 0 1H1.5a.5.5 0 1 1 0-1z"/>
    </symbol>

    <symbol id="envelope" viewBox="0 0 26 16.9">
        <path fill="currentColor" d="M1.2 15.7V2.3l10.5 7.5c.3.2.8.4 1.3.4s1-.1 1.3-.4l10.5-7.5v13.5H1.2zm23-14.5L13.6 8.8c-.3.2-.9.2-1.3 0L1.8 1.2h22.4zm.6-1.2H1.2C.5 0 0 .5 0 1.2v14.5c0 .7.5 1.2 1.2 1.2h23.6c.7 0 1.2-.5 1.2-1.2V1.2c0-.7-.5-1.2-1.2-1.2z"/>
    </symbol>

    <symbol id="leaf" viewBox="0 0 31 35">
        <path fill="currentColor" fill-rule="evenodd" d="M29.8 11.6c-1.2-1.1-7 1-7 1C22.4 4.2 15 0 15 0S7.7 4.3 7.5 12.5c0 0-5.9-2-7-.9-1.3 1.2 0 14 5 14 0 0-2.3.7-2.4 2.6-.1 1.9 6.8 2.8 8.6 1 1-1 2.5-1.6 3.2-2-.3 3.6.9 6.6 2.4 7.4l1-1.1s-2.6-1.2-2.4-6.2c.7.3 1.7.9 2.7 1.9 1.7 1.8 8.6.9 8.5-1-.1-1.9-2.4-2.5-2.4-2.5 5 0 6.3-13 5-14z"/>
    </symbol>

    <symbol id="girl" viewBox="0 0 90 74">
        <g fill="currentColor" fill-rule="evenodd" stroke="currentColor" stroke-width=".1">
            <path d="M50.633 38.772s-.194.094-.481.25l-.696.304c-.174.065-.362.135-.524.192-.103.028-.209.06-.317.092-.173.053-.355.109-.591.155-.305.079-.63.132-1.006.188-.188.04-.382.051-.576.066a8.033 8.033 0 0 0-.45.041c-.232.018-.483.022-.73.026l-.364.01-.42-.012c-.24-.006-.477-.011-.688-.031-.153-.02-.305-.033-.456-.046-.206-.018-.411-.033-.639-.082l-1.011-.204c-.186-.038-.36-.095-.527-.148a5.536 5.536 0 0 0-.286-.087l-.71-.262-.53-.242c-.324-.176-.517-.27-.517-.27a.677.677 0 0 0-.59 1.217c.008.005.18.09.508.265l1.427.58c.094.026.19.057.29.088.21.068.43.137.648.18l1.042.21c.252.055.514.08.779.102.131.012.265.023.42.043.266.025.536.032.807.038l.446.013.394-.009c.273-.004.552-.01.845-.034.135-.018.273-.027.408-.038.255-.019.507-.04.714-.084.358-.053.741-.115 1.064-.2.244-.046.47-.114.688-.18.094-.029.186-.057.319-.094.217-.074.417-.149.604-.218l.828-.362c.282-.153.456-.237.463-.24a.676.676 0 0 0-.585-1.216zM37.71 28.97c-.417-.21-.983.036-1.167.448-.373.834-.424 3.016.946 2.929 1.035-.065 1.079-1.548.901-2.286-.094-.4-.288-.893-.68-1.09zM51.024 32.347c1.37.068 1.288-2.113.905-2.942-.19-.408-.761-.646-1.176-.431-.389.203-.575.698-.664 1.1-.165.74-.102 2.222.935 2.273zM43.174 37.428c.057.02.36.123.844.123.44 0 1.03-.084 1.722-.392.995-.444 1.476-1.347 1.194-2.243-.215-.694-.539-1.072-.824-1.406-.413-.483-.804-.938-.838-2.857a.677.677 0 0 0-.675-.665h-.013a.676.676 0 0 0-.662.689c.04 2.229.528 2.972 1.163 3.714.239.279.428.5.56.928.107.34-.396.576-.453.602-.93.413-1.52.244-1.563.232a.671.671 0 0 0-.855.404c-.128.352.05.74.4.87z"/>
            <path fill-rule="nonzero"
                  d="M87.916 6.693l-.053-.043c.09-.096.15-.198.19-.292.139-.32.182-.85-.4-1.56-.515-.63-1.474-1.344-2.45-1.725-.104-.32-.411-.706-1.202-1.014-.769-.3-1.462-.305-2.13-.187a.672.672 0 0 0-.122-.083C79.173.413 72.68 6.813 70.652 9.005a2.98 2.98 0 0 0-3.704-.459c-.22.136-.415.28-.59.456-.645-.69-1.326-1.336-2.066-1.887l-.363-.272c-2.664-1.988-5.42-4.044-8.627-5.03-6.168-1.895-12.734-1.856-18.484.111-.6.206-1.165.526-1.62.784-.168.094-.31.173-.436.238-4.363.803-8.131 2.91-11.082 6.126a3.029 3.029 0 0 0-.627-.525 2.977 2.977 0 0 0-3.703.46C17.321 6.812 10.835.41 8.253 1.79a.672.672 0 0 0-.121.083c-.67-.119-1.362-.113-2.13.187-.791.308-1.099.695-1.203 1.014-.976.38-1.934 1.095-2.45 1.724-.582.711-.54 1.241-.4 1.56.04.094.1.196.19.293l-.054.043C1.467 7.195.622 7.881.841 9.213c.118.705.678 1.276 1.127 1.734.06.061.118.12.173.18-.193 1.054-.104 1.811.28 2.421.567.903 1.698 1.266 2.837 1.524 1.245.282 7.594.876 10.04.964a2.99 2.99 0 0 0 1.386 2.825c.46.285.981.431 1.507.443-1.231 4.536-1.39 9.533-.361 14.352.082.39.17.776.265 1.16.049.205.192.358.369.443a3.82 3.82 0 0 0-.38 1.122c-.332 1.983.857 4.042 3.178 5.507 1.406.898 2.84.734 3.791.626.213-.024.485-.054.637-.052 2.694 3.868 4.274 5.22 6.23 6.35 3.544 2.047 7.873 2.537 9.383 2.649.052.736.01 2.276-.078 3.66a6.894 6.894 0 0 1-.492.35 5.825 5.825 0 0 1-.341-.422.677.677 0 0 0-.76-.274c-2.54.776-3.923 1.549-4.109 2.3-.01.038-.009.076-.014.114-1.556.989-3.842 2.868-4.482 5.712-.978 4.324-.544 9.83-.525 10.061.028.351.32.622.672.622H58.07c.352 0 .644-.27.672-.622.019-.232.453-5.737-.524-10.06-.643-2.845-2.927-4.724-4.483-5.712-.004-.039-.003-.076-.013-.115-.186-.751-1.57-1.524-4.11-2.3a.68.68 0 0 0-.76.272c-.002.004-.067.094-.163.214a12.506 12.506 0 0 1-.683-.394c-.096-1.694-.102-2.846-.066-3.406 1.509-.112 5.839-.602 9.386-2.65 1.956-1.128 3.536-2.48 6.23-6.349.154 0 .426.028.636.052.95.11 2.385.272 3.79-.625 3.062-1.934 3.582-4.39 3.048-6.046a3.859 3.859 0 0 0-.551-1.055c2.014-4.75 2.28-10.377 1.097-15.496.057.003.113.017.17.017a2.98 2.98 0 0 0 1.572-.447 2.99 2.99 0 0 0 1.386-2.825c2.447-.09 8.794-.682 10.04-.964 1.14-.259 2.27-.621 2.838-1.524.383-.61.471-1.366.279-2.422l.172-.179c.45-.458 1.01-1.03 1.13-1.738.217-1.33-.63-2.016-1.246-2.517zM3.561 12.825c-.215-.342-.226-.898-.032-1.748a.678.678 0 0 0-.137-.58 7.926 7.926 0 0 0-.462-.499c-.317-.324-.712-.726-.76-1.01-.083-.506.131-.73.763-1.242.319-.26.681-.553.943-.95a.678.678 0 0 0-.554-1.053c.167-.227.516-.578 1.064-.933.427-.276.82-.457 1.142-.558.274.055.619.035 1.047-.106a.679.679 0 0 0 .386-.957c.615-.104 1.2.05 1.868.26a.675.675 0 0 0 .84-.46c2.164.625 7.039 4.944 8.899 7.14l-2.817 4.562c-1.827-.015-8.942-.658-10.195-.941-1.156-.262-1.752-.538-1.995-.925zm13.832 4.884a1.642 1.642 0 0 1-.528-2.254l3.23-5.228a1.632 1.632 0 0 1 2.247-.53c.17.106.308.249.428.407a22.363 22.363 0 0 0-1.144 1.544c-1.27 1.894-2.28 4.008-3.018 6.26-.413.09-.85.027-1.215-.2zm22.188 38.5c.541.651 1.748 1.858 3.44 2.125l.697 2.68c-1.328-.258-3.939-1.086-6.691-3.716.462-.297 1.477-.732 2.554-1.089zm5.041 6.278c.14.001 2.87-.032 6.256-2.358v12.1H38.364V60.125c3.388 2.325 6.12 2.35 6.258 2.362zm-12.279.71c.531-2.355 2.485-3.97 3.848-4.842.277.262.55.507.823.737v13.137h-5.207c-.083-1.556-.212-5.726.536-9.031zm24.559 0c.745 3.301.617 7.475.534 9.03H52.23V59.094c.273-.23.548-.475.825-.737 1.36.87 3.315 2.485 3.848 4.842zm-7.24-6.988c1.076.358 2.093.792 2.554 1.089-2.753 2.631-5.364 3.458-6.69 3.717l.694-2.681c1.692-.267 2.9-1.474 3.441-2.125zm17.597-15.466c-1.007.642-2.066.521-2.914.424-.732-.083-1.424-.162-1.82.41-2.598 3.743-4.068 5.018-5.873 6.06-3.98 2.298-9.244 2.499-9.297 2.5a.673.673 0 0 0-.586.383c-.092.193-.336.703-.093 4.698.018.287.096.507.995 1.023-.533.4-1.214.758-2.01.79a.675.675 0 0 0-.627.506l-.41 1.584-.412-1.585a.676.676 0 0 0-.627-.506c-.698-.027-1.313-.304-1.812-.641.18-.13.36-.26.54-.413a.68.68 0 0 0 .24-.471c.109-1.576.244-4.32-.074-4.984a.677.677 0 0 0-.587-.384c-.053-.002-5.316-.203-9.297-2.5-1.805-1.042-3.276-2.317-5.872-6.06-.397-.573-1.088-.494-1.82-.41-.85.097-1.908.218-2.917-.425-1.848-1.166-2.807-2.713-2.568-4.138.17-1.01.96-1.808 2.143-2.203.068.283.134.548.194.763.268.963.633 1.414 1.148 1.414h.014c.3-.004.696-.165.88-.906.375-1.523.486-3.063.592-4.552.06-.836.123-1.7.231-2.534a.664.664 0 0 0-.092-.415c.167-1.11.407-2.049.76-2.905 1.112-2.722 2.14-4.811 2.97-6.041a41.957 41.957 0 0 1 4.033-5.082c.22 1.064.77 2.2 1.63 3.36 1.973 2.657 5.285 4.966 7.54 5.257a.678.678 0 0 0 .7-.953c-.185-.404-.457-.848-.78-1.337 2.089 1.57 4.586 2.954 7.39 3.412a8.239 8.239 0 0 0-2.674 4.987c-.507-.358-1.047-.569-1.623-.586-1.077-.043-2.004.54-2.56 1.002-.377-3.84-3.615-6.85-7.542-6.85-4.18 0-7.58 3.409-7.58 7.6 0 4.19 3.4 7.6 7.58 7.6 4.148 0 7.525-3.36 7.575-7.509.325-.327 1.331-1.233 2.51-1.195.554.017 1.078.253 1.569.684-.007.14-.02.277-.02.418 0 4.548 3.69 8.25 8.226 8.25 4.535 0 8.225-3.702 8.225-8.25a8.204 8.204 0 0 0-1.132-4.156c.078.03.156.065.234.092 1.85.648 1.85.743 1.85 2.317 0 .22.012.58.028 1.024.042 1.147.168 4.637-.169 5.174a.68.68 0 0 0 .456 1.177.67.67 0 0 0 .455-.178c.17-.153.338-.288.502-.417.34-.269.686-.548.959-.93 1.582-.036 2.85.4 3.573 1.204.004.006.008.013.013.018.234.265.415.564.524.902.477 1.492-.474 3.21-2.491 4.483zm-13.03-17.605c3.79 0 6.875 3.092 6.875 6.894s-3.085 6.896-6.875 6.896c-3.792 0-6.877-3.094-6.877-6.896s3.085-6.894 6.877-6.894zm-13.63 6.894c0 3.445-2.795 6.247-6.23 6.247-3.436 0-6.23-2.802-6.23-6.247 0-3.443 2.794-6.246 6.23-6.246 3.435 0 6.23 2.803 6.23 6.246zm28.831 3.734c-1.06-.724-2.517-1.089-4.22-.979-.007 0-.012.005-.018.006a.662.662 0 0 0-.227.061c-.017.008-.03.02-.047.03-.034.02-.071.038-.102.065.038-.909.025-2.106-.032-3.687a30.647 30.647 0 0 1-.028-.976c0-2.1-.324-2.743-2.754-3.594a16.393 16.393 0 0 1-2.15-.942.648.648 0 0 0-.372-.06 8.235 8.235 0 0 0-2.512-1.424.646.646 0 0 0-.254-.267c-1.675-.913-5.384-3.62-7.327-5.479a.672.672 0 0 0-.907-.023.679.679 0 0 0-.112.902c.84 1.2 2.576 3.273 3.868 4.643a8.195 8.195 0 0 0-1.883.721.651.651 0 0 0-.29-.094c-4.706-.294-8.668-3.693-11.237-6.224a.674.674 0 0 0-1.083.773c.515 1.089 1.265 2.18 1.927 3.143.13.188.256.373.378.552-1.723-.808-3.73-2.445-5.045-4.218-1.11-1.495-1.62-2.94-1.436-4.067a.674.674 0 1 0-1.148-.582c-2.145 2.2-3.723 4.121-5.28 6.42-1.115 1.651-2.303 4.331-3.102 6.289-.44 1.075-.732 2.237-.914 3.66a.67.67 0 0 0 .109.448c-.081.725-.14 1.454-.191 2.162-.064.892-.13 1.804-.253 2.705a1.764 1.764 0 0 1-.022-.1.671.671 0 0 0-.468-.49.662.662 0 0 0-.61-.18c-.95.222-1.748.636-2.36 1.191-.059-.257-.121-.513-.176-.774-1.057-4.954-.801-10.092.623-14.664.003-.006.003-.013.005-.019.708-2.266 1.698-4.395 2.968-6.288 2.967-4.421 7.245-7.241 12.375-8.155.031-.005.055-.023.084-.033.03-.009.061-.009.091-.023.158-.075.351-.185.567-.306.406-.23.913-.517 1.392-.682C42.741 1.33 49.011 1.296 54.91 3.11c2.984.917 5.644 2.902 8.215 4.822l.365.271c6.747 5.033 9.397 16.766 5.94 25.563zm3.177-16.057c-.42.26-.934.306-1.397.145-.85-2.93-2.198-5.621-3.96-7.822.092-.113.21-.21.408-.334a1.632 1.632 0 0 1 2.248.53l3.229 5.226a1.645 1.645 0 0 1-.528 2.255zM87.83 8.985c-.049.286-.443.69-.76 1.013-.17.174-.333.341-.462.498a.678.678 0 0 0-.137.58c.194.85.183 1.407-.032 1.749-.243.387-.84.663-1.993.925-1.254.284-8.355.942-10.194.943l-2.818-4.563c1.857-2.194 6.723-6.505 8.89-7.138a.674.674 0 0 0 .848.458c.669-.211 1.253-.366 1.868-.26a.677.677 0 0 0 .385.956c.43.141.775.161 1.048.106.321.101.715.282 1.142.558.547.355.897.706 1.064.933l-.034.003a.676.676 0 0 0-.52 1.05c.261.396.623.69.943.95.63.511.845.736.762 1.239z"/>
        </g>
    </symbol>

    <symbol id="heart" viewBox="0 0 20 18">
        <path fill="currentColor" fill-rule="evenodd" d="M10 15.847c-1.365-.807-8-4.984-8-9.922C2 3.75 3.785 1.988 5.987 1.988c1.51 0 2.891.843 3.566 2.178a.503.503 0 0 0 .894 0c.984-1.945 3.378-2.735 5.348-1.763A3.933 3.933 0 0 1 18 5.925c0 4.932-6.636 9.114-8 9.922M14.014 1A4.977 4.977 0 0 0 10 3C8.364.813 5.241.349 3.025 1.964A4.906 4.906 0 0 0 1 5.925c0 6.05 8.4 10.73 8.757 10.925a.506.506 0 0 0 .486 0C10.6 16.654 19 11.976 19 5.925 18.997 3.206 16.766 1.003 14.014 1"/>
    </symbol>

    <symbol id="track-arrow" viewBox="0 0 61 60">
        <g fill="none" fill-rule="nonzero" stroke="currentColor" stroke-linecap="round" stroke-linejoin="round" stroke-width="2">
            <path d="M28 20l-9 9.52L28 38"/>
            <path d="M19 29.52l22.5.759V58C15.167 61.333 1.667 51.384 1 28.151 2-4 53-9 60 22.15"/>
        </g>
    </symbol>

    <symbol id="secure-payment" viewBox="0 0 82 52">
        <g fill="currentColor" fill-rule="evenodd">
            <path fill-rule="nonzero" d="M79.53 33.69h-.21v-4a7.79 7.79 0 0 0-2-5.17V2.77A2.38 2.38 0 0 0 75 .4H3A2.38 2.38 0 0 0 .6 2.77v42A2.38 2.38 0 0 0 3 47.15h58.57v2.58a1.88 1.88 0 0 0 1.88 1.88h16.08a1.88 1.88 0 0 0 1.88-1.87V35.56a1.88 1.88 0 0 0-1.88-1.87zm-2 0H65.4v-4a6.07 6.07 0 0 1 9.33-5.14l.16.1.17.13.32.24.1.09.35.33a6.06 6.06 0 0 1 1.74 4.25l-.04 4zM2.35 11.4H75.6v6.75H2.35V11.4zM3 2.15h72a.63.63 0 0 1 .63.63v6.88H2.35V2.77A.63.63 0 0 1 3 2.15zM3 45.4a.63.63 0 0 1-.62-.62V19.9H75.6V23l-.16-.09c-.19-.11-.39-.22-.59-.31l-.27-.13a7.78 7.78 0 0 0-.84-.31l-.3-.08a2.96 2.96 0 0 0-.68-.08h-.3a7.79 7.79 0 0 0-8.81 7.77v4h-.21a1.88 1.88 0 0 0-1.87 1.88v9.75H3zm76.68 4.33a.12.12 0 0 1-.12.13H63.44a.12.12 0 0 1-.12-.12V35.56a.12.12 0 0 1 .13-.12h16.08a.12.12 0 0 1 .13.13l.02 14.16z"/>
            <path d="M71.48 39.42a.87.87 0 0 0-.87.88V45a.88.88 0 0 0 1.75 0v-4.71a.87.87 0 0 0-.88-.87z"/>
            <path fill-rule="nonzero" d="M21 33.58a5.31 5.31 0 0 0-5.89-.3 1.06 1.06 0 0 1-1.1 0 5.32 5.32 0 0 0-5.89.3 2.81 2.81 0 0 0-.77.77A5.41 5.41 0 0 0 6.94 40a5.06 5.06 0 0 0 4.47 2.68 5 5 0 0 0 2.64-.76 1 1 0 0 1 1.09 0 5 5 0 0 0 2.64.76A5.06 5.06 0 0 0 22.26 40a5.41 5.41 0 0 0-.45-5.62 2.84 2.84 0 0 0-.81-.8zm-.33 5.56a3.31 3.31 0 0 1-2.93 1.76 3.24 3.24 0 0 1-1.72-.49 2.79 2.79 0 0 0-2.94 0 3.24 3.24 0 0 1-1.72.49 3.31 3.31 0 0 1-2.92-1.76 3.65 3.65 0 0 1 .36-3.82 1.12 1.12 0 0 1 .29-.29 3.57 3.57 0 0 1 4-.27 2.81 2.81 0 0 0 2.95 0 3.56 3.56 0 0 1 4 .27c.114.077.213.176.29.29a3.65 3.65 0 0 1 .38 3.82h-.04z"/>
            <path d="M58.91 25.52h-15.2a.88.88 0 0 0 0 1.75h15.2a.88.88 0 0 0 0-1.75z"/>
        </g>
    </symbol>

    <symbol id="flexible-calendar" viewBox="0 0 60 60">
        <g fill="currentColor" fill-rule="evenodd">
            <path fill-rule="nonzero" d="M55 8h-5V4c0-2.206-1.794-4-4-4s-4 1.794-4 4v4H18V4c0-2.206-1.794-4-4-4s-4 1.794-4 4v4H5c-2.757 0-5 2.243-5 5v42c0 2.757 2.243 5 5 5h50c2.757 0 5-2.243 5-5V13c0-2.757-2.243-5-5-5zM44 4c0-1.103.897-2 2-2s2 .897 2 2v8c0 1.103-.897 2-2 2s-2-.897-2-2V4zM12 4c0-1.103.897-2 2-2s2 .897 2 2v8c0 1.103-.897 2-2 2s-2-.897-2-2V4zm-7 6h5v2c0 2.206 1.794 4 4 4s4-1.794 4-4v-2h24v2c0 2.206 1.794 4 4 4s4-1.794 4-4v-2h5c1.654 0 3 1.346 3 3v7H2v-7c0-1.654 1.346-3 3-3zm50 48H5c-1.654 0-3-1.346-3-3V22h56v33c0 1.654-1.346 3-3 3z"/>
            <path d="M29 54c-6.398 0-11.927-4.391-13.516-10.451l4.2 1.4.633-1.897-6-2a.998.998 0 0 0-1.023.242l-4 4 1.414 1.414 2.802-2.802C15.273 50.91 21.634 56 29 56c7.976 0 14.786-5.962 15.843-13.868l-1.982-.265C41.936 48.784 35.978 54 29 54zM44.491 36.095C42.727 29.09 36.366 24 29 24c-7.976 0-14.786 5.962-15.843 13.868l1.982.265C16.064 31.216 22.022 26 29 26c6.398 0 11.927 4.391 13.516 10.451l-4.2-1.4-.633 1.897 6 2a.998.998 0 0 0 1.024-.241l4-4-1.414-1.414-2.802 2.802z"/>
            <path d="M28.707 44.707l7-7-1.414-1.414L28 42.586l-2.293-2.293-1.414 1.414 3 3a.997.997 0 0 0 1.414 0z"/>
        </g>
    </symbol>

    <symbol id="facebook" viewBox="0 0 38 38">
        <g fill="none" fill-rule="evenodd">
            <circle cx="19" cy="19" r="19" fill="currentColor" fill-rule="nonzero"/>
            <path fill="#FFF" d="M16.93 30h3.86V20h2.86l.35-4h-3.07v-1.6c0-.78.5-.96.86-.96h2.16v-3.43L20.97 10c-3.3 0-4.06 2.56-4.06 4.2V16H15v4h1.93v10"/>
        </g>
    </symbol>

    <symbol id="twitter" viewBox="0 0 38 38">
        <g fill="none" fill-rule="evenodd" transform="translate(-42)">
            <circle cx="61" cy="19" r="19" fill="currentColor" fill-rule="nonzero"/>
            <path fill="#FFF" d="M70.45 12.3c-.8.46-1.67.8-2.6.98a4.12 4.12 0 0 0-7.1 2.76c0 .32.03.62.1.92a11.71 11.71 0 0 1-8.46-4.22 3.98 3.98 0 0 0 1.27 5.4c-.67-.03-1.3-.21-1.86-.51v.05a4.06 4.06 0 0 0 3.3 3.96 4.18 4.18 0 0 1-1.86.07 4.1 4.1 0 0 0 3.84 2.8A8.32 8.32 0 0 1 51 26.2 11.76 11.76 0 0 0 57.29 28a11.5 11.5 0 0 0 11.66-12.01c.8-.57 1.5-1.29 2.05-2.1-.74.33-1.53.54-2.36.64.85-.5 1.5-1.3 1.8-2.23"/>
        </g>
    </symbol>

    <symbol id="youtube" viewBox="0 0 38 38">
        <g fill="none" fill-rule="evenodd" transform="translate(-86)">
            <circle cx="105" cy="19" r="19" fill="currentColor" fill-rule="nonzero"/>
            <path fill="#FFF" d="M103 22.71V16.9l5.2 2.91-5.2 2.91zm11.58-7.59c-.23-.83-.9-1.49-1.77-1.72-1.55-.4-7.81-.4-7.81-.4s-6.25 0-7.81.4c-.86.23-1.54.89-1.77 1.72C95 16.64 95 19.8 95 19.8s0 3.16.42 4.68c.23.83.9 1.49 1.77 1.72 1.56.4 7.81.4 7.81.4s6.26 0 7.81-.4a2.47 2.47 0 0 0 1.77-1.72c.42-1.52.42-4.68.42-4.68s0-3.16-.42-4.68z"/>
        </g>
    </symbol>

    <symbol id="instagram" viewBox="0 0 38 38">
        <g fill="none" fill-rule="evenodd" transform="translate(-129)">
            <circle cx="148" cy="19" r="19" fill="currentColor" fill-rule="nonzero"/>
            <path fill="#FFF" d="M156.06 26.14c0 1.05-.86 1.91-1.92 1.91h-12.28a1.92 1.92 0 0 1-1.92-1.91v-8.2h3a5.47 5.47 0 1 0 10.13 0h2.99v8.2zm-10.91-8.2a3.51 3.51 0 1 1 5.7 4.1 3.51 3.51 0 0 1-5.7-4.1zm10.1-5.63h.43v3.38l-3.37.01-.01-3.38 2.94-.01zM154.13 10h-12.28a3.87 3.87 0 0 0-3.86 3.86v12.28a3.87 3.87 0 0 0 3.86 3.86h12.28a3.87 3.87 0 0 0 3.86-3.86V13.86a3.87 3.87 0 0 0-3.86-3.86z"/>
        </g>
    </symbol>

    <symbol id="pinterest" viewBox="0 0 38 38">
        <g fill="none" fill-rule="evenodd" transform="translate(-171)">
            <circle cx="190" cy="19" r="19" fill="currentColor" fill-rule="nonzero"/>
            <path fill="#FFF" d="M188.4 23.23c-.53 2.75-1.17 5.4-3.07 6.77-.59-4.16.86-7.29 1.53-10.6-1.14-1.93.14-5.82 2.56-4.86 2.97 1.18-2.58 7.17 1.15 7.92 3.89.78 5.48-6.75 3.07-9.2-3.49-3.53-10.15-.08-9.33 4.98.2 1.24 1.48 1.62.5 3.33-2.22-.5-2.89-2.26-2.8-4.6.14-3.84 3.45-6.53 6.77-6.9 4.2-.47 8.14 1.54 8.69 5.5.61 4.45-1.9 9.28-6.4 8.93-1.2-.09-1.72-.7-2.67-1.27"/>
        </g>
    </symbol>

    <symbol id="phone" viewBox="0 0 23 23">
        <path fill="currentColor" fill-rule="nonzero"
              d="M4.66 15.29a24.48 24.48 0 0 0 8.15 6.36c1.19.56 2.78 1.23 4.56 1.34l.32.01a3.78 3.78 0 0 0 2.95-1.28c.28-.33.6-.63.92-.95.23-.21.46-.44.68-.67 1.02-1.06 1.02-2.4-.01-3.42l-2.88-2.87a2.33 2.33 0 0 0-1.68-.77c-.61 0-1.2.27-1.7.77l-1.72 1.7-.47-.24c-.2-.1-.37-.2-.53-.3a18.1 18.1 0 0 1-4.33-3.92 10.4 10.4 0 0 1-1.46-2.32c.45-.4.87-.83 1.28-1.25l.44-.44c.51-.52.8-1.11.8-1.72 0-.6-.28-1.2-.8-1.71L7.75 2.19l-.49-.5A26.2 26.2 0 0 0 6.3.73 2.39 2.39 0 0 0 4.61 0C4 0 3.4.25 2.9.74L1.1 2.52A3.66 3.66 0 0 0 .03 4.87a8.8 8.8 0 0 0 .67 3.8c.83 2.27 2.1 4.37 3.97 6.62zM1.3 5.03c.06-.62.3-1.15.76-1.6L3.8 1.68c.27-.27.58-.4.87-.4.29 0 .58.13.85.4.32.3.62.6.94.93l.5.5 1.4 1.4c.3.3.45.6.45.89 0 .29-.15.58-.45.88l-.44.44c-.44.44-.85.86-1.3 1.26l-.03.03c-.4.39-.33.76-.23 1.04l.01.04c.36.87.87 1.7 1.66 2.69a18.9 18.9 0 0 0 4.57 4.14c.2.13.42.23.62.34.2.1.37.18.52.28.02 0 .04.02.05.03a1 1 0 0 0 .46.12 1 1 0 0 0 .7-.33l1.78-1.76c.27-.27.57-.42.87-.42.36 0 .65.22.83.42l2.86 2.84c.57.56.56 1.18-.01 1.78l-.63.62c-.34.32-.68.65-1 1.02a2.6 2.6 0 0 1-2.27.85c-1.55-.1-3-.7-4.08-1.21a23.01 23.01 0 0 1-7.68-5.99 20.97 20.97 0 0 1-3.74-6.2 7.57 7.57 0 0 1-.6-3.28z"/>
    </symbol>

    <symbol id="envelope" viewBox="0 0 26 18">
        <path fill="currentColor" fill-rule="nonzero" d="M1.2 16.62V3.16l10.47 7.5c.37.27.85.4 1.33.4.48 0 .96-.13 1.33-.4l10.46-7.5v13.46H1.21zM24.19 2.11L13.63 9.68a1.2 1.2 0 0 1-1.26 0L1.82 2.11h22.36zm.6-1.21H1.22C.54.9 0 1.44 0 2.11v14.5c0 .68.54 1.22 1.21 1.22H24.8c.67 0 1.21-.54 1.21-1.21V2.12C26 1.43 25.46.9 24.79.9z"/>
    </symbol>

    <symbol id="help" viewBox="0 0 28 28">
        <g fill="none" fill-rule="evenodd">
            <circle cx="13" cy="14" r="13" fill-rule="nonzero" stroke="currentColor" transform="translate(1)"/>
            <path fill="currentColor" d="M13.7 15.55a.33.33 0 0 1-.33-.33v-.72c0-2.14 2.58-1.97 2.58-3.91 0-.81-.58-1.52-1.7-1.52-1.4 0-2.04.8-2.38 1.17-.16.16-.3.16-.45.02l-.33-.3c-.14-.12-.1-.3 0-.44 0 0 .98-1.52 3.16-1.52 1.79 0 3 1.05 3 2.64 0 2.26-2.73 2.45-2.73 3.86v.7c0 .25-.19.35-.36.35h-.47zm-.78 3.88c0-.55.45-.98.98-.98a.98.98 0 1 1-.98.98z"/>
        </g>
    </symbol>

</svg>
