<?xml version="1.0" encoding="utf-8"?>
<svg version="1.1" xmlns="http://www.w3.org/2000/svg" xmlns:xlink="http://www.w3.org/1999/xlink" x="0px" y="0px"
	 viewBox="0 0 512 512" style="enable-background:new 0 0 512 512;" xml:space="preserve">
	<style type="text/css">
		.st0{fill-rule:evenodd;clip-rule:evenodd;fill:#00523B;}
		.st1{fill-rule:evenodd;clip-rule:evenodd;fill:#FCFCFC;}
	</style>
	<g id="Calque_2">
		<rect class="st0" width="512" height="512"/>
	</g>
	<g id="Calque_1">
		<path class="st1" d="M420.2,29c53.1-0.4,11.1,61.7,18.5,97.8c1.8,8.6-2.5,17.4-1.1,26.1c2.2,6.9,4.3,13.8,6.5,20.6
			c3.3,14.9-4,24.9-4.3,36.9c0.4,8.7,0.7,17.4,1.1,26.1c-4.5,16-17.6,21.5-21.7,30.4c-8.9,19.2,1.2,41.8,4.3,56.5
			c2.7,12.7-5.9,83.1,4.3,91.3c22.1,9.6,63.5-6.8,65.2,25c-2.7,5.8-5.7,12.1-12,14.1c-26.7,8.6-148.5,18.5-169.5,1.1
			c-1.8-2.2-3.6-4.3-5.4-6.5c3.8-19.7,18.3-18.4,33.7-26.1c4.4-15.4,2.9-80.8-2.2-98.9c-2.5-6.2-5.1-12.3-7.6-18.5
			c-3.8-19,2.5-42.7-7.6-55.4c-5.7-7.2-28.9-1.7-40.2-3.3c-28.9-4.1-113.9-3.3-122.8,12c-7,8.9-5.8,26.5-8.7,39.1
			c-5.8,26.4-11.6,52.9-17.4,79.3c-5.8,29.4-2.8,52.3-10.9,79.3c-2.6,8.7-11.4,14-17.4,19.6c-19.8,0-52.2-15.8-58.7-29.3
			c-7.4-15.6,11.9-74.5,16.3-93.4c7.3-31.6,0.8-59.9,6.5-95.6c2.1-13.3,9.2-27.8,5.4-44.6c-2.8-12.2-15.2-27.4-10.9-44.6
			c3.5-13.7,8-37.3,10.9-52.2c3.5-18.2-0.2-42.2,8.7-55.4c24.1-35.8,85.1-45,95.6,9.8c9.8,51.1-28.2,75.9-19.6,117.4
			c35.2,1.5,59.9-10.5,88-19.6c42.4,0.7,84.8,1.4,127.1,2.2c0-0.4,0-0.7,0-1.1c-3.2-14.4-9.9-24.2-13-35.9
			c-7.5-27.9,5.8-71.3,17.4-86.9C387.4,34.9,408.9,37.7,420.2,29z"/>
	</g>
</svg>
