<?xml version="1.0" encoding="UTF-8"?>
<svg width="15px" height="21px" viewBox="0 0 15 21" version="1.1" xmlns="http://www.w3.org/2000/svg" xmlns:xlink="http://www.w3.org/1999/xlink">
    <!-- Generator: Sketch 55.2 (78181) - https://sketchapp.com -->
    <title>ico/white/arrow</title>
    <desc>Created with Sketch.</desc>
    <defs>
        <filter x="-4.1%" y="-1.3%" width="108.1%" height="102.6%" filterUnits="objectBoundingBox" id="filter-1">
            <feOffset dx="0" dy="2" in="SourceAlpha" result="shadowOffsetOuter1"></feOffset>
            <feGaussianBlur stdDeviation="2" in="shadowOffsetOuter1" result="shadowBlurOuter1"></feGaussianBlur>
            <feColorMatrix values="0 0 0 0 0   0 0 0 0 0   0 0 0 0 0  0 0 0 0.5 0" type="matrix" in="shadowBlurOuter1" result="shadowMatrixOuter1"></feColorMatrix>
            <feMerge>
                <feMergeNode in="shadowMatrixOuter1"></feMergeNode>
                <feMergeNode in="SourceGraphic"></feMergeNode>
            </feMerge>
        </filter>
    </defs>
    <g id="HC_01_HP" stroke="none" stroke-width="1" fill="none" fill-rule="evenodd">
        <g id="01_HP_S_CPT_menu_step1" transform="translate(-227.000000, -69.000000)" fill="#A07F52" fill-rule="nonzero">
            <g id="menu" filter="url(#filter-1)" transform="translate(-24.000000, 48.000000)">
                <g id="links">
                    <g id="ico/white/arrow" transform="translate(258.500000, 29.500000) scale(-1, -1) rotate(90.000000) translate(-258.500000, -29.500000) translate(251.000000, 25.000000)">
                        <g id="fleche" transform="translate(0.375000, 0.750000)">
                            <path d="M0.484834957,1.01516504 L6.85983496,7.39016504 C7.00628157,7.53661165 7.24371843,7.53661165 7.39016504,7.39016504 C7.53661165,7.24371843 7.53661165,7.00628157 7.39016504,6.85983496 L1.01516504,0.484834957 C0.868718434,0.338388348 0.631281566,0.338388348 0.484834957,0.484834957 C0.338388348,0.631281566 0.338388348,0.868718434 0.484834957,1.01516504 Z" id="Stroke-1"></path>
                            <path d="M7.39016504,7.39016504 L13.765165,1.01516504 C13.9116117,0.868718434 13.9116117,0.631281566 13.765165,0.484834957 C13.6187184,0.338388348 13.3812816,0.338388348 13.234835,0.484834957 L6.85983496,6.85983496 C6.71338835,7.00628157 6.71338835,7.24371843 6.85983496,7.39016504 C7.00628157,7.53661165 7.24371843,7.53661165 7.39016504,7.39016504 Z" id="Stroke-3"></path>
                        </g>
                    </g>
                </g>
            </g>
        </g>
    </g>
</svg>