<?xml version="1.0" encoding="UTF-8"?>
<svg width="36px" height="36px" viewBox="0 0 36 36" version="1.1" xmlns="http://www.w3.org/2000/svg" xmlns:xlink="http://www.w3.org/1999/xlink">
    <!-- Generator: Sketch 55.2 (78181) - https://sketchapp.com -->
    <title>Shape</title>
    <desc>Created with Sketch.</desc>
    <g id="Symbols" stroke="none" stroke-width="1" fill="none" fill-rule="evenodd">
        <g id="Shape" transform="translate(1.000000, 1.000000)">
            <path d="M16.2626977,8.02157353 C16.2626977,7.5358734 16.6564355,7.14213562 17.1421356,7.14213562 C17.6278358,7.14213562 18.0215735,7.5358734 18.0215735,8.02157353 L18.0215735,16.2626977 L26.2626977,16.2626977 C26.7483978,16.2626977 27.1421356,16.6564355 27.1421356,17.1421356 C27.1421356,17.6278358 26.7483978,18.0215735 26.2626977,18.0215735 L18.0215735,18.0215735 L18.0215735,26.2626977 C18.0215735,26.7483978 17.6278358,27.1421356 17.1421356,27.1421356 C16.6564355,27.1421356 16.2626977,26.7483978 16.2626977,26.2626977 L16.2626977,18.0215735 L8.02157353,18.0215735 C7.5358734,18.0215735 7.14213562,17.6278358 7.14213562,17.1421356 C7.14213562,16.6564355 7.5358734,16.2626977 8.02157353,16.2626977 L16.2626977,16.2626977 L16.2626977,8.02157353 Z" fill="#FFFFFF" fill-rule="nonzero" transform="translate(17.142136, 17.142136) rotate(45.000000) translate(-17.142136, -17.142136) "></path>
            <path d="M17,34 C28.3333333,28.9258938 34,23.2592272 34,17 C34,7.61115925 26.3888407,0 17,0 C7.61115925,0 0,7.61115925 0,17 C0,23.2592272 5.66666667,28.9258938 17,34 Z" id="Oval" stroke="#FFFFFF" stroke-width="1" opacity="0.798897879"></path>
        </g>
    </g>
</svg>