<?xml version="1.0" encoding="UTF-8"?>
<svg width="12px" height="8px" viewBox="0 0 12 8" version="1.1" xmlns="http://www.w3.org/2000/svg" xmlns:xlink="http://www.w3.org/1999/xlink">
    <!-- Generator: Sketch 55.2 (78181) - https://sketchapp.com -->
    <title>Group</title>
    <desc>Created with Sketch.</desc>
    <g id="HC_03_Entreprise" stroke="none" stroke-width="1" fill="none" fill-rule="evenodd">
        <g id="HC_03_Entreprise_V3" transform="translate(-1080.000000, -344.000000)" fill="#4A4A4A" fill-rule="nonzero" stroke="#4D4F56" stroke-width="0.5">
            <g id="VIDEO---V2" transform="translate(0.000000, 59.000000)">
                <g id="capsules-copy-2" transform="translate(731.000000, 208.000000)">
                    <g id="Group" transform="translate(349.300000, 77.000000)">
                        <g id="ico/arrow_white" transform="translate(9.072917, 4.625000) rotate(-90.000000) translate(-9.072917, -4.625000) translate(5.172917, 2.225000)">
                            <g id="fleche" transform="translate(0.540312, 0.180000)">
                                <path d="M0.421059133,0.812931017 L3.48282997,3.61793102 C3.6102284,3.73464537 3.81600555,3.73392858 3.9424461,3.61633003 C4.06888665,3.49873148 4.06811013,3.30878334 3.9407117,3.19206898 L0.878940867,0.387068983 C0.751542435,0.27035463 0.545765282,0.271071415 0.419324732,0.388669969 C0.292884182,0.506268522 0.2936607,0.696216663 0.421059133,0.812931017 Z" id="Stroke-1"></path>
                                <path d="M3.9407117,3.61793102 L7.00248253,0.812931017 C7.12988097,0.696216663 7.13065748,0.506268522 7.00421693,0.388669969 C6.87777638,0.271071415 6.67199923,0.27035463 6.5446008,0.387068983 L3.48282997,3.19206898 C3.35543153,3.30878334 3.35465502,3.49873148 3.48109557,3.61633003 C3.60753612,3.73392858 3.81331327,3.73464537 3.9407117,3.61793102 Z" id="Stroke-3"></path>
                            </g>
                        </g>
                        <path d="M0.514583333,4.6 L9.83408387,4.6 C10.0135764,4.6 10.1590839,4.46568542 10.1590839,4.3 C10.1590839,4.13431458 10.0135764,4 9.83408387,4 L0.514583333,4 C0.33509079,4 0.189583333,4.13431458 0.189583333,4.3 C0.189583333,4.46568542 0.33509079,4.6 0.514583333,4.6 Z" id="Line-2"></path>
                    </g>
                </g>
            </g>
        </g>
    </g>
</svg>