<svg data-name="Calque 1" xmlns="http://www.w3.org/2000/svg" width="47.06" height="47.06" viewBox="0 0 47.06 47.06">
    <title>instagram</title>
    <rect x="27.98" y="14.63" width="4.45" height="4.45" rx=".74" ry=".74"/>
    <ellipse cx="23.55" cy="23.49" rx="4.77" ry="4.62"/>
    <path d="M32.44 21.31l-1.81.4a6.91 6.91 0 0 1 .31 2 7.38 7.38 0 0 1-14.76 0 6.91 6.91 0 0 1 .31-2l-1.85-.4V31.7a.64.64 0 0 0 .74.74h16.31a.64.64 0 0 0 .74-.74V21.31z"/><path d="M23.53 0a23.53 23.53 0 1 0 23.53 23.53A23.53 23.53 0 0 0 23.53 0zM35.4 32.44a2.92 2.92 0 0 1-3 3H14.62a2.92 2.92 0 0 1-3-3V14.63a2.92 2.92 0 0 1 3-3h17.82a2.92 2.92 0 0 1 3 3v17.81z"/></svg>