<?xml version="1.0" encoding="UTF-8"?>
<svg width="56px" height="45px" viewBox="0 0 56 45" version="1.1" xmlns="http://www.w3.org/2000/svg" xmlns:xlink="http://www.w3.org/1999/xlink">
    <!-- Generator: Sketch 55.2 (78181) - https://sketchapp.com -->
    <title>" copy</title>
    <desc>Created with Sketch.</desc>
    <g id="HC_02_Edito" stroke="none" stroke-width="1" fill="none" fill-rule="evenodd" opacity="0.138695126">
        <g id="HC_01_Edito" transform="translate(-1115.000000, -26033.000000)" fill="#A07F52">
            <g id="Group-8" transform="translate(0.000000, 10443.000000)">
                <g id="&quot;-copy" transform="translate(1143.000000, 15612.500000) scale(-1, 1) translate(-1143.000000, -15612.500000) translate(1115.000000, 15590.000000)">
                    <path d="M50.3656442,44.8 L39.2343558,44.8 C36.2110429,44.8 33.6,41.9705263 33.6,38.3550877 L33.6,25.6224561 C33.6,11.4750877 43.6319018,0 56,0 L56,8.96 C50.2282209,9.43157895 45.2809816,13.5185965 42.9447853,19.1775439 L50.3656442,19.1775439 C53.3889571,19.1775439 56,22.0070175 56,25.6224561 L56,38.3550877 C55.8625767,41.9705263 53.3889571,44.8 50.3656442,44.8 Z" id="Path"></path>
                    <path d="M16.7656442,44.8 L5.63435583,44.8 C2.61104294,44.8 0,41.9705263 0,38.3550877 L0,25.6224561 C0,11.4750877 10.0319018,0 22.4,0 L22.4,8.96 C16.6282209,9.43157895 11.6809816,13.5185965 9.34478528,19.1775439 L16.7656442,19.1775439 C19.7889571,19.1775439 22.4,22.0070175 22.4,25.6224561 L22.4,38.3550877 C22.4,41.9705263 19.7889571,44.8 16.7656442,44.8 Z" id="Path"></path>
                </g>
            </g>
        </g>
    </g>
</svg>