<svg xmlns="http://www.w3.org/2000/svg" xmlns:xlink="http://www.w3.org/1999/xlink" style="display: none">
    <symbol id="quote" stroke="none" stroke-width="1" fill="none" fill-rule="evenodd" opacity="0.138695126">
        <g id="HC_03_Entreprise_V3" transform="translate(-115.000000, -1357.000000)" fill="#A07F52">
            <g id="Photo-50%--Copy-2" transform="translate(115.000000, 1329.000000)">
                <g id="&quot;" transform="translate(0.000000, 28.600000)">
                    <path d="M50.3656442,44.8 L39.2343558,44.8 C36.2110429,44.8 33.6,41.9705263 33.6,38.3550877 L33.6,25.6224561 C33.6,11.4750877 43.6319018,0 56,0 L56,8.96 C50.2282209,9.43157895 45.2809816,13.5185965 42.9447853,19.1775439 L50.3656442,19.1775439 C53.3889571,19.1775439 56,22.0070175 56,25.6224561 L56,38.3550877 C55.8625767,41.9705263 53.3889571,44.8 50.3656442,44.8 Z" id="Path"></path>
                    <path d="M16.7656442,44.8 L5.63435583,44.8 C2.61104294,44.8 0,41.9705263 0,38.3550877 L0,25.6224561 C0,11.4750877 10.0319018,0 22.4,0 L22.4,8.96 C16.6282209,9.43157895 11.6809816,13.5185965 9.34478528,19.1775439 L16.7656442,19.1775439 C19.7889571,19.1775439 22.4,22.0070175 22.4,25.6224561 L22.4,38.3550877 C22.4,41.9705263 19.7889571,44.8 16.7656442,44.8 Z" id="Path"></path>
                </g>
            </g>
        </g>
    </symbol>

    <symbol id="logo-huttopia" viewBox="0 0 250 85.8">
        <path fill="#005844" d="M249 84.6H1.1V1.2H249v83.4z"/>
        <path fill="#fff"
              d="M81 33.3l-.6-.2-1.2.2-.9.3-.6.1c-.6.1-1 .6-1.2 1.1-.1.2-.2.4-.2.7 0 .4.2.7.3.8l.1.1s-.1 0-.1.1l-.4.3v.1c-.2.3-.2.6-.2.8 0 .3.1.6.3.8v.1l-.5 1 .1.7-.3.1-.6.7v.1c0 .3.1.6.2.8l-.2.5-.2.2v.9l-.5.7.1.8c0 .1-.1.1-.2.2-.2.3-.4.6-.5 1.1v.1l-.2.3-.3.7-.2.4-.2.9-.3.7-.5 1.6-.5.7-.7.4c-.1 0-.2 0-.4-.1-.4-.1-.9-.2-1.5-.4h-.5c-.6.2-1 .4-1.3.6-1.3.7-1.5.7-1.7.7h-.2l-.8-.9V52c0-.4-.1-.8-.2-1.1l-.2-.3v-.1l-.2-.5-.1-.1v-.5c0-.2 0-.4-.1-.5l-.1-1.5.1-.3c.1-.3.1-.6.1-.9 0-.5-.1-.9-.2-1.3l-.4-1-.5-1.8v-1l.1-1.1.2-.8v-.9l.2-.4.2-.9.1-.3.1-.8v-.4l.2-1.5-.3-.8h-.1s-.1 0-.1-.1V33l-.7-.6h-.6l-.8.2c-.2 0-.3.1-.5.2l-.3.3-.1.2c-.1 0-.2 0-.3.1l-.4.2-.1.1c-.4.3-.5.5-.9.9l-.2.2.2.1-.3.5.1.2c-.1.3-.1.6-.2.8v.5l-.2.7v1.5l-.2.6-.1 1.5c0 .6 0 1.1.4 1.6l.1.6.4.7v.5l.1.3.1.2-.1.4.1.5.2.3v.9l.3 1.4.1.1c0 .2.1.4.1.7l.1.2c.2.3.3.6.3.7l.9.7.4.5.4.9v.3l.3 1v.4c0 .2 0 .5.1 1.1v.3l.1.3v.8l.3.5.8.5.3-.1.4-.2.4-.1.2-.1c.4-.1.9-.3 1.3-.5.5-.3 1-.5 1-.5h.5l1.3-.2 2-.5.4-.2.1-.1c.4 0 .7-.1 1-.3.1-.1.1-.1.2-.1.2-.1.5-.2 1-.5.4-.2.7-.3 1.1-.7 1-.5 1.9-.9 2-1.7l.3-1.5v-1c0-.2 0-.4.4-1.2V48l.2-.1.1-.4.6-.8.2-.4v-.4l.1-.3.1-.1v-.1c0-.1.1-.1.1-.1.2-.2.5-.4.5-1v-.1l-.2-.3c.3-.4.5-.6.5-1.2v-.1l-.1-.3c.2 0 .3-.1.5-.2 0-.2.1-.4.1-.6l.3-.9-.2-.4.1-.1.2-1.1.3-.1c.1-.5.3-1.1.5-1.5l-.1-.4-.1-.1c-.1-.1-.2-.2-.3-.2l.3-.7-.2-1 .3-.2.3-.3.2-.4-.2-1.1-.1.3zM109.5 37.2c.2-.3-.5-.5-.5-.9h-.1l-.6-.3-.8-.1h-.8c-.4 0-.8-.1-1.3-.3-.5-.2-.7-.2-.8-.2h-.7l-2.6-.8c-.3-.1-.7-.2-1.2-.2h-.4c-.1 0-.3-.1-.6-.2s-.8-.2-1.3-.2H97c-.2 0-.5 0-.9-.1l-.5-.3-2-.3h-.3l-.6-.2h-.6l-.4.1-.1.1H91c-.1 0-.2 0-.4.1l-1.2.4c-.1 0-.2-.1-.4-.2v.1l-.1-.1c-.2-.1-.4-.1-.5-.1-.8 0-2 .9-2.5 2.1l-.2.2c-.1.1-.2.2-.3.4-.3.3-.6.6-.6 1.1 0 .6.4.9.7 1v.1c.3.2.5.3.7.3l.8-.1h2.4l.7-.2h1l.2-.1.5.1.2-.4.9.1h.4l.5.1v-.1l.2.1h1.7l.1.3.1.4.2.7c0 .1-.1.2-.2.4l-.1.3v.3l.1.2.1.4-.1.4v1l-.4.4-.1 1-.1.2v.3l-.2.3-.1.5v1l.1.9-.1.4-.1.3v.6l-.1.4v.7c0 .1 0 .1-.1.3l.1.1-.2.3v.5l-.1.6v.6l-.1.4-.2 1.3v.2l.1.8s0 .2-.7.5V55l-.2.1c-.2.3-.4.7-.4 1v.3l.1.1.4.4-.1.1.2.2.4.2h.7c.2.1.4.1.5.1.1 0 .3 0 .5-.1l.8-.4c.1 0 .4-.1.6-.1.5 0 .8-.1 1-.2l.9-.3c.3-.1.4-.3.6-.5.1-.2.3-.6.3-.9 0-.2-.1-.5-.1-.6l-.2-.3.1-.4v-.1l.1-.4c0-.2-.1-.5-.2-.7l.1-.2c.1-.1.1-.3.1-.5 0-.6-.4-.9-.7-1.1l-.4-.7-.4-.5-.2-.5-.1-.6-.2-.6.3-.4.2-.6v-.5l.1-.3v-1.1-.5l-.1-.3.2-.1.2-.3.3-.7v-.5c0-.1.1-.2.1-.2.3-.3.3-.6.3-.7V41l.1-.2c.1-.1.1-.2.1-.3l.1-.3v-.1l.4-.5.3-.7.2-.2H101.8l.8.2 1.1.1h.7l1.9.2c.1 0 .2 0 .4-.1h.4l.3.1 1.9.1c.7-.2-.1-1.5.2-2.1zM135.7 35.9l-.7-.1-.4-.1h-1c-.4.1-.5.1-.8.1l-.1.1c-.4 0-.7.1-.9.1h-.3l-.6-.3-.8-.1h-1.2l-2.5-.7c-.3-.1-.7-.2-1.2-.2h-.4c-.1 0-.3-.1-.6-.2s-.8-.2-1.3-.2l-.2.1h-.2c-.1-.3-.4-.8-.9-1l-.5-.4-2-.3h-.3l-.6-.2h-.6l-.4.1-.1.1c-.1 0-.1 0-.1.1l-.5-.1c-.1 0-.2 0-.4.1l-1.2.4-.2.1.1.1-.5.5.5.5c-.4.5-.7 1.1-1 1.5l-.2.2c-.1.1-.3.2-.4.4-.3.3-.6.6-.6 1.1 0 .6.4.9.7 1v.1c.3.2.5.3.7.3l.8-.1h1.9v-.3h.1l.3-.1.9.1h.4l.5.1v-.1l.1.1h1.8l.1.3.1.4.2.7c0 .1-.1.2-.2.4l-.1.3v.3l.1.2.1.4-.1.4v1l-.1.3-.1 1-.1.2v.3l-.2.3-.1.5v.1l-.1.8.1.9-.2.4-.1.3v.6l-.1.4v.7c0 .1 0 .1-.1.2l.1.1-.2.3v.5l-.1.5v.5l-.1.4-.2 1.3v.2l.1.7c0 .1 0 .2-.7.5l-.1.1-.2.1c-.2.3-.4.6-.4 1v.3l.1.1.4.3-.1.1.2.2.4.2h.7c.2.1.4.1.5.1.1 0 .3 0 .5-.1l.7-.4c.1 0 .4-.1.6-.1.5 0 .8-.1 1-.2l.7-.2s.7-.1.4-.7c-.1-.4-.6-.5-.6-.5l-.2-.1c0-.1.1-.3.1-.4 0-.3-.1-.5-.1-.6l-.2-.3.2-.9c0-.2-.1-.5-.2-.7l.1-.2s0-.1.1-.1h.1c-.1-.3-.1-.7-.1-1V50l-.2-.5-.1-.3.3-.3c0-.3 0-.6.1-1l-.2-.2.2-.4v-.5l.1-.3v-1.1-.5l-.1-.3.1-.1.3-.3.3-.6.1-.3v-.2c0-.1.1-.2.1-.2.2-.3.3-.6.3-.7v-.5l.1-.2c.1-.1.1-.2.1-.3l.1-.3v-.1l.4-.5.3-.7.2-.2H127.1l.8.2 1.1.1H129.8l.1-.3 2.8.2 1.5-.2.3-.1.9-.1.8-.2.4-.3c.2-.3.3-.6.3-1 .1-1-.3-1.6-1.2-1.8zM188.4 39.7l-.1-.3-.8-1.2-.2-.5-.3-.3-.3-.2-.3-.4-.5-.2h-.4c-.3-.4-.6-.6-1.2-.8l-.1-.1-.5-.1h-1.1c-.1 0-.4-.1-1.3-.3-.3-.1-.7-.1-1.3-.1l-.3-.4-.4-.2-1-.1-1.9-.6c-.1-.1-.3-.1-.4-.1h-.3c-.2 0-.5-.1-1.1-.3l-.1-.1-.6-.1h-.9l-1.1-.4-1-.2-1.6-.4c-.2-.1-.4-.1-.8-.1-.5-.1-.8-.2-1.4-.6l-.3-.1-.8.1-.2.3-.1-.1v1c.2.2.2.2.4.5l.5.4h.4c.3.2.5.3.8.4.4.4.8.6 1.5.7l1.3.2 1.2.3 1.1.4.9.2.5.2c.2.2.2.3.3.6l-.3.4-.1.4-.3 2.3.1.8-.4 1-.2.5-.3.4-.1.5v.2l-.4 1.2-.2 1.3-.2.8-.2 1.5-.5 1.4-.3 1.4-.2 1.2v.3l.3.8c-.1 0-.4.1-.7.1l-1.2.2h-.7c-.2 0-.5 0-.8.3l-1.2.9-.2.2-.2.3-.1.5.1.5v.3l.7.6.5.1h.7l.9.2h.2l1.4-.1.1-.1.6-.1.4.1 1.8.2 2.5-.4 2.9-.2 1.5.1c.4 0 .8-.1 1.2-.4l.3-.7c-.1-.7-.5-1.1-1.2-1.2l-1.2-.2-1.1-.4-1.4-.8-2.1-.4.1-.4c-.1-.4-.2-.6-.3-.8v-.1l-.2-1 .1-.6-.1-.6c.1-.5.2-.8.2-1.1.1-.6.2-.7.2-.7h.8l2.3.3 3.3-.5.7-.2.7-.1 2.3-.8.7-.3 1.6-1.3.6-.5c.1-.1.3-.3.3-.5l.4-2.2v-.2l-.3-1.4zm-4.9 3.7l-1.6.6-2.7.5-1.9-.3-.1-.1h-.3l.1-.2.1-.3.1-.6.5-1.4.4-1.1.3-.5.1-.3v-.4l.4-.8.1-.2.9.3.4.1 2.2 1.1.9.6 1 .9.2.1c.2.2.2.4.2.4.2.5-.5 1.3-1.3 1.6zM229.1 53.6l-1.4.1-1 .2-.7-.1c0-.4.1-.6.2-.9.2-.3.4-.5.4-.8l-.4-1V51c0-.1.1-.3.1-.5.1-.3.3-1.5.3-1.8 0-.1 0-.3-.1-.5l-.4-2.6v-.4l-.1-.4c-.2-.3-.2-.3-.2-.5l-.3-.4-.1-.1v-.3c.1-.2.1-.4.1-.6 0-.3-.2-.5-.4-.7V42l-.5-1.1-.1-.6-.1-.3-.3-.4-.2-.5.1-.6-.4-.8c-.1 0-.2-.1-.2-.1v-.5l-.1-.3-.1-.2.1-1-.1-.4-.5-.8-.4-1.1.3-1.7c0-.1 0-.4-.5-1l-.6-.7-.3-.2-.2-.1h-.4c-.3.1-.6.2-.8.4-.2.2-.3.5-.3.8v.5l-.3.4v.8l.1.4.1.1-.1.3v.3l.1.4-.1.5v.4l.1.1-.1.5.1.6c.1.2.2.3.2.3l-.4.6v.3l-1.2 2.6-.5.5-1.1 1.9s-.1.1-.3-.2l-.3-.2-.5-.1-.3-.2c-.2-.1-.3-.1-.4-.1l-.2-.2c-1.1-.2-2.7.3-3.4.6l-.2 1c.4.5.6.8.9.8l.3.3 1.7.8.2.2.4.2c-.2.5-.3.6-.6.9l-.1.2c-.3.3-.4.5-.5.8l-.3.2-.4.7-.4.4-.2.3-.1.4-.2.2-.3.1-.2.3-.3.2-1 1.6-.7.6-.5.6s-.2.7-.8 1c-.1 0-.2.1-.3.1h-.1.1c-1.4.1-1.8.3-2.6 1l-.4.6c.1 1 .3.7.8 1.5l.4.3 1.5.4h.2l2.6-.2 1.2.2h1.8l.1-.1c1.5-.1 2.3-.7 2.3-1.7 0-.7-.7-1-1.1-1.2v-.1c-.3-.1-.5-.2-.8-.3-.4-.1-1.3-.3-1.4-.4 0-.1.5-.4.7-.8v-.2c.1-.2.1-.3.1-.3 0-.1.1-.1.2-.2l.3-.2.2-.3.6-.7.9-1.1.4-.8.8-.7.5-.6-.1-.5.5-.2.1-.3.3-.1.3-.4c0-.2-.4-.6.1-.4.6 0 .9.4 1.1.6l.5.3c.7 0 .8 0 1.1.3l.3.1h.1l.4.5.2.1 1 .1.2.2-.1.7-.3.4-.1.4v.3l.2.7-.2.8-.3 1.1v.5l.2.4v.1h-.3l-.3.2-.2-.1-.4.2h-.4c-.5.2-.7.4-.7.4h-.4c-.2.1.2 0-.1.1-.1.1-.4.3-.7.5l-.3.5v.1l.4.6.4.2.2.1h.3l.6.1 1.1.3c.3 1 1.4.5 1.8.5.7 0 1.6-.1 2.5-.5l.2-.2c.2-.3.3-.3.4-.3l2.8-.6c.7-.1 1.6-.1 1.6-1.1.1-.4-.5-1-1.6-1zm-6.2-8.3l-.4-.1c-.4-.1-.8-.2-.9-.2l-2.1-1.2-1.4-.4c.5-.4.5-.8.5-1.4l.3-.4c1.1-1.2 1.5-1.7 1.5-3v-.7l.1-.3c.1 0 .2-.1.2-.1.1 0 .4 0 .8.2.3.5.5.8 1 1v.1l.1.5-.3 1.2.1.6.3.3.3 1.4.5.4-.2 1.3.4.6c-.1.1-.6.3-.8.2zM200.5 39.5c-.1-.5-.6-1.1-1.3-1.1-.3 0-.5.1-.8.2l-.3.3-.3.5-.1.4v.5l-.1.9v1.4l-.2.5v.6l.1.4-.1.9-.2 1V46.6l-.1.2-.1.6c0 .1.1.2.1.3l-.5 1.1v.1c-.5.5-.6.7-.8 1.4l-.1.1c-.1.4-.2.5-.4 1l-.1.1c-.1.2-.1.3-.2.4-.1.2-.1.3-.2.4-.1.1-.1.3-.1.5v.6l-.3.7-.1.3v.7l-.1.5v.3l.2.8.2.4c.1 0 .2.2.5.3v.1c.4.1.5.1.9.1 1.5 0 1.9-.1 2.6-.9l.2-.1.1-.1.2-.2.1-.3h-.1l.2-.3c0-.4 0-.8-.1-1.1 0-.1-.1-.2-.1-.3l.3-.9.1-1.6v-.4l.1-.4.3-2.1c.1-.4.1-.6.1-.7v-.5l-.1-.6.1-1.5V45l.1-.2v-.7l.4-1.8.1-.3c.1-.2.1-.5.1-.6 0-.1 0-.3-.1-.5l-.1-1.4zM50.8 54.8l-1.2.1-.9-.2c-.2 0-.7-.1-.9-.2V52l-.3-1.1.2-1.7c0-.1-.1-.3-.2-.6l-.1-.2c-.1-.2-.1-.5-.1-1 0-1.7.2-2 .8-2.2l.2-.2.5-1.2v-.2l-.1-1.3s0-.3.2-.8c.1-.3.1-.5.1-.7 0-.4-.1-.7-.2-1.2l.1-.2-.2-.6.1-.5c.1-.2.1-.3.1-.5 0-.1 0-.3-.1-.4v-.2-.5l.5-3.8c0-.1.1-.2.1-.3 0-.4-.4-.8-.8-1l-.2-.1c-.1 0-.2-.1-.4-.1-.1 0-.2 0-.3.1l-1.3.5-.7.1-.2.1c-1.2 1-1.5 4.1-1.5 4.8 0 .4.1.7.2 1.1l.4.7.3 1.2h-.2l-2-.1-1.4.1-1.1-.2h-2.9l-1 .4-1.6.4-1.5.5-1.3-.1c-.1-.4-.2-.6-.2-.9v-.5l.2-.2.2-.9.5-.6c.1-.1.1-.2.2-.5l.1-.3c.2-.7.2-3.2.2-3.2 0-.1 0-.3-.7-1.4-.2-.4-.5-.6-.9-.8a2 2 0 0 0-.9-.2c-1 0-1.8.5-3.1 1.8-.2.2-.3.8-.5 2.5 0 .3 0 .5-.1.5l-.1.8-.2.9v1.1l-.3.9v.1c0 .2.3 1.4.6 2.3 0 .2.1.4.1.6 0 .2 0 .4-.1.6l-.2.8-.1 1.8v2l-.2.5v1.8c0 .1-.2.8-.3 1-.2.4-.2.9-.2 1.7-.2.2-.4.4-.4.8 0 .1 0 .3.1.4-.2.2-.4.5-.4.9 0 .3.1.6.2 1l.1.2c1.1.8 1.5 1 2.9 1.6l.3-.1c.5-.4.8-.7.9-1 .1-.1.1-.3.1-.5V56c0-.2 0-.4.1-.6l.3-.9.2-2.2.5-2.3.9-4.5c.1-.5.2-.6.2-.6.1-.1.3-.2 1-.5h.1c.2-.1.4-.1.5-.1l2.1.2 1.7-.2 3.7.1.7.2.1.5.3 1 .1 1.8c0 .1 0 .2.3.9.1.2.3.8.3 2.2v2.1l.2.9v.3c0 .8-.4.9-.5.9l-.8.2c-.5.2-.8.5-.9 1.2l.3.4 1.2.2 1.6.3h3.3l1.9-.5 1.9-.2c.4-.1.8-.5.8-1 .1-.5-.5-1-1-1zM200.9 31c-.5-.2-1-.3-1.5-.3-1.1 0-2.2.4-2.2 1.4v.5l-.1.3c-.1.1-.1.3-.1.5l.1.3c0 .1 0 .2.1.3v.2l-.3 1.3.4.8.6.2.1.1h.3l.6-.1.1-.1 2.2-.6.4-.3c.2-.3.3-.6.3-1 0-.1 0-.3-.1-.5l-.1-.3.1-.8v-.2l.1-.7c0-.4-.4-.8-1-1zM161 43l.2-.7-.1-.1v-.3c0-.3-.3-1-.7-1.8-.1-.2-.2-.4-.2-.8l.1-.1-.1-.2c-.3-1-.5-1.3-.9-1.8-.2-1.1-.4-1.6-1.1-2.2l-.9-.4c-.1-.1-.1-.2-.2-.3-.1-.2-.4-.5-.7-.9l-.1-.1h-.4l-1-.6-.1.1-.6-.2-.5-.3-1.4-.1h-1c-.6 0-1.4.2-2 .4-.4.2-.7.3-.9.4l-.5.3-.6.2-.6.5-.9.3c-.1 0-.3.1-.4.2-.1 0-.1.1-.2.2l-1.3 1.3-.4.7c-.1.1-.3.2-.5.3l-.4.3-.3.9-1.6 1.4c-.8.8-.8 2.8-.7 4l-.4 1-.5.6.1.1c-.1.1-.1.2-.1.3 0 .3 0 1 .2 1.9v.8l-.2.1v.2c0 1.1 0 1.3.3 2-.1 1.2-.1 1.6.3 2.4 0 .1.1.1.1.1l.6.5c0 .1.1.2.1.3.1.3.2.6.4 1.1l.1.2.4.1.7.8.2-.1.5.3.4.4 1.3.5.9.2c.3.1.7.1 1.1.1h.9c.5 0 .8-.1 1-.2l.6-.2h.6l.8-.3.9-.1c.1 0 .3 0 .4-.1.1 0 .1-.1.2-.1l1.7-1 .8-.8.8-.5.8-.2 2.2-1.1.6-.3.1-.1c.1 0 .1-.1.2-.1.2-.1.4-.4.6-.7.1-.1.2-.3.4-.5l.3-.4v-1.5l.3-1.4v-.3l.2-.1.1-.5-.1-.9.3-.2-.2-2.9zm-3.7 5.2l-1.7 1.4v.1c-.1.3-.3.7-.6 1.1l-.8.8c-.2.3-.3.5-.3.5l-.8.5c-.2.1-.5.3-1.1.9-.4.4-.6.5-1.3.8l-.3-.1-.1.1-.6-.1-1 .3-1.2-.3h-1l-1.4-.8-.7-.4-.7-1.2-.2-.6-.3-.5-.1-1.4-.2-.6.1-.3-.1-1.1-.1-.1c0-.1.1-.1.3-.2l.2-.1v-1.1l.8-2.6c.7-.6.9-1 1.1-2.3v-.1h.1l.2-.5.4-.2.3-.4c.2-.2.3-.3.5-.4.3-.1.3-.3.3-.5s-.2-.3-.3-.3l2.5-1.5.9-.7h.7l.5-.2c.2-.1.2-.1.4 0l1.6.4.8.2 1.1 1 .4.6.4.4.5 1.3.4.6v.3l.4 1.1s.1.2 0 .3l-.1.1.3 1v2.7c-.4.5-.4.9-.2 2.1z"/>
        <path fill="#fff" d="M152.6 45.8l.1-.8v-.2l.1-.7c0-.5-.4-.9-1-1.1-.5-.2-1-.3-1.5-.3-1.1 0-2.2.4-2.2 1.3v.5l-.1.3c-.1.1-.1.3-.1.4l.1.3c0 .1 0 .2.1.3v.2l-.3 1.2.4.7.6.2.1.1h.3l.6-.1.1-.1 2.2-.5.4-.3c.2-.3.3-.5.3-.9 0-.1 0-.3-.1-.5h-.1z"/>
    </symbol>

    <symbol id="account" viewBox="0 0 27 27">
        <path fill="currentColor" fill-rule="evenodd" d="M13.5 13.5a3.8 3.8 0 1 1 0-7.6 3.8 3.8 0 0 1 0 7.6m9.1 8.4c-.3-3.8-3-7-6.6-8a4.9 4.9 0 1 0-5 0 9.2 9.2 0 0 0-6.6 8 12.4 12.4 0 0 1 9.1-20.8 12.4 12.4 0 0 1 9.1 20.8m-17.2 1v-.2a8.1 8.1 0 1 1 16.2.2 12.4 12.4 0 0 1-16.2 0M13.5 0a13.5 13.5 0 1 0 0 27 13.5 13.5 0 0 0 0-27"/>
    </symbol>

    <symbol id="cta_arrow" stroke="none" stroke-width="1" fill="none" fill-rule="evenodd" stroke-linecap="round" stroke-linejoin="round">
        <g id="HC_01_Edito" transform="translate(-184.000000, -1814.000000)" stroke="#FFFFFF">
            <g id="CTA" transform="translate(0.000000, -32.000000)">
                <g id="CTA/second_level-Copy" transform="translate(160.000000, 1827.000000)">
                    <g id="ico/white/arrow_link" transform="translate(23.000000, 15.000000)">
                        <g id="Group" transform="translate(2.000000, 5.000000)">
                            <g id="ico/arrow_white" transform="translate(13.958333, 5.541667) rotate(-90.000000) translate(-13.958333, -5.541667) translate(8.458333, 2.541667)" stroke-width="2">
                                <g id="fleche" transform="translate(0.831250, 0.300000)">
                                    <path d="M0,0 L4.71041667,4.675" id="Stroke-1"></path>
                                    <path d="M4.71041667,4.675 L9.42083333,0" id="Stroke-3"></path>
                                </g>
                            </g>
                            <path d="M0.791666667,5.5 L15.1293598,5.5" id="Line-2" stroke-width="2"></path>
                        </g>
                    </g>
                </g>
            </g>
        </g>
    </symbol>
    <symbol id="close" viewBox="0 0 16 16">
        <path fill="currentColor" fill-rule="nonzero" d="M13.8 1a.9.9 0 0 1 1.3 1.2L9.2 8l5.9 5.8a.9.9 0 0 1-1.3 1.3L8 9.2l-5.8 5.9a.9.9 0 0 1-1.3-1.3L6.8 8 .9 2.2A.9.9 0 0 1 2.2.9L8 6.8 13.8.9z"/>
    </symbol>

    <symbol id="long-arrow-right" viewBox="0 0 18 13">
        <g fill="currentColor" fill-rule="nonzero" stroke="currentColor">
            <path d="M12.613218 11.562634l4.675-4.710417c.194524-.195998.19333-.512578-.002668-.707102-.195998-.194524-.512578-.193329-.707102.002669l-4.675 4.710416c-.194524.195998-.19333.512578.002668.707102.195998.194524.512578.19333.707102-.002668z"/>
            <path d="M17.288218 6.147784l-4.675-4.710417c-.194524-.195998-.511104-.197192-.707102-.002668-.195997.194524-.197192.511104-.002668.707101l4.675 4.710417c.194524.195998.511104.197192.707102.002668.195997-.194524.197192-.511104.002668-.707101z"/>
            <path d="M1.791667 7H16.12936c.276142 0 .5-.223858.5-.5s-.223858-.5-.5-.5H1.791667c-.276143 0-.5.223858-.5.5s.223857.5.5.5z"/>
        </g>
    </symbol>

    <symbol id="arrow-down" viewBox="0 0 18 10">
        <g fill="currentColor" fill-rule="nonzero">
            <path d="M.1 1.4l8.5 8.5a.5.5 0 0 0 .8-.8L.9.6a.5.5 0 0 0-.8.8z"/>
            <path d="M9.4 9.9l8.5-8.5a.5.5 0 0 0-.8-.8L8.6 9.1a.5.5 0 1 0 .8.8z"/>
        </g>
    </symbol>

    <symbol id="marker" viewBox="0 0 14 20">
        <path fill="currentColor" fill-rule="nonzero" d="M7 19.3h-.2l-.2-.1C2.6 15 .7 11.7.7 7 .7 3.6 3.5.7 7 .7s6.3 2.9 6.3 6.4c0 4.6-1.9 8-5.9 12l-.2.2H7zm0-9.6c1.5 0 2.7-1.2 2.7-2.7 0-1.5-1.2-2.7-2.7-2.7A2.7 2.7 0 0 0 4.3 7c0 1.5 1.2 2.7 2.7 2.7z"/>
    </symbol>

    <symbol id="marker-linear" viewBox="0 0 20 20">
        <g fill="currentColor" fill-rule="nonzero">
            <path d="M10 18.7h.05c3.87-4.02 5.65-7.23 5.65-11.6 0-3.2-2.55-5.8-5.7-5.8-3.15 0-5.7 2.6-5.7 5.8 0 4.37 1.78 7.58 5.65 11.6H10zm0 .6l-.16-.01a.49.49 0 0 1-.28-.14c-4-4.14-5.86-7.48-5.86-12.05C3.7 3.56 6.52.7 10 .7s6.3 2.86 6.3 6.4c0 4.57-1.86 7.91-5.86 12.05a.49.49 0 0 1-.28.14.89.89 0 0 1-.16.01zm0-18.02a5.8 5.8 0 0 1 5.73 5.82c0 4.33-1.82 7.66-5.52 11.41l-.21.22-.21-.22c-3.7-3.75-5.52-7.08-5.52-11.41A5.8 5.8 0 0 1 10 1.28zm5.13 5.82A5.2 5.2 0 0 0 10 1.88 5.2 5.2 0 0 0 4.87 7.1c0 4.06 1.68 7.21 5.13 10.77 3.45-3.56 5.13-6.71 5.13-10.77z"/>
            <path d="M10 9.7c1.47 0 2.7-1.23 2.7-2.7 0-1.47-1.23-2.7-2.7-2.7A2.73 2.73 0 0 0 7.3 7c0 1.47 1.23 2.7 2.7 2.7zm0 .6c-1.8 0-3.3-1.5-3.3-3.3 0-1.8 1.5-3.3 3.3-3.3 1.8 0 3.3 1.5 3.3 3.3 0 1.8-1.5 3.3-3.3 3.3zm0-6.05A2.74 2.74 0 0 1 12.75 7 2.74 2.74 0 0 1 10 9.75 2.74 2.74 0 0 1 7.25 7 2.74 2.74 0 0 1 10 4.25zm0 .6c-1.2 0-2.15.95-2.15 2.15S8.8 9.15 10 9.15 12.15 8.2 12.15 7 11.2 4.85 10 4.85z"/>
        </g>
    </symbol>

    <symbol id="burger-menu" viewBox="0 0 19 15">
        <path fill="currentColor" fill-rule="evenodd" stroke="currentColor" stroke-width=".5" d="M1.5 1h16.1a.5.5 0 1 1 0 1H1.5a.5.5 0 1 1 0-1zm0 6h16.1a.5.5 0 1 1 0 1H1.5a.5.5 0 1 1 0-1zm0 6h16.1a.5.5 0 1 1 0 1H1.5a.5.5 0 1 1 0-1z"/>
    </symbol>

    <symbol id="envelope" viewBox="0 0 26 16.9">
        <path fill="currentColor" d="M1.2 15.7V2.3l10.5 7.5c.3.2.8.4 1.3.4s1-.1 1.3-.4l10.5-7.5v13.5H1.2zm23-14.5L13.6 8.8c-.3.2-.9.2-1.3 0L1.8 1.2h22.4zm.6-1.2H1.2C.5 0 0 .5 0 1.2v14.5c0 .7.5 1.2 1.2 1.2h23.6c.7 0 1.2-.5 1.2-1.2V1.2c0-.7-.5-1.2-1.2-1.2z"/>
    </symbol>

    <symbol id="track-arrow" viewBox="0 0 61 60">
        <g fill="none" fill-rule="nonzero" stroke="currentColor" stroke-linecap="round" stroke-linejoin="round" stroke-width="2">
            <path d="M28 20l-9 9.52L28 38"/>
            <path d="M19 29.52l22.5.759V58C15.167 61.333 1.667 51.384 1 28.151 2-4 53-9 60 22.15"/>
        </g>
    </symbol>

    <symbol id="facebook" viewBox="0 0 38 38">
        <g fill="none" fill-rule="evenodd">
            <circle cx="19" cy="19" r="19" fill="currentColor" fill-rule="nonzero"/>
            <path fill="#FFF" d="M16.93 30h3.86V20h2.86l.35-4h-3.07v-1.6c0-.78.5-.96.86-.96h2.16v-3.43L20.97 10c-3.3 0-4.06 2.56-4.06 4.2V16H15v4h1.93v10"/>
        </g>
    </symbol>

    <symbol id="twitter" viewBox="0 0 38 38">
        <g fill="none" fill-rule="evenodd" transform="translate(-42)">
            <circle cx="61" cy="19" r="19" fill="currentColor" fill-rule="nonzero"/>
            <path fill="#FFF" d="M70.45 12.3c-.8.46-1.67.8-2.6.98a4.12 4.12 0 0 0-7.1 2.76c0 .32.03.62.1.92a11.71 11.71 0 0 1-8.46-4.22 3.98 3.98 0 0 0 1.27 5.4c-.67-.03-1.3-.21-1.86-.51v.05a4.06 4.06 0 0 0 3.3 3.96 4.18 4.18 0 0 1-1.86.07 4.1 4.1 0 0 0 3.84 2.8A8.32 8.32 0 0 1 51 26.2 11.76 11.76 0 0 0 57.29 28a11.5 11.5 0 0 0 11.66-12.01c.8-.57 1.5-1.29 2.05-2.1-.74.33-1.53.54-2.36.64.85-.5 1.5-1.3 1.8-2.23"/>
        </g>
    </symbol>

    <symbol id="youtube" viewBox="0 0 38 38">
        <g fill="none" fill-rule="evenodd" transform="translate(-86)">
            <circle cx="105" cy="19" r="19" fill="currentColor" fill-rule="nonzero"/>
            <path fill="#FFF" d="M103 22.71V16.9l5.2 2.91-5.2 2.91zm11.58-7.59c-.23-.83-.9-1.49-1.77-1.72-1.55-.4-7.81-.4-7.81-.4s-6.25 0-7.81.4c-.86.23-1.54.89-1.77 1.72C95 16.64 95 19.8 95 19.8s0 3.16.42 4.68c.23.83.9 1.49 1.77 1.72 1.56.4 7.81.4 7.81.4s6.26 0 7.81-.4a2.47 2.47 0 0 0 1.77-1.72c.42-1.52.42-4.68.42-4.68s0-3.16-.42-4.68z"/>
        </g>
    </symbol>

    <symbol id="instagram" viewBox="0 0 38 38">
        <g fill="none" fill-rule="evenodd" transform="translate(-129)">
            <circle cx="148" cy="19" r="19" fill="currentColor" fill-rule="nonzero"/>
            <path fill="#FFF" d="M156.06 26.14c0 1.05-.86 1.91-1.92 1.91h-12.28a1.92 1.92 0 0 1-1.92-1.91v-8.2h3a5.47 5.47 0 1 0 10.13 0h2.99v8.2zm-10.91-8.2a3.51 3.51 0 1 1 5.7 4.1 3.51 3.51 0 0 1-5.7-4.1zm10.1-5.63h.43v3.38l-3.37.01-.01-3.38 2.94-.01zM154.13 10h-12.28a3.87 3.87 0 0 0-3.86 3.86v12.28a3.87 3.87 0 0 0 3.86 3.86h12.28a3.87 3.87 0 0 0 3.86-3.86V13.86a3.87 3.87 0 0 0-3.86-3.86z"/>
        </g>
    </symbol>

    <symbol id="pinterest" viewBox="0 0 38 38">
        <g fill="none" fill-rule="evenodd" transform="translate(-171)">
            <circle cx="190" cy="19" r="19" fill="currentColor" fill-rule="nonzero"/>
            <path fill="#FFF" d="M188.4 23.23c-.53 2.75-1.17 5.4-3.07 6.77-.59-4.16.86-7.29 1.53-10.6-1.14-1.93.14-5.82 2.56-4.86 2.97 1.18-2.58 7.17 1.15 7.92 3.89.78 5.48-6.75 3.07-9.2-3.49-3.53-10.15-.08-9.33 4.98.2 1.24 1.48 1.62.5 3.33-2.22-.5-2.89-2.26-2.8-4.6.14-3.84 3.45-6.53 6.77-6.9 4.2-.47 8.14 1.54 8.69 5.5.61 4.45-1.9 9.28-6.4 8.93-1.2-.09-1.72-.7-2.67-1.27"/>
        </g>
    </symbol>

    <symbol id="phone" viewBox="0 0 23 23">
        <path fill="currentColor" fill-rule="nonzero"
              d="M4.66 15.29a24.48 24.48 0 0 0 8.15 6.36c1.19.56 2.78 1.23 4.56 1.34l.32.01a3.78 3.78 0 0 0 2.95-1.28c.28-.33.6-.63.92-.95.23-.21.46-.44.68-.67 1.02-1.06 1.02-2.4-.01-3.42l-2.88-2.87a2.33 2.33 0 0 0-1.68-.77c-.61 0-1.2.27-1.7.77l-1.72 1.7-.47-.24c-.2-.1-.37-.2-.53-.3a18.1 18.1 0 0 1-4.33-3.92 10.4 10.4 0 0 1-1.46-2.32c.45-.4.87-.83 1.28-1.25l.44-.44c.51-.52.8-1.11.8-1.72 0-.6-.28-1.2-.8-1.71L7.75 2.19l-.49-.5A26.2 26.2 0 0 0 6.3.73 2.39 2.39 0 0 0 4.61 0C4 0 3.4.25 2.9.74L1.1 2.52A3.66 3.66 0 0 0 .03 4.87a8.8 8.8 0 0 0 .67 3.8c.83 2.27 2.1 4.37 3.97 6.62zM1.3 5.03c.06-.62.3-1.15.76-1.6L3.8 1.68c.27-.27.58-.4.87-.4.29 0 .58.13.85.4.32.3.62.6.94.93l.5.5 1.4 1.4c.3.3.45.6.45.89 0 .29-.15.58-.45.88l-.44.44c-.44.44-.85.86-1.3 1.26l-.03.03c-.4.39-.33.76-.23 1.04l.01.04c.36.87.87 1.7 1.66 2.69a18.9 18.9 0 0 0 4.57 4.14c.2.13.42.23.62.34.2.1.37.18.52.28.02 0 .04.02.05.03a1 1 0 0 0 .46.12 1 1 0 0 0 .7-.33l1.78-1.76c.27-.27.57-.42.87-.42.36 0 .65.22.83.42l2.86 2.84c.57.56.56 1.18-.01 1.78l-.63.62c-.34.32-.68.65-1 1.02a2.6 2.6 0 0 1-2.27.85c-1.55-.1-3-.7-4.08-1.21a23.01 23.01 0 0 1-7.68-5.99 20.97 20.97 0 0 1-3.74-6.2 7.57 7.57 0 0 1-.6-3.28z"/>
    </symbol>

    <symbol id="envelope" viewBox="0 0 26 18">
        <path fill="currentColor" fill-rule="nonzero" d="M1.2 16.62V3.16l10.47 7.5c.37.27.85.4 1.33.4.48 0 .96-.13 1.33-.4l10.46-7.5v13.46H1.21zM24.19 2.11L13.63 9.68a1.2 1.2 0 0 1-1.26 0L1.82 2.11h22.36zm.6-1.21H1.22C.54.9 0 1.44 0 2.11v14.5c0 .68.54 1.22 1.21 1.22H24.8c.67 0 1.21-.54 1.21-1.21V2.12C26 1.43 25.46.9 24.79.9z"/>
    </symbol>

    <symbol id="help" viewBox="0 0 28 28">
        <g fill="none" fill-rule="evenodd">
            <circle cx="13" cy="14" r="13" fill-rule="nonzero" stroke="currentColor" transform="translate(1)"/>
            <path fill="currentColor" d="M13.7 15.55a.33.33 0 0 1-.33-.33v-.72c0-2.14 2.58-1.97 2.58-3.91 0-.81-.58-1.52-1.7-1.52-1.4 0-2.04.8-2.38 1.17-.16.16-.3.16-.45.02l-.33-.3c-.14-.12-.1-.3 0-.44 0 0 .98-1.52 3.16-1.52 1.79 0 3 1.05 3 2.64 0 2.26-2.73 2.45-2.73 3.86v.7c0 .25-.19.35-.36.35h-.47zm-.78 3.88c0-.55.45-.98.98-.98a.98.98 0 1 1-.98.98z"/>
        </g>
    </symbol>

    <symbol id="help-filled" viewBox="0 0 20 20">
        <g fill="none" fill-rule="evenodd" transform="translate(-146 -226)">
            <circle cx="156" cy="236" r="10" fill="#4D4F56" fill-rule="nonzero"/>
            <path fill="#FFF" d="M154.98 238.16c0-.6.08-1.09.23-1.45.15-.36.45-.75.89-1.18.44-.43.73-.74.84-.92.19-.28.28-.58.28-.9 0-.43-.1-.76-.32-.98-.21-.23-.52-.34-.93-.34-.4 0-.71.1-.95.33-.24.22-.36.52-.36.9H153c0-.8.28-1.45.82-1.92.54-.47 1.26-.7 2.15-.7.91 0 1.63.23 2.14.7.51.46.77 1.11.77 1.95 0 .74-.35 1.47-1.04 2.19l-.84.83c-.3.34-.46.84-.47 1.5h-1.55zm-.11 2.13c0-.27.08-.49.25-.65.17-.17.4-.25.68-.25.3 0 .52.08.7.25.16.17.25.39.25.65 0 .25-.09.46-.25.63-.16.17-.4.25-.7.25-.3 0-.53-.08-.7-.25a.87.87 0 0 1-.23-.63z"/>
        </g>
    </symbol>

    <symbol id="icon-map-kali" viewBox="0 0 28 26">
        <path fill="currentColor" fill-rule="nonzero" d="M21.35 20.37l6.43-3.55L20.6.03l-6.7 3.39L7.2 5.4.22 9.18 7.3 25.97l6.8-3.5 7.25-2.1zm5.67-3.8l-5.9 3.25-3.41-8.11 2.27.15c.1.76.76 1.31 1.52 1.28a1.48 1.48 0 0 0 1.44-1.37 1.49 1.49 0 0 0-2.92-.5l-2.57-.17-3.05-7.27L20.3.85l6.72 15.71zm-6.4-5.25a.9.9 0 0 1 1.68.07c.1.3.03.64-.2.88a.9.9 0 0 1-1.51-.36l.67.03a.3.3 0 0 0 .32-.27.3.3 0 0 0-.28-.32l-.67-.03zm-6.77-7.27l2.94 7-4.19-.28-1.41 4.03-3.76-8.85 6.42-1.9zM7.6 25.15L.97 9.44l5.91-3.26 4.01 9.46-.67 1.9-3.63-.5a.3.3 0 0 0-.34.24.3.3 0 0 0 .26.34l4.12.58.61-1.75 2.38 5.6-6.02 3.1zm6.57-3.31l-2.64-6.22 1.48-4.23 4.04.27 3.52 8.38-6.4 1.8z"/>
    </symbol>

</svg>
